<svg width="193" height="490" xmlns="http://www.w3.org/2000/svg" xmlns:xlink="http://www.w3.org/1999/xlink" xml:space="preserve" overflow="hidden"><g transform="translate(-3872 -1480)"><g><path d="M0 0 0.000360892 24.75" stroke="#000000" stroke-width="13.75" stroke-linecap="round" stroke-linejoin="miter" stroke-miterlimit="8" stroke-opacity="1" fill="none" fill-rule="evenodd" transform="matrix(1 0 0 -1 3903 1596.75)"/><path d="M0 0 0.000360892 24.75" stroke="#000000" stroke-width="13.75" stroke-linecap="round" stroke-linejoin="miter" stroke-miterlimit="8" stroke-opacity="1" fill="none" fill-rule="evenodd" transform="matrix(1 0 0 -1 3955 1596.75)"/><path d="M0 0 0.000360892 24.75" stroke="#000000" stroke-width="13.75" stroke-linecap="round" stroke-linejoin="miter" stroke-miterlimit="8" stroke-opacity="1" fill="none" fill-rule="evenodd" transform="matrix(1 0 0 -1 4008 1596.75)"/><path d="M0 0 0.000360892 24.75" stroke="#000000" stroke-width="13.75" stroke-linecap="round" stroke-linejoin="miter" stroke-miterlimit="8" stroke-opacity="1" fill="none" fill-rule="evenodd" transform="matrix(1 0 0 -1 3929 1596.75)"/><path d="M0 0 0.000360892 24.75" stroke="#000000" stroke-width="13.75" stroke-linecap="round" stroke-linejoin="miter" stroke-miterlimit="8" stroke-opacity="1" fill="none" fill-rule="evenodd" transform="matrix(1 0 0 -1 3982 1596.75)"/><path d="M0 0 0.000360892 24.75" stroke="#000000" stroke-width="13.75" stroke-linecap="round" stroke-linejoin="miter" stroke-miterlimit="8" stroke-opacity="1" fill="none" fill-rule="evenodd" transform="matrix(1 0 0 -1 4034 1596.75)"/><path d="M0 0 0.000360892 24.75" stroke="#000000" stroke-width="13.75" stroke-linecap="round" stroke-linejoin="miter" stroke-miterlimit="8" stroke-opacity="1" fill="none" fill-rule="evenodd" transform="matrix(1 0 0 -1 3903 1665.75)"/><path d="M0 0 0.000360892 24.75" stroke="#000000" stroke-width="13.75" stroke-linecap="round" stroke-linejoin="miter" stroke-miterlimit="8" stroke-opacity="1" fill="none" fill-rule="evenodd" transform="matrix(1 0 0 -1 3955 1665.75)"/><path d="M0 0 0.000360892 24.75" stroke="#000000" stroke-width="13.75" stroke-linecap="round" stroke-linejoin="miter" stroke-miterlimit="8" stroke-opacity="1" fill="none" fill-rule="evenodd" transform="matrix(1 0 0 -1 4008 1665.75)"/><path d="M0 0 0.000360892 24.75" stroke="#000000" stroke-width="13.75" stroke-linecap="round" stroke-linejoin="miter" stroke-miterlimit="8" stroke-opacity="1" fill="none" fill-rule="evenodd" transform="matrix(1 0 0 -1 3929 1665.75)"/><path d="M0 0 0.000360892 24.75" stroke="#000000" stroke-width="13.75" stroke-linecap="round" stroke-linejoin="miter" stroke-miterlimit="8" stroke-opacity="1" fill="none" fill-rule="evenodd" transform="matrix(1 0 0 -1 3982 1665.75)"/><path d="M0 0 0.000360892 24.75" stroke="#000000" stroke-width="13.75" stroke-linecap="round" stroke-linejoin="miter" stroke-miterlimit="8" stroke-opacity="1" fill="none" fill-rule="evenodd" transform="matrix(1 0 0 -1 4034 1665.75)"/><path d="M0 0 0.000360892 24.75" stroke="#000000" stroke-width="13.75" stroke-linecap="round" stroke-linejoin="miter" stroke-miterlimit="8" stroke-opacity="1" fill="none" fill-rule="evenodd" transform="matrix(1 0 0 -1 3903 1733.75)"/><path d="M0 0 0.000360892 24.75" stroke="#000000" stroke-width="13.75" stroke-linecap="round" stroke-linejoin="miter" stroke-miterlimit="8" stroke-opacity="1" fill="none" fill-rule="evenodd" transform="matrix(1 0 0 -1 3955 1733.75)"/><path d="M0 0 0.000360892 24.75" stroke="#000000" stroke-width="13.75" stroke-linecap="round" stroke-linejoin="miter" stroke-miterlimit="8" stroke-opacity="1" fill="none" fill-rule="evenodd" transform="matrix(1 0 0 -1 4008 1733.75)"/><path d="M0 0 0.000360892 24.75" stroke="#000000" stroke-width="13.75" stroke-linecap="round" stroke-linejoin="miter" stroke-miterlimit="8" stroke-opacity="1" fill="none" fill-rule="evenodd" transform="matrix(1 0 0 -1 3929 1733.75)"/><path d="M0 0 0.000360892 24.75" stroke="#000000" stroke-width="13.75" stroke-linecap="round" stroke-linejoin="miter" stroke-miterlimit="8" stroke-opacity="1" fill="none" fill-rule="evenodd" transform="matrix(1 0 0 -1 3982 1733.75)"/><path d="M0 0 0.000360892 24.75" stroke="#000000" stroke-width="13.75" stroke-linecap="round" stroke-linejoin="miter" stroke-miterlimit="8" stroke-opacity="1" fill="none" fill-rule="evenodd" transform="matrix(1 0 0 -1 4034 1733.75)"/><path d="M0 0 0.000360892 24.75" stroke="#000000" stroke-width="13.75" stroke-linecap="round" stroke-linejoin="miter" stroke-miterlimit="8" stroke-opacity="1" fill="none" fill-rule="evenodd" transform="matrix(1 0 0 -1 3903 1802.75)"/><path d="M0 0 0.000360892 24.75" stroke="#000000" stroke-width="13.75" stroke-linecap="round" stroke-linejoin="miter" stroke-miterlimit="8" stroke-opacity="1" fill="none" fill-rule="evenodd" transform="matrix(1 0 0 -1 3955 1802.75)"/><path d="M0 0 0.000360892 24.75" stroke="#000000" stroke-width="13.75" stroke-linecap="round" stroke-linejoin="miter" stroke-miterlimit="8" stroke-opacity="1" fill="none" fill-rule="evenodd" transform="matrix(1 0 0 -1 4008 1802.75)"/><path d="M0 0 0.000360892 24.75" stroke="#000000" stroke-width="13.75" stroke-linecap="round" stroke-linejoin="miter" stroke-miterlimit="8" stroke-opacity="1" fill="none" fill-rule="evenodd" transform="matrix(1 0 0 -1 3929 1802.75)"/><path d="M0 0 0.000360892 24.75" stroke="#000000" stroke-width="13.75" stroke-linecap="round" stroke-linejoin="miter" stroke-miterlimit="8" stroke-opacity="1" fill="none" fill-rule="evenodd" transform="matrix(1 0 0 -1 3982 1802.75)"/><path d="M0 0 0.000360892 24.75" stroke="#000000" stroke-width="13.75" stroke-linecap="round" stroke-linejoin="miter" stroke-miterlimit="8" stroke-opacity="1" fill="none" fill-rule="evenodd" transform="matrix(1 0 0 -1 4034 1802.75)"/><path d="M0 0 0.000360892 24.75" stroke="#000000" stroke-width="13.75" stroke-linecap="round" stroke-linejoin="miter" stroke-miterlimit="8" stroke-opacity="1" fill="none" fill-rule="evenodd" transform="matrix(1 0 0 -1 3903 1870.75)"/><path d="M0 0 0.000360892 24.75" stroke="#000000" stroke-width="13.75" stroke-linecap="round" stroke-linejoin="miter" stroke-miterlimit="8" stroke-opacity="1" fill="none" fill-rule="evenodd" transform="matrix(1 0 0 -1 3955 1870.75)"/><path d="M0 0 0.000360892 24.75" stroke="#000000" stroke-width="13.75" stroke-linecap="round" stroke-linejoin="miter" stroke-miterlimit="8" stroke-opacity="1" fill="none" fill-rule="evenodd" transform="matrix(1 0 0 -1 4008 1870.75)"/><path d="M0 0 0.000360892 24.75" stroke="#000000" stroke-width="13.75" stroke-linecap="round" stroke-linejoin="miter" stroke-miterlimit="8" stroke-opacity="1" fill="none" fill-rule="evenodd" transform="matrix(1 0 0 -1 3929 1870.75)"/><path d="M0 0 0.000360892 24.75" stroke="#000000" stroke-width="13.75" stroke-linecap="round" stroke-linejoin="miter" stroke-miterlimit="8" stroke-opacity="1" fill="none" fill-rule="evenodd" transform="matrix(1 0 0 -1 3982 1870.75)"/><path d="M0 0 0.000360892 24.75" stroke="#000000" stroke-width="13.75" stroke-linecap="round" stroke-linejoin="miter" stroke-miterlimit="8" stroke-opacity="1" fill="none" fill-rule="evenodd" transform="matrix(1 0 0 -1 4034 1870.75)"/><path d="M0 0 0.000360892 24.75" stroke="#000000" stroke-width="13.75" stroke-linecap="round" stroke-linejoin="miter" stroke-miterlimit="8" stroke-opacity="1" fill="none" fill-rule="evenodd" transform="matrix(1 0 0 -1 3903 1939.75)"/><path d="M0 0 0.000360892 24.75" stroke="#000000" stroke-width="13.75" stroke-linecap="round" stroke-linejoin="miter" stroke-miterlimit="8" stroke-opacity="1" fill="none" fill-rule="evenodd" transform="matrix(1 0 0 -1 3955 1939.75)"/><path d="M0 0 0.000360892 24.75" stroke="#000000" stroke-width="13.75" stroke-linecap="round" stroke-linejoin="miter" stroke-miterlimit="8" stroke-opacity="1" fill="none" fill-rule="evenodd" transform="matrix(1 0 0 -1 4008 1939.75)"/><path d="M0 0 0.000360892 24.75" stroke="#000000" stroke-width="13.75" stroke-linecap="round" stroke-linejoin="miter" stroke-miterlimit="8" stroke-opacity="1" fill="none" fill-rule="evenodd" transform="matrix(1 0 0 -1 3929 1939.75)"/><path d="M0 0 0.000360892 24.75" stroke="#000000" stroke-width="13.75" stroke-linecap="round" stroke-linejoin="miter" stroke-miterlimit="8" stroke-opacity="1" fill="none" fill-rule="evenodd" transform="matrix(1 0 0 -1 3982 1939.75)"/><path d="M0 0 0.000360892 24.75" stroke="#000000" stroke-width="13.75" stroke-linecap="round" stroke-linejoin="miter" stroke-miterlimit="8" stroke-opacity="1" fill="none" fill-rule="evenodd" transform="matrix(1 0 0 -1 4034 1939.75)"/><path d="M0 0 0.000360892 472.312" stroke="#000000" stroke-width="13.75" stroke-linecap="round" stroke-linejoin="miter" stroke-miterlimit="8" stroke-opacity="1" fill="none" fill-rule="evenodd" transform="matrix(1 0 0 -1 4054 1960.31)"/><path d="M0 0 0.000360892 461.312" stroke="#000000" stroke-width="13.75" stroke-linecap="round" stroke-linejoin="miter" stroke-miterlimit="8" stroke-opacity="1" fill="none" fill-rule="evenodd" transform="matrix(1 0 0 -1 3881 1952.31)"/><path d="M3883 1960 4048 1960" stroke="#000000" stroke-width="13.75" stroke-linecap="round" stroke-linejoin="miter" stroke-miterlimit="8" stroke-opacity="1" fill="none" fill-rule="evenodd"/><path d="M3885 1617 4050 1617" stroke="#000000" stroke-width="13.75" stroke-linecap="round" stroke-linejoin="miter" stroke-miterlimit="8" stroke-opacity="1" fill="none" fill-rule="evenodd"/><path d="M3885 1686 4050 1686" stroke="#000000" stroke-width="13.75" stroke-linecap="round" stroke-linejoin="miter" stroke-miterlimit="8" stroke-opacity="1" fill="none" fill-rule="evenodd"/><path d="M3885 1755 4050 1755" stroke="#000000" stroke-width="13.75" stroke-linecap="round" stroke-linejoin="miter" stroke-miterlimit="8" stroke-opacity="1" fill="none" fill-rule="evenodd"/><path d="M3885 1892 4050 1892" stroke="#000000" stroke-width="13.75" stroke-linecap="round" stroke-linejoin="miter" stroke-miterlimit="8" stroke-opacity="1" fill="none" fill-rule="evenodd"/><path d="M3885 1823 4050 1823" stroke="#000000" stroke-width="13.75" stroke-linecap="round" stroke-linejoin="miter" stroke-miterlimit="8" stroke-opacity="1" fill="none" fill-rule="evenodd"/><path d="M3887 1555 4052 1555" stroke="#000000" stroke-width="13.75" stroke-linecap="round" stroke-linejoin="miter" stroke-miterlimit="8" stroke-opacity="1" fill="none" fill-rule="evenodd"/><path d="M3881 1488 4046 1488" stroke="#000000" stroke-width="13.75" stroke-linecap="round" stroke-linejoin="miter" stroke-miterlimit="8" stroke-opacity="1" fill="none" fill-rule="evenodd"/><path d="M4029.32 1514.01 4000.74 1530.52" stroke="#000000" stroke-width="13.75" stroke-linecap="round" stroke-linejoin="miter" stroke-miterlimit="8" stroke-opacity="1" fill="none" fill-rule="evenodd"/><path d="M4029.32 1531.25 4000.74 1514.75" stroke="#000000" stroke-width="13.75" stroke-linecap="round" stroke-linejoin="miter" stroke-miterlimit="8" stroke-opacity="1" fill="none" fill-rule="evenodd"/><path d="M4015 1539 4015 1506" stroke="#000000" stroke-width="13.75" stroke-linecap="round" stroke-linejoin="miter" stroke-miterlimit="8" stroke-opacity="1" fill="none" fill-rule="evenodd"/></g></g></svg>