<svg width="527" height="582" xmlns="http://www.w3.org/2000/svg" xmlns:xlink="http://www.w3.org/1999/xlink" xml:space="preserve" overflow="hidden"><g transform="translate(-2942 -467)"><g><path d="M0 0 0.000360892 460.167" stroke="#000000" stroke-width="13.75" stroke-linecap="round" stroke-linejoin="miter" stroke-miterlimit="8" stroke-opacity="1" fill="none" fill-rule="evenodd" transform="matrix(-1 0 0 1 2974 517)"/><path d="M2951 478 3459.29 478.001" stroke="#000000" stroke-width="13.75" stroke-linecap="round" stroke-linejoin="miter" stroke-miterlimit="8" stroke-opacity="1" fill="none" fill-rule="evenodd"/><path d="M0 0 0.000360892 460.167" stroke="#000000" stroke-width="13.75" stroke-linecap="round" stroke-linejoin="miter" stroke-miterlimit="8" stroke-opacity="1" fill="none" fill-rule="evenodd" transform="matrix(-1 0 0 1 3438 517)"/><path d="M2998 547 3413.48 547" stroke="#000000" stroke-width="13.75" stroke-linecap="round" stroke-linejoin="miter" stroke-miterlimit="8" stroke-opacity="1" fill="none" fill-rule="evenodd"/><path d="M2974 977 3127.31 977" stroke="#000000" stroke-width="13.75" stroke-linecap="round" stroke-linejoin="miter" stroke-miterlimit="8" stroke-opacity="1" fill="none" fill-rule="evenodd"/><path d="M3185 977 3226.94 977" stroke="#000000" stroke-width="13.75" stroke-linecap="round" stroke-linejoin="miter" stroke-miterlimit="8" stroke-opacity="1" fill="none" fill-rule="evenodd"/><path d="M2951 478 2951 516.958" stroke="#000000" stroke-width="13.75" stroke-linecap="round" stroke-linejoin="miter" stroke-miterlimit="8" stroke-opacity="1" fill="none" fill-rule="evenodd"/><path d="M3461 478 3461 516.958" stroke="#000000" stroke-width="13.75" stroke-linecap="round" stroke-linejoin="miter" stroke-miterlimit="8" stroke-opacity="1" fill="none" fill-rule="evenodd"/><path d="M2951 517 3460.9 517" stroke="#000000" stroke-width="13.75" stroke-linecap="round" stroke-linejoin="miter" stroke-miterlimit="8" stroke-opacity="1" fill="none" fill-rule="evenodd"/><path d="M3282 976 3437.15 976" stroke="#000000" stroke-width="13.75" stroke-linecap="round" stroke-linejoin="miter" stroke-miterlimit="8" stroke-opacity="1" fill="none" fill-rule="evenodd"/><path d="M2998 981 2998 1038.98" stroke="#000000" stroke-width="13.75" stroke-linecap="round" stroke-linejoin="miter" stroke-miterlimit="8" stroke-opacity="1" fill="none" fill-rule="evenodd"/><path d="M3023 981 3023 1038.98" stroke="#000000" stroke-width="13.75" stroke-linecap="round" stroke-linejoin="miter" stroke-miterlimit="8" stroke-opacity="1" fill="none" fill-rule="evenodd"/><path d="M2998 1039 3022.75 1039" stroke="#000000" stroke-width="13.75" stroke-linecap="round" stroke-linejoin="miter" stroke-miterlimit="8" stroke-opacity="1" fill="none" fill-rule="evenodd"/><path d="M3388 981 3388 1038.98" stroke="#000000" stroke-width="13.75" stroke-linecap="round" stroke-linejoin="miter" stroke-miterlimit="8" stroke-opacity="1" fill="none" fill-rule="evenodd"/><path d="M3413 981 3413 1038.98" stroke="#000000" stroke-width="13.75" stroke-linecap="round" stroke-linejoin="miter" stroke-miterlimit="8" stroke-opacity="1" fill="none" fill-rule="evenodd"/><path d="M3388 1039 3412.75 1039" stroke="#000000" stroke-width="13.75" stroke-linecap="round" stroke-linejoin="miter" stroke-miterlimit="8" stroke-opacity="1" fill="none" fill-rule="evenodd"/><path d="M3010 606.5C3010 600.701 3014.7 596 3020.5 596L3075.5 596C3081.3 596 3086 600.701 3086 606.5L3086 648.5C3086 654.299 3081.3 659 3075.5 659L3020.5 659C3014.7 659 3010 654.299 3010 648.5Z" stroke="#000000" stroke-width="13.75" stroke-linecap="round" stroke-linejoin="round" stroke-miterlimit="10" stroke-opacity="1" fill="none" fill-rule="evenodd"/><path d="M3010 862.5C3010 856.701 3014.7 852 3020.5 852L3075.5 852C3081.3 852 3086 856.701 3086 862.5L3086 904.5C3086 910.299 3081.3 915 3075.5 915L3020.5 915C3014.7 915 3010 910.299 3010 904.5Z" stroke="#000000" stroke-width="13.75" stroke-linecap="round" stroke-linejoin="round" stroke-miterlimit="10" stroke-opacity="1" fill="none" fill-rule="evenodd"/><rect x="2995" y="659" width="106" height="193" stroke="#000000" stroke-width="13.75" stroke-linecap="round" stroke-linejoin="round" stroke-miterlimit="10" stroke-opacity="1" fill="none"/><path d="M2995 755 3100.42 755" stroke="#000000" stroke-width="13.75" stroke-linecap="butt" stroke-linejoin="miter" stroke-miterlimit="8" stroke-opacity="1" fill="none" fill-rule="evenodd"/><path d="M3034 629C3034 621.268 3040.27 615 3048 615 3055.73 615 3062 621.268 3062 629 3062 636.732 3055.73 643 3048 643 3040.27 643 3034 636.732 3034 629Z" stroke="#000000" stroke-width="13.75" stroke-linecap="butt" stroke-linejoin="miter" stroke-miterlimit="8" stroke-opacity="1" fill="none" fill-rule="evenodd"/><path d="M3034 882C3034 874.268 3040.27 868 3048 868 3055.73 868 3062 874.268 3062 882 3062 889.732 3055.73 896 3048 896 3040.27 896 3034 889.732 3034 882Z" stroke="#000000" stroke-width="13.75" stroke-linecap="butt" stroke-linejoin="miter" stroke-miterlimit="8" stroke-opacity="1" fill="none" fill-rule="evenodd"/><path d="M3019 802.5C3019 786.76 3031.98 774 3048 774 3064.02 774 3077 786.76 3077 802.5 3077 818.24 3064.02 831 3048 831 3031.98 831 3019 818.24 3019 802.5Z" stroke="#000000" stroke-width="13.75" stroke-linecap="butt" stroke-linejoin="miter" stroke-miterlimit="8" stroke-opacity="1" fill="none" fill-rule="evenodd"/><path d="M3019 710C3019 693.984 3031.98 681 3048 681 3064.02 681 3077 693.984 3077 710 3077 726.016 3064.02 739 3048 739 3031.98 739 3019 726.016 3019 710Z" stroke="#000000" stroke-width="13.75" stroke-linecap="butt" stroke-linejoin="miter" stroke-miterlimit="8" stroke-opacity="1" fill="none" fill-rule="evenodd"/><path d="M3038 803 3058.97 803" stroke="#000000" stroke-width="13.75" stroke-linecap="round" stroke-linejoin="miter" stroke-miterlimit="8" stroke-opacity="1" fill="none" fill-rule="evenodd"/><path d="M3038 710 3058.97 710" stroke="#000000" stroke-width="13.75" stroke-linecap="round" stroke-linejoin="miter" stroke-miterlimit="8" stroke-opacity="1" fill="none" fill-rule="evenodd"/><path d="M3048 699 3048 719.968" stroke="#000000" stroke-width="13.75" stroke-linecap="round" stroke-linejoin="miter" stroke-miterlimit="8" stroke-opacity="1" fill="none" fill-rule="evenodd"/><path d="M3115 606.5C3115 600.701 3119.7 596 3125.5 596L3180.5 596C3186.3 596 3191 600.701 3191 606.5L3191 648.5C3191 654.299 3186.3 659 3180.5 659L3125.5 659C3119.7 659 3115 654.299 3115 648.5Z" stroke="#000000" stroke-width="13.75" stroke-linecap="round" stroke-linejoin="round" stroke-miterlimit="10" stroke-opacity="1" fill="none" fill-rule="evenodd"/><path d="M3115 863.5C3115 857.701 3119.7 853 3125.5 853L3180.5 853C3186.3 853 3191 857.701 3191 863.5L3191 905.5C3191 911.299 3186.3 916 3180.5 916L3125.5 916C3119.7 916 3115 911.299 3115 905.5Z" stroke="#000000" stroke-width="13.75" stroke-linecap="round" stroke-linejoin="round" stroke-miterlimit="10" stroke-opacity="1" fill="none" fill-rule="evenodd"/><rect x="3100" y="659" width="106" height="194" stroke="#000000" stroke-width="13.75" stroke-linecap="round" stroke-linejoin="round" stroke-miterlimit="10" stroke-opacity="1" fill="none"/><path d="M3100 756 3205.42 756" stroke="#000000" stroke-width="13.75" stroke-linecap="butt" stroke-linejoin="miter" stroke-miterlimit="8" stroke-opacity="1" fill="none" fill-rule="evenodd"/><path d="M3139 629C3139 621.268 3145.27 615 3153 615 3160.73 615 3167 621.268 3167 629 3167 636.732 3160.73 643 3153 643 3145.27 643 3139 636.732 3139 629Z" stroke="#000000" stroke-width="13.75" stroke-linecap="butt" stroke-linejoin="miter" stroke-miterlimit="8" stroke-opacity="1" fill="none" fill-rule="evenodd"/><path d="M3139 882.5C3139 874.492 3145.27 868 3153 868 3160.73 868 3167 874.492 3167 882.5 3167 890.508 3160.73 897 3153 897 3145.27 897 3139 890.508 3139 882.5Z" stroke="#000000" stroke-width="13.75" stroke-linecap="butt" stroke-linejoin="miter" stroke-miterlimit="8" stroke-opacity="1" fill="none" fill-rule="evenodd"/><path d="M3124 802.5C3124 786.76 3136.98 774 3153 774 3169.02 774 3182 786.76 3182 802.5 3182 818.24 3169.02 831 3153 831 3136.98 831 3124 818.24 3124 802.5Z" stroke="#000000" stroke-width="13.75" stroke-linecap="butt" stroke-linejoin="miter" stroke-miterlimit="8" stroke-opacity="1" fill="none" fill-rule="evenodd"/><path d="M3124 710C3124 693.984 3136.98 681 3153 681 3169.02 681 3182 693.984 3182 710 3182 726.016 3169.02 739 3153 739 3136.98 739 3124 726.016 3124 710Z" stroke="#000000" stroke-width="13.75" stroke-linecap="butt" stroke-linejoin="miter" stroke-miterlimit="8" stroke-opacity="1" fill="none" fill-rule="evenodd"/><path d="M3143 803 3163.97 803" stroke="#000000" stroke-width="13.75" stroke-linecap="round" stroke-linejoin="miter" stroke-miterlimit="8" stroke-opacity="1" fill="none" fill-rule="evenodd"/><path d="M3143 710 3163.97 710" stroke="#000000" stroke-width="13.75" stroke-linecap="round" stroke-linejoin="miter" stroke-miterlimit="8" stroke-opacity="1" fill="none" fill-rule="evenodd"/><path d="M3153 700 3153 720.968" stroke="#000000" stroke-width="13.75" stroke-linecap="round" stroke-linejoin="miter" stroke-miterlimit="8" stroke-opacity="1" fill="none" fill-rule="evenodd"/><path d="M3221 606.5C3221 600.701 3225.7 596 3231.5 596L3286.5 596C3292.3 596 3297 600.701 3297 606.5L3297 648.5C3297 654.299 3292.3 659 3286.5 659L3231.5 659C3225.7 659 3221 654.299 3221 648.5Z" stroke="#000000" stroke-width="13.75" stroke-linecap="round" stroke-linejoin="round" stroke-miterlimit="10" stroke-opacity="1" fill="none" fill-rule="evenodd"/><path d="M3221 862.5C3221 856.701 3225.7 852 3231.5 852L3286.5 852C3292.3 852 3297 856.701 3297 862.5L3297 904.5C3297 910.299 3292.3 915 3286.5 915L3231.5 915C3225.7 915 3221 910.299 3221 904.5Z" stroke="#000000" stroke-width="13.75" stroke-linecap="round" stroke-linejoin="round" stroke-miterlimit="10" stroke-opacity="1" fill="none" fill-rule="evenodd"/><rect x="3206" y="659" width="105" height="193" stroke="#000000" stroke-width="13.75" stroke-linecap="round" stroke-linejoin="round" stroke-miterlimit="10" stroke-opacity="1" fill="none"/><path d="M3206 756 3311.42 756" stroke="#000000" stroke-width="13.75" stroke-linecap="butt" stroke-linejoin="miter" stroke-miterlimit="8" stroke-opacity="1" fill="none" fill-rule="evenodd"/><path d="M3244 629C3244 621.268 3250.49 615 3258.5 615 3266.51 615 3273 621.268 3273 629 3273 636.732 3266.51 643 3258.5 643 3250.49 643 3244 636.732 3244 629Z" stroke="#000000" stroke-width="13.75" stroke-linecap="butt" stroke-linejoin="miter" stroke-miterlimit="8" stroke-opacity="1" fill="none" fill-rule="evenodd"/><path d="M3244 882.5C3244 874.492 3250.49 868 3258.5 868 3266.51 868 3273 874.492 3273 882.5 3273 890.508 3266.51 897 3258.5 897 3250.49 897 3244 890.508 3244 882.5Z" stroke="#000000" stroke-width="13.75" stroke-linecap="butt" stroke-linejoin="miter" stroke-miterlimit="8" stroke-opacity="1" fill="none" fill-rule="evenodd"/><path d="M3230 802.5C3230 786.76 3242.98 774 3259 774 3275.02 774 3288 786.76 3288 802.5 3288 818.24 3275.02 831 3259 831 3242.98 831 3230 818.24 3230 802.5Z" stroke="#000000" stroke-width="13.75" stroke-linecap="butt" stroke-linejoin="miter" stroke-miterlimit="8" stroke-opacity="1" fill="none" fill-rule="evenodd"/><path d="M3230 710C3230 693.984 3242.98 681 3259 681 3275.02 681 3288 693.984 3288 710 3288 726.016 3275.02 739 3259 739 3242.98 739 3230 726.016 3230 710Z" stroke="#000000" stroke-width="13.75" stroke-linecap="butt" stroke-linejoin="miter" stroke-miterlimit="8" stroke-opacity="1" fill="none" fill-rule="evenodd"/><path d="M3248 803 3268.97 803" stroke="#000000" stroke-width="13.75" stroke-linecap="round" stroke-linejoin="miter" stroke-miterlimit="8" stroke-opacity="1" fill="none" fill-rule="evenodd"/><path d="M3248 710 3268.97 710" stroke="#000000" stroke-width="13.75" stroke-linecap="round" stroke-linejoin="miter" stroke-miterlimit="8" stroke-opacity="1" fill="none" fill-rule="evenodd"/><path d="M3259 700 3259 720.968" stroke="#000000" stroke-width="13.75" stroke-linecap="round" stroke-linejoin="miter" stroke-miterlimit="8" stroke-opacity="1" fill="none" fill-rule="evenodd"/><path d="M3326 606.5C3326 600.701 3330.7 596 3336.5 596L3391.5 596C3397.3 596 3402 600.701 3402 606.5L3402 648.5C3402 654.299 3397.3 659 3391.5 659L3336.5 659C3330.7 659 3326 654.299 3326 648.5Z" stroke="#000000" stroke-width="13.75" stroke-linecap="round" stroke-linejoin="round" stroke-miterlimit="10" stroke-opacity="1" fill="none" fill-rule="evenodd"/><path d="M3326 862.5C3326 856.701 3330.7 852 3336.5 852L3391.5 852C3397.3 852 3402 856.701 3402 862.5L3402 904.5C3402 910.299 3397.3 915 3391.5 915L3336.5 915C3330.7 915 3326 910.299 3326 904.5Z" stroke="#000000" stroke-width="13.75" stroke-linecap="round" stroke-linejoin="round" stroke-miterlimit="10" stroke-opacity="1" fill="none" fill-rule="evenodd"/><rect x="3311" y="659" width="106" height="193" stroke="#000000" stroke-width="13.75" stroke-linecap="round" stroke-linejoin="round" stroke-miterlimit="10" stroke-opacity="1" fill="none"/><path d="M3311 755 3416.42 755" stroke="#000000" stroke-width="13.75" stroke-linecap="butt" stroke-linejoin="miter" stroke-miterlimit="8" stroke-opacity="1" fill="none" fill-rule="evenodd"/><path d="M3350 629C3350 621.268 3356.27 615 3364 615 3371.73 615 3378 621.268 3378 629 3378 636.732 3371.73 643 3364 643 3356.27 643 3350 636.732 3350 629Z" stroke="#000000" stroke-width="13.75" stroke-linecap="butt" stroke-linejoin="miter" stroke-miterlimit="8" stroke-opacity="1" fill="none" fill-rule="evenodd"/><path d="M3350 882C3350 874.268 3356.27 868 3364 868 3371.73 868 3378 874.268 3378 882 3378 889.732 3371.73 896 3364 896 3356.27 896 3350 889.732 3350 882Z" stroke="#000000" stroke-width="13.75" stroke-linecap="butt" stroke-linejoin="miter" stroke-miterlimit="8" stroke-opacity="1" fill="none" fill-rule="evenodd"/><path d="M3335 802.5C3335 786.76 3347.98 774 3364 774 3380.02 774 3393 786.76 3393 802.5 3393 818.24 3380.02 831 3364 831 3347.98 831 3335 818.24 3335 802.5Z" stroke="#000000" stroke-width="13.75" stroke-linecap="butt" stroke-linejoin="miter" stroke-miterlimit="8" stroke-opacity="1" fill="none" fill-rule="evenodd"/><path d="M3335 710C3335 693.984 3347.98 681 3364 681 3380.02 681 3393 693.984 3393 710 3393 726.016 3380.02 739 3364 739 3347.98 739 3335 726.016 3335 710Z" stroke="#000000" stroke-width="13.75" stroke-linecap="butt" stroke-linejoin="miter" stroke-miterlimit="8" stroke-opacity="1" fill="none" fill-rule="evenodd"/><path d="M3353 803 3373.97 803" stroke="#000000" stroke-width="13.75" stroke-linecap="round" stroke-linejoin="miter" stroke-miterlimit="8" stroke-opacity="1" fill="none" fill-rule="evenodd"/><path d="M3353 710 3373.97 710" stroke="#000000" stroke-width="13.75" stroke-linecap="round" stroke-linejoin="miter" stroke-miterlimit="8" stroke-opacity="1" fill="none" fill-rule="evenodd"/><path d="M3364 699 3364 719.968" stroke="#000000" stroke-width="13.75" stroke-linecap="round" stroke-linejoin="miter" stroke-miterlimit="8" stroke-opacity="1" fill="none" fill-rule="evenodd"/></g></g></svg>