<svg width="555" height="592" xmlns="http://www.w3.org/2000/svg" xmlns:xlink="http://www.w3.org/1999/xlink" xml:space="preserve" overflow="hidden"><g transform="translate(-137 -462)"><g><path d="M145 609 145 1043.04" stroke="#000000" stroke-width="13.75" stroke-linecap="round" stroke-linejoin="round" stroke-miterlimit="10" stroke-opacity="1" fill="none" fill-rule="evenodd"/><path d="M145 1043 170.966 1043" stroke="#000000" stroke-width="13.75" stroke-linecap="round" stroke-linejoin="round" stroke-miterlimit="10" stroke-opacity="1" fill="none" fill-rule="evenodd"/><path d="M0 0 24.2855 37.5155" stroke="#000000" stroke-width="13.75" stroke-linecap="round" stroke-linejoin="round" stroke-miterlimit="10" stroke-opacity="1" fill="none" fill-rule="evenodd" transform="matrix(1 0 0 -1 171 1043.52)"/><path d="M0 0 437.143 0.000360892" stroke="#000000" stroke-width="13.75" stroke-linecap="round" stroke-linejoin="round" stroke-miterlimit="10" stroke-opacity="1" fill="none" fill-rule="evenodd" transform="matrix(-1 0 0 1 632.143 1006)"/><path d="M656.286 1043.43 632 1006" stroke="#000000" stroke-width="13.75" stroke-linecap="round" stroke-linejoin="round" stroke-miterlimit="10" stroke-opacity="1" fill="none" fill-rule="evenodd"/><path d="M0 0 27.7999 0.000360892" stroke="#000000" stroke-width="13.75" stroke-linecap="round" stroke-linejoin="round" stroke-miterlimit="10" stroke-opacity="1" fill="none" fill-rule="evenodd" transform="matrix(-1 0 0 1 683.8 1043)"/><path d="M684 609 684 1043.04" stroke="#000000" stroke-width="13.75" stroke-linecap="round" stroke-linejoin="round" stroke-miterlimit="10" stroke-opacity="1" fill="none" fill-rule="evenodd"/><path d="M145 609 684.48 609" stroke="#000000" stroke-width="13.75" stroke-linecap="round" stroke-linejoin="round" stroke-miterlimit="10" stroke-opacity="1" fill="none" fill-rule="evenodd"/><path d="M0 0 0.000360892 80.9247" stroke="#000000" stroke-width="13.75" stroke-linecap="round" stroke-linejoin="round" stroke-miterlimit="10" stroke-opacity="1" fill="none" fill-rule="evenodd" transform="matrix(1 0 0 -1 227 667.925)"/><path d="M190 579 200 539 253 539 263 579Z" stroke="#000000" stroke-width="13.75" stroke-linecap="round" stroke-linejoin="round" stroke-miterlimit="10" stroke-opacity="1" fill="none" fill-rule="evenodd"/><path d="M190 539 199.75 500 253.25 500 263 539Z" stroke="#000000" stroke-width="13.75" stroke-linecap="round" stroke-linejoin="round" stroke-miterlimit="10" stroke-opacity="1" fill="none" fill-rule="evenodd"/><path d="M227 498.571 227 473" stroke="#000000" stroke-width="13.75" stroke-linecap="round" stroke-linejoin="round" stroke-miterlimit="10" stroke-opacity="1" fill="none" fill-rule="evenodd"/><path d="M0 0 0.000360892 80.9247" stroke="#000000" stroke-width="13.75" stroke-linecap="round" stroke-linejoin="round" stroke-miterlimit="10" stroke-opacity="1" fill="none" fill-rule="evenodd" transform="matrix(1 0 0 -1 419 667.925)"/><path d="M383 579 393 539 446 539 456 579Z" stroke="#000000" stroke-width="13.75" stroke-linecap="round" stroke-linejoin="round" stroke-miterlimit="10" stroke-opacity="1" fill="none" fill-rule="evenodd"/><path d="M383 539 392.75 500 446.25 500 456 539Z" stroke="#000000" stroke-width="13.75" stroke-linecap="round" stroke-linejoin="round" stroke-miterlimit="10" stroke-opacity="1" fill="none" fill-rule="evenodd"/><path d="M419 498.571 419 473" stroke="#000000" stroke-width="13.75" stroke-linecap="round" stroke-linejoin="round" stroke-miterlimit="10" stroke-opacity="1" fill="none" fill-rule="evenodd"/><path d="M0 0 0.000360892 80.9247" stroke="#000000" stroke-width="13.75" stroke-linecap="round" stroke-linejoin="round" stroke-miterlimit="10" stroke-opacity="1" fill="none" fill-rule="evenodd" transform="matrix(1 0 0 -1 605 667.925)"/><path d="M568 579 578 539 631 539 641 579Z" stroke="#000000" stroke-width="13.75" stroke-linecap="round" stroke-linejoin="round" stroke-miterlimit="10" stroke-opacity="1" fill="none" fill-rule="evenodd"/><path d="M568 539 577.75 500 631.25 500 641 539Z" stroke="#000000" stroke-width="13.75" stroke-linecap="round" stroke-linejoin="round" stroke-miterlimit="10" stroke-opacity="1" fill="none" fill-rule="evenodd"/><path d="M605 498.571 605 473" stroke="#000000" stroke-width="13.75" stroke-linecap="round" stroke-linejoin="round" stroke-miterlimit="10" stroke-opacity="1" fill="none" fill-rule="evenodd"/><path d="M145 669 684.48 669" stroke="#000000" stroke-width="13.75" stroke-linecap="round" stroke-linejoin="round" stroke-miterlimit="10" stroke-opacity="1" fill="none" fill-rule="evenodd"/><path d="M208 776 208 947.415" stroke="#000000" stroke-width="13.75" stroke-linecap="round" stroke-linejoin="round" stroke-miterlimit="10" stroke-opacity="1" fill="none" fill-rule="evenodd"/><path d="M145 947 683.765 947" stroke="#000000" stroke-width="13.75" stroke-linecap="round" stroke-linejoin="round" stroke-miterlimit="10" stroke-opacity="1" fill="none" fill-rule="evenodd"/><path d="M0 0 102.596 172.78" stroke="#000000" stroke-width="13.75" stroke-linecap="round" stroke-linejoin="round" stroke-miterlimit="10" stroke-opacity="1" fill="none" fill-rule="evenodd" transform="matrix(-1 0 0 1 418.595 723)"/><path d="M418 721 520.32 897.847" stroke="#000000" stroke-width="13.75" stroke-linecap="round" stroke-linejoin="round" stroke-miterlimit="10" stroke-opacity="1" fill="none" fill-rule="evenodd"/><path d="M318 898 520.611 898" stroke="#000000" stroke-width="13.75" stroke-linecap="round" stroke-linejoin="round" stroke-miterlimit="10" stroke-opacity="1" fill="none" fill-rule="evenodd"/><path d="M0 0 23.2934 38.9717" stroke="#000000" stroke-width="13.75" stroke-linecap="round" stroke-linejoin="round" stroke-miterlimit="10" stroke-opacity="1" fill="none" fill-rule="evenodd" transform="matrix(-1 0 0 1 417.293 798)"/><path d="M0 0 23.2934 38.9717" stroke="#000000" stroke-width="13.75" stroke-linecap="round" stroke-linejoin="round" stroke-miterlimit="10" stroke-opacity="1" fill="none" fill-rule="evenodd" transform="matrix(-1 0 0 1 430.293 837)"/><path d="M0 0 33.9899 5.17195" stroke="#000000" stroke-width="13.75" stroke-linecap="round" stroke-linejoin="round" stroke-miterlimit="10" stroke-opacity="1" fill="none" fill-rule="evenodd" transform="matrix(1 0 0 -1 396 836.172)"/><path d="M239 776 239 948.09" stroke="#000000" stroke-width="13.75" stroke-linecap="round" stroke-linejoin="round" stroke-miterlimit="10" stroke-opacity="1" fill="none" fill-rule="evenodd"/><path d="M587 775 587 947.091" stroke="#000000" stroke-width="13.75" stroke-linecap="round" stroke-linejoin="round" stroke-miterlimit="10" stroke-opacity="1" fill="none" fill-rule="evenodd"/><path d="M619 774 619 946.091" stroke="#000000" stroke-width="13.75" stroke-linecap="round" stroke-linejoin="round" stroke-miterlimit="10" stroke-opacity="1" fill="none" fill-rule="evenodd"/></g></g></svg>