<?xml version="1.0" encoding="UTF-8"?><svg id="Layer_1" xmlns="http://www.w3.org/2000/svg" width="5.47in" height=".75in" viewBox="0 0 394 54"><defs><style>.cls-1{fill:#fff;}</style></defs><path class="cls-1" d="m145.21,20.48c-1.75-1.79-3.84-3.21-6.14-4.19-4.87-2.03-10.44-2.04-15.31,0-2.3.99-4.39,2.42-6.14,4.21-1.74,1.8-3.12,3.91-4.06,6.23-.98,2.42-1.48,5.01-1.46,7.62-.02,2.63.47,5.2,1.46,7.65.93,2.33,2.31,4.45,4.06,6.24,1.75,1.8,3.84,3.23,6.14,4.21,2.42,1.02,5.02,1.54,7.65,1.54,2.01,0,4.02-.3,5.96-.92,1.81-.58,3.52-1.43,5.08-2.51,1.51-1.04,2.85-2.31,3.98-3.75,1.11-1.4,2.02-2.95,2.7-4.6l.64-1.53h-7.9l-.32.6c-.48.9-1.07,1.73-1.76,2.47-.69.74-1.47,1.37-2.34,1.89-.88.53-1.84.94-2.82,1.2-1.03.28-2.09.43-3.16.43-1.46,0-2.91-.26-4.28-.8-1.36-.53-2.62-1.29-3.71-2.26-1.13-1.01-2.07-2.22-2.78-3.57-.58-1.1-.99-2.28-1.22-3.5h30.99l.1-.86h.15v-1.9c.02-2.62-.48-5.23-1.48-7.65-.94-2.32-2.32-4.43-4.06-6.23m-25.55,10.45c.25-1.08.64-2.12,1.15-3.1.66-1.29,1.54-2.45,2.61-3.42,1.06-.96,2.28-1.72,3.61-2.25,1.41-.55,2.89-.85,4.4-.81h.01c2.86-.04,5.73,1.07,7.86,3.07,1.06.99,1.94,2.16,2.6,3.46.51.98.89,2.01,1.15,3.07h-23.4s0,0,0,0Zm51.9-14.75c-1.23.3-2.42.74-3.55,1.32-1.05.54-2.04,1.21-2.93,2-.13.12-.28.25-.41.38l-.37-4.17h-6.38v37.26h7.29v-18.55c-.03-1.77.24-3.53.81-5.2.47-1.36,1.2-2.57,2.18-3.62.93-.96,2.06-1.7,3.32-2.17,1.41-.52,2.91-.77,4.41-.76h4.71v-6.97h-4.93c-1.4-.01-2.8.15-4.16.48m43.8,3.78c-1.23-1.22-2.62-2.25-4.15-3.07-1.27-.67-2.62-1.2-4.01-1.58-1.49-.4-3.03-.55-4.57-.59-5.17-.04-10.15,2.04-13.67,5.76-1.7,1.8-3.04,3.92-3.94,6.23-.95,2.42-1.43,5-1.4,7.61-.02,2.61.45,5.19,1.4,7.62.89,2.32,2.23,4.43,3.94,6.23,1.7,1.79,3.75,3.22,6.02,4.2,2.33,1.02,4.85,1.54,7.39,1.54h.2c1.53-.03,3.06-.18,4.55-.57,2.74-.72,5.29-2.06,7.43-3.92.26-.23.52-.48.78-.72l.28,4.26h6.6V15.71h-6.6l-.25,4.27h0Zm-3.81,5.27c1.12,1.16,2.01,2.53,2.62,4.03.66,1.61.99,3.32.97,5.09.02,1.75-.3,3.49-.95,5.11-.6,1.5-1.49,2.87-2.61,4.03-1.09,1.13-2.39,2.02-3.83,2.64-1.49.64-3.08.93-4.71.94-1.56.05-3.19-.31-4.68-.96-1.44-.62-2.74-1.51-3.83-2.64-1.12-1.15-2-2.52-2.59-4.01-.65-1.62-.98-3.36-.95-5.11v-.65c.06-1.53.38-3.02.96-4.45.59-1.49,1.47-2.86,2.58-4.02,1.08-1.12,2.38-2.02,3.82-2.63,3.01-1.28,6.4-1.28,9.41,0,1.44.61,2.74,1.51,3.83,2.64m53.81-4.74c-3.5-3.72-8.46-5.72-13.57-5.77-2.96.04-5.84.68-8.44,2.02-1.21.62-2.34,1.39-3.36,2.29-.21.18-.41.37-.61.55V0h-7.33v52.99h6.6l.25-4.24c.26.25.51.48.78.72,1.04.91,2.19,1.7,3.41,2.36,1.27.68,2.62,1.2,4.01,1.58,1.47.39,2.99.59,4.5.59h.25c5.08,0,9.97-2.09,13.45-5.77,1.71-1.81,3.05-3.93,3.95-6.24.96-2.43,1.44-5.02,1.42-7.63.03-2.6-.45-5.19-1.4-7.61-.9-2.31-2.23-4.42-3.92-6.23m-2,13.82v.65c-.06,1.54-.38,3.05-.95,4.48-.6,1.5-1.48,2.86-2.61,4.01-1.1,1.12-2.4,2.02-3.84,2.64-4.5,1.93-9.83.87-13.23-2.61-1.12-1.16-2-2.53-2.59-4.03-1.28-3.28-1.28-6.93,0-10.21.6-1.49,1.48-2.85,2.6-4,1.1-1.12,2.4-2.02,3.84-2.65,3.01-1.27,6.4-1.27,9.41,0,1.43.62,2.73,1.52,3.82,2.64,1.12,1.16,2,2.52,2.59,4.02.65,1.61.97,3.33.95,5.07m43.97-14.36c-.25-.24-.5-.48-.76-.71-1.04-.92-2.18-1.71-3.39-2.36-1.27-.67-2.62-1.2-4.01-1.58-1.49-.4-3.04-.64-4.57-.59-5.17-.04-10.14,2.04-13.67,5.76-1.7,1.8-3.04,3.92-3.93,6.23-.95,2.42-1.43,5-1.41,7.61-.02,2.61.46,5.19,1.4,7.62.89,2.32,2.23,4.43,3.94,6.23,1.71,1.78,3.75,3.21,6.02,4.2,2.33,1.02,4.85,1.54,7.39,1.54h.2c1.51.02,3.06-.18,4.55-.57,2.75-.72,5.29-2.06,7.43-3.92.26-.23.52-.48.78-.72l.28,4.26h6.6V15.71h-6.6l-.25,4.27h0,0Zm-3.81,5.27c1.12,1.16,2.01,2.53,2.61,4.02.66,1.62.99,3.32.97,5.09.02,1.75-.31,3.49-.95,5.11-.6,1.5-1.49,2.87-2.61,4.03-1.09,1.13-2.39,2.02-3.83,2.64-1.49.64-3.08.93-4.71.94-1.61-.03-3.19-.31-4.68-.96-1.44-.62-2.74-1.51-3.83-2.64-1.12-1.15-2-2.52-2.59-4.01-.65-1.62-.98-3.36-.95-5.11v-.02c-.02-1.74.31-3.46.96-5.07.59-1.49,1.47-2.86,2.58-4.02,1.08-1.12,2.38-2.02,3.82-2.63,3.01-1.27,6.4-1.27,9.41,0,1.44.61,2.74,1.51,3.83,2.64m45.92,9.99c-.74-.8-1.61-1.47-2.58-1.98-.95-.51-1.94-.93-2.96-1.26-1.03-.34-2.09-.61-3.17-.8-1.02-.19-2.05-.35-3.08-.5-1.41-.13-2.81-.33-4.2-.6-.97-.18-1.9-.49-2.78-.92-.55-.26-1.03-.66-1.39-1.15-.32-.49-.48-1.07-.45-1.66,0-.62.13-1.22.36-1.79.26-.59.65-1.11,1.15-1.52.67-.54,1.43-.93,2.26-1.17,1.19-.35,2.43-.51,3.67-.47.92,0,1.88.11,2.8.37.76.21,1.45.55,2.09,1,.53.38.99.89,1.3,1.45.31.57.49,1.21.52,1.86l.05,1.07h7.27l.02-1.1c.05-3.17-1.35-6.13-3.82-8.15-1.29-1.04-2.75-1.83-4.33-2.33-1.79-.56-3.66-.84-5.53-.83-2.31-.07-4.61.25-6.83.9-1.74.52-3.35,1.39-4.74,2.55-1.2,1.03-2.13,2.34-2.71,3.82-.54,1.39-.82,2.86-.81,4.35-.09,1.82.37,3.6,1.35,5.2.86,1.28,2,2.33,3.35,3.07,1.33.74,2.76,1.27,4.25,1.58,1.45.31,2.87.55,4.15.72,1.64.26,3.05.52,4.34.81,1.07.23,2.11.59,3.1,1.05.67.31,1.26.78,1.72,1.36.39.55.6,1.23.57,1.96.02,1.44-.74,2.81-2.02,3.6-1.48,1-3.82,1.51-6.96,1.51-1.03-.02-2.03-.16-3.01-.48-.88-.29-1.72-.72-2.47-1.26-.65-.47-1.2-1.06-1.61-1.75-.36-.58-.56-1.25-.57-1.94l-.03-1.08-7.21-.06v1.13c.02,1.53.39,3.07,1.06,4.44.71,1.49,1.71,2.81,2.95,3.9,1.36,1.19,2.93,2.13,4.63,2.76,1.87.7,3.85,1.05,5.84,1.05h.26c2.29.04,4.57-.23,6.8-.76,1.89-.43,3.67-1.21,5.27-2.3,1.44-1,2.62-2.33,3.43-3.88.79-1.62,1.19-3.4,1.16-5.2.03-1.29-.19-2.57-.65-3.78-.41-1.04-1.01-2-1.77-2.82m43.07-8.52c-.95-2.31-2.32-4.43-4.06-6.23-1.75-1.79-3.84-3.21-6.15-4.19-4.9-2.03-10.41-2.03-15.3,0-2.3.99-4.39,2.42-6.14,4.21-1.74,1.8-3.12,3.91-4.06,6.23-.99,2.42-1.48,5.01-1.45,7.62-.02,2.63.47,5.2,1.45,7.65.93,2.33,2.31,4.45,4.06,6.24,1.75,1.8,3.84,3.23,6.15,4.21,2.42,1.02,5.02,1.54,7.65,1.54,2,0,4.02-.3,5.96-.92,1.81-.58,3.52-1.43,5.08-2.51,1.51-1.05,2.86-2.31,3.99-3.75,1.1-1.4,2.01-2.95,2.7-4.6l.64-1.53h-7.89l-.32.6c-.48.89-1.07,1.72-1.77,2.47-.69.74-1.47,1.37-2.34,1.89-.88.53-1.84.94-2.82,1.2-1.03.28-2.1.43-3.17.43-1.46,0-2.91-.26-4.27-.8-1.36-.53-2.62-1.29-3.71-2.26-1.14-1.01-2.08-2.22-2.78-3.57-.58-1.1-.99-2.28-1.22-3.5h31l.1-.86h.15v-1.9c.02-2.62-.48-5.23-1.48-7.65m-29.61,4.22c.25-1.08.64-2.12,1.15-3.1.66-1.29,1.55-2.44,2.62-3.42,1.06-.96,2.28-1.72,3.61-2.25,1.41-.55,2.88-.85,4.4-.81h.02c2.97,0,5.73,1.07,7.86,3.07,1.06,1,1.94,2.17,2.6,3.46.51.98.89,2.01,1.14,3.07h-23.4ZM78.71,0v7.78h16.48v46.21h8V7.78h16.48V0h-40.96Z"/><path class="cls-1" d="m31.51,0L0,54h12.6L31.51,21.87V0Z"/><path class="cls-1" d="m145.21,20.48c-1.75-1.79-3.84-3.21-6.14-4.19-4.87-2.03-10.44-2.04-15.31,0-2.3.99-4.39,2.42-6.14,4.21-1.74,1.8-3.12,3.91-4.06,6.23-.98,2.42-1.48,5.01-1.46,7.62-.02,2.63.47,5.2,1.46,7.65.93,2.33,2.31,4.45,4.06,6.24,1.75,1.8,3.84,3.23,6.14,4.21,2.42,1.02,5.02,1.54,7.65,1.54,2.01,0,4.02-.3,5.96-.92,1.81-.58,3.52-1.43,5.08-2.51,1.51-1.04,2.85-2.31,3.98-3.75,1.11-1.4,2.02-2.95,2.7-4.6l.64-1.53h-7.9l-.32.6c-.48.9-1.07,1.73-1.76,2.47-.69.74-1.47,1.37-2.34,1.89-.88.53-1.84.94-2.82,1.2-1.03.28-2.09.43-3.16.43-1.46,0-2.91-.26-4.28-.8-1.36-.53-2.62-1.29-3.71-2.26-1.13-1.01-2.07-2.22-2.78-3.57-.58-1.1-.99-2.28-1.22-3.5h30.99l.1-.86h.15v-1.9c.02-2.62-.48-5.23-1.48-7.65-.94-2.32-2.32-4.43-4.06-6.23m-25.55,10.45c.25-1.08.64-2.12,1.15-3.1.66-1.29,1.54-2.45,2.61-3.42,1.06-.96,2.28-1.72,3.61-2.25,1.41-.55,2.89-.85,4.4-.81h.01c2.86-.04,5.73,1.07,7.86,3.07,1.06.99,1.94,2.16,2.6,3.46.51.98.89,2.01,1.15,3.07h-23.4s0,0,0,0Zm51.9-14.75c-1.23.3-2.42.74-3.55,1.32-1.05.54-2.04,1.21-2.93,2-.13.12-.28.25-.41.38l-.37-4.17h-6.38v37.26h7.29v-18.55c-.03-1.77.24-3.53.81-5.2.47-1.36,1.2-2.57,2.18-3.62.93-.96,2.06-1.7,3.32-2.17,1.41-.52,2.91-.77,4.41-.76h4.71v-6.97h-4.93c-1.4-.01-2.8.15-4.16.48m43.8,3.78c-1.23-1.22-2.62-2.25-4.15-3.07-1.27-.67-2.62-1.2-4.01-1.58-1.49-.4-3.03-.55-4.57-.59-5.17-.04-10.15,2.04-13.67,5.76-1.7,1.8-3.04,3.92-3.94,6.23-.95,2.42-1.43,5-1.4,7.61-.02,2.61.45,5.19,1.4,7.62.89,2.32,2.23,4.43,3.94,6.23,1.7,1.79,3.75,3.22,6.02,4.2,2.33,1.02,4.85,1.54,7.39,1.54h.2c1.53-.03,3.06-.18,4.55-.57,2.74-.72,5.29-2.06,7.43-3.92.26-.23.52-.48.78-.72l.28,4.26h6.6V15.71h-6.6l-.25,4.27h0Zm-3.81,5.27c1.12,1.16,2.01,2.53,2.62,4.03.66,1.61.99,3.32.97,5.09.02,1.75-.3,3.49-.95,5.11-.6,1.5-1.49,2.87-2.61,4.03-1.09,1.13-2.39,2.02-3.83,2.64-1.49.64-3.08.93-4.71.94-1.56.05-3.19-.31-4.68-.96-1.44-.62-2.74-1.51-3.83-2.64-1.12-1.15-2-2.52-2.59-4.01-.65-1.62-.98-3.36-.95-5.11v-.65c.06-1.53.38-3.02.96-4.45.59-1.49,1.47-2.86,2.58-4.02,1.08-1.12,2.38-2.02,3.82-2.63,3.01-1.28,6.4-1.28,9.41,0,1.44.61,2.74,1.51,3.83,2.64m53.81-4.74c-3.5-3.72-8.46-5.72-13.57-5.77-2.96.04-5.84.68-8.44,2.02-1.21.62-2.34,1.39-3.36,2.29-.21.18-.41.37-.61.55V0h-7.33v52.99h6.6l.25-4.24c.26.25.51.48.78.72,1.04.91,2.19,1.7,3.41,2.36,1.27.68,2.62,1.2,4.01,1.58,1.47.39,2.99.59,4.5.59h.25c5.08,0,9.97-2.09,13.45-5.77,1.71-1.81,3.05-3.93,3.95-6.24.96-2.43,1.44-5.02,1.42-7.63.03-2.6-.45-5.19-1.4-7.61-.9-2.31-2.23-4.42-3.92-6.23m-2,13.82v.65c-.06,1.54-.38,3.05-.95,4.48-.6,1.5-1.48,2.86-2.61,4.01-1.1,1.12-2.4,2.02-3.84,2.64-4.5,1.93-9.83.87-13.23-2.61-1.12-1.16-2-2.53-2.59-4.03-1.28-3.28-1.28-6.93,0-10.21.6-1.49,1.48-2.85,2.6-4,1.1-1.12,2.4-2.02,3.84-2.65,3.01-1.27,6.4-1.27,9.41,0,1.43.62,2.73,1.52,3.82,2.64,1.12,1.16,2,2.52,2.59,4.02.65,1.61.97,3.33.95,5.07m43.97-14.36c-.25-.24-.5-.48-.76-.71-1.04-.92-2.18-1.71-3.39-2.36-1.27-.67-2.62-1.2-4.01-1.58-1.49-.4-3.04-.64-4.57-.59-5.17-.04-10.14,2.04-13.67,5.76-1.7,1.8-3.04,3.92-3.93,6.23-.95,2.42-1.43,5-1.41,7.61-.02,2.61.46,5.19,1.4,7.62.89,2.32,2.23,4.43,3.94,6.23,1.71,1.78,3.75,3.21,6.02,4.2,2.33,1.02,4.85,1.54,7.39,1.54h.2c1.51.02,3.06-.18,4.55-.57,2.75-.72,5.29-2.06,7.43-3.92.26-.23.52-.48.78-.72l.28,4.26h6.6V15.71h-6.6l-.25,4.27h0,0Zm-3.81,5.27c1.12,1.16,2.01,2.53,2.61,4.02.66,1.62.99,3.32.97,5.09.02,1.75-.31,3.49-.95,5.11-.6,1.5-1.49,2.87-2.61,4.03-1.09,1.13-2.39,2.02-3.83,2.64-1.49.64-3.08.93-4.71.94-1.61-.03-3.19-.31-4.68-.96-1.44-.62-2.74-1.51-3.83-2.64-1.12-1.15-2-2.52-2.59-4.01-.65-1.62-.98-3.36-.95-5.11v-.02c-.02-1.74.31-3.46.96-5.07.59-1.49,1.47-2.86,2.58-4.02,1.08-1.12,2.38-2.02,3.82-2.63,3.01-1.27,6.4-1.27,9.41,0,1.44.61,2.74,1.51,3.83,2.64m45.92,9.99c-.74-.8-1.61-1.47-2.58-1.98-.95-.51-1.94-.93-2.96-1.26-1.03-.34-2.09-.61-3.17-.8-1.02-.19-2.05-.35-3.08-.5-1.41-.13-2.81-.33-4.2-.6-.97-.18-1.9-.49-2.78-.92-.55-.26-1.03-.66-1.39-1.15-.32-.49-.48-1.07-.45-1.66,0-.62.13-1.22.36-1.79.26-.59.65-1.11,1.15-1.52.67-.54,1.43-.93,2.26-1.17,1.19-.35,2.43-.51,3.67-.47.92,0,1.88.11,2.8.37.76.21,1.45.55,2.09,1,.53.38.99.89,1.3,1.45.31.57.49,1.21.52,1.86l.05,1.07h7.27l.02-1.1c.05-3.17-1.35-6.13-3.82-8.15-1.29-1.04-2.75-1.83-4.33-2.33-1.79-.56-3.66-.84-5.53-.83-2.31-.07-4.61.25-6.83.9-1.74.52-3.35,1.39-4.74,2.55-1.2,1.03-2.13,2.34-2.71,3.82-.54,1.39-.82,2.86-.81,4.35-.09,1.82.37,3.6,1.35,5.2.86,1.28,2,2.33,3.35,3.07,1.33.74,2.76,1.27,4.25,1.58,1.45.31,2.87.55,4.15.72,1.64.26,3.05.52,4.34.81,1.07.23,2.11.59,3.1,1.05.67.31,1.26.78,1.72,1.36.39.55.6,1.23.57,1.96.02,1.44-.74,2.81-2.02,3.6-1.48,1-3.82,1.51-6.96,1.51-1.03-.02-2.03-.16-3.01-.48-.88-.29-1.72-.72-2.47-1.26-.65-.47-1.2-1.06-1.61-1.75-.36-.58-.56-1.25-.57-1.94l-.03-1.08-7.21-.06v1.13c.02,1.53.39,3.07,1.06,4.44.71,1.49,1.71,2.81,2.95,3.9,1.36,1.19,2.93,2.13,4.63,2.76,1.87.7,3.85,1.05,5.84,1.05h.26c2.29.04,4.57-.23,6.8-.76,1.89-.43,3.67-1.21,5.27-2.3,1.44-1,2.62-2.33,3.43-3.88.79-1.62,1.19-3.4,1.16-5.2.03-1.29-.19-2.57-.65-3.78-.41-1.04-1.01-2-1.77-2.82m43.07-8.52c-.95-2.31-2.32-4.43-4.06-6.23-1.75-1.79-3.84-3.21-6.15-4.19-4.9-2.03-10.41-2.03-15.3,0-2.3.99-4.39,2.42-6.14,4.21-1.74,1.8-3.12,3.91-4.06,6.23-.99,2.42-1.48,5.01-1.45,7.62-.02,2.63.47,5.2,1.45,7.65.93,2.33,2.31,4.45,4.06,6.24,1.75,1.8,3.84,3.23,6.15,4.21,2.42,1.02,5.02,1.54,7.65,1.54,2,0,4.02-.3,5.96-.92,1.81-.58,3.52-1.43,5.08-2.51,1.51-1.05,2.86-2.31,3.99-3.75,1.1-1.4,2.01-2.95,2.7-4.6l.64-1.53h-7.89l-.32.6c-.48.89-1.07,1.72-1.77,2.47-.69.74-1.47,1.37-2.34,1.89-.88.53-1.84.94-2.82,1.2-1.03.28-2.1.43-3.17.43-1.46,0-2.91-.26-4.27-.8-1.36-.53-2.62-1.29-3.71-2.26-1.14-1.01-2.08-2.22-2.78-3.57-.58-1.1-.99-2.28-1.22-3.5h31l.1-.86h.15v-1.9c.02-2.62-.48-5.23-1.48-7.65m-29.61,4.22c.25-1.08.64-2.12,1.15-3.1.66-1.29,1.55-2.44,2.62-3.42,1.06-.96,2.28-1.72,3.61-2.25,1.41-.55,2.88-.85,4.4-.81h.02c2.97,0,5.73,1.07,7.86,3.07,1.06,1,1.94,2.17,2.6,3.46.51.98.89,2.01,1.14,3.07h-23.4ZM78.71,0v7.78h16.48v46.21h8V7.78h16.48V0h-40.96Z"/><path class="cls-1" d="m48.35,54h-27.11l13.55-23.04,13.56,23.04Z"/><path class="cls-1" d="m56.99,54h12.6L46.59,15.01l-6.41,10.95,16.81,28.04Z"/></svg>