<svg width="394" height="54" viewBox="0 0 394 54" xmlns="http://www.w3.org/2000/svg">
    <defs>
        <linearGradient x1="37.979%" y1="104.869%" x2="72.246%" y2="5.057%" id="49u0gphwxa">
            <stop stop-color="#F69B22" offset="0%"/>
            <stop stop-color="#F6911D" offset="18%"/>
            <stop stop-color="#F67812" offset="48%"/>
            <stop stop-color="#F75200" offset="84%"/>
        </linearGradient>
        <linearGradient x1="0%" y1="50.017%" x2="100%" y2="50.017%" id="f1lagcv8tb">
            <stop stop-color="#07B2ED" offset="0%"/>
            <stop stop-color="#07A9E7" offset="22%"/>
            <stop stop-color="#0790D7" offset="59%"/>
            <stop stop-color="#086EC1" offset="100%"/>
        </linearGradient>
        <linearGradient x1="24.674%" y1="6.964%" x2="69.081%" y2="107.044%" id="ihgvj0nqpc">
            <stop stop-color="#9ED84C" offset="0%"/>
            <stop stop-color="#66B600" offset="85%"/>
        </linearGradient>
    </defs>
    <g fill-rule="nonzero" fill="none">
        <g fill="#1B3359">
            <path d="M145.207 20.481a18.93 18.93 0 0 0-6.138-4.19c-4.866-2.028-10.44-2.036-15.305 0a18.997 18.997 0 0 0-6.137 4.214 19.493 19.493 0 0 0-4.063 6.226 19.742 19.742 0 0 0-1.455 7.623c-.024 2.63.469 5.204 1.455 7.646a19.214 19.214 0 0 0 4.063 6.242 18.981 18.981 0 0 0 6.145 4.213 19.766 19.766 0 0 0 7.649 1.537c2.011 0 4.022-.304 5.962-.92a19.43 19.43 0 0 0 5.08-2.505 18.212 18.212 0 0 0 3.984-3.753 18.933 18.933 0 0 0 2.695-4.603l.636-1.53h-7.895l-.318.601a11.515 11.515 0 0 1-1.765 2.466 10.619 10.619 0 0 1-2.337 1.888c-.883.53-1.837.936-2.823 1.201a11.99 11.99 0 0 1-3.164.43c-1.455-.008-2.91-.258-4.277-.804a12.169 12.169 0 0 1-3.713-2.263 12.59 12.59 0 0 1-2.775-3.573 12.534 12.534 0 0 1-1.216-3.496h30.99l.104-.858h.151v-1.896a19.752 19.752 0 0 0-1.479-7.654 19.53 19.53 0 0 0-4.062-6.226m-25.553 10.447a13.311 13.311 0 0 1 1.153-3.105 12.015 12.015 0 0 1 2.615-3.418 12.075 12.075 0 0 1 3.61-2.247c1.407-.554 2.886-.85 4.397-.811h.015c2.863-.04 5.733 1.069 7.863 3.066a12.666 12.666 0 0 1 2.6 3.457c.509.975.89 2.005 1.145 3.066h-23.398v-.008zM171.546 16.198a16.059 16.059 0 0 0-3.553 1.318 14.289 14.289 0 0 0-2.926 1.998c-.135.124-.279.25-.414.382l-.373-4.174h-6.377v37.264h7.291V34.44a15.238 15.238 0 0 1 .81-5.205c.47-1.357 1.201-2.574 2.18-3.62a8.886 8.886 0 0 1 3.315-2.169 12.495 12.495 0 0 1 4.412-.757h4.707v-6.967h-4.93a16.683 16.683 0 0 0-4.158.483M215.33 19.982a17.728 17.728 0 0 0-4.15-3.066 19.399 19.399 0 0 0-4.008-1.577c-1.494-.398-3.029-.554-4.571-.585-5.168-.039-10.145 2.044-13.667 5.758a19.17 19.17 0 0 0-3.936 6.227 20.245 20.245 0 0 0-1.399 7.607 20.512 20.512 0 0 0 1.4 7.623 19.012 19.012 0 0 0 3.943 6.234 18.46 18.46 0 0 0 6.018 4.198 18.51 18.51 0 0 0 7.394 1.537h.199c1.526-.032 3.06-.18 4.548-.57a18.374 18.374 0 0 0 7.425-3.925c.263-.234.525-.476.78-.725l.278 4.26h6.599V15.714h-6.6l-.254 4.268zm-3.809 5.266a12.586 12.586 0 0 1 2.616 4.026c.66 1.615.986 3.324.97 5.088a13.266 13.266 0 0 1-.954 5.11 12.431 12.431 0 0 1-2.608 4.026 11.704 11.704 0 0 1-3.832 2.637c-1.487.64-3.077.929-4.715.944-1.558.047-3.188-.312-4.683-.96a11.86 11.86 0 0 1-3.832-2.637 12.32 12.32 0 0 1-2.592-4.01 13.266 13.266 0 0 1-.954-5.11v-.648c.064-1.53.382-3.02.962-4.447a12.44 12.44 0 0 1 2.576-4.019 11.617 11.617 0 0 1 3.817-2.629 12.055 12.055 0 0 1 9.413 0 11.74 11.74 0 0 1 3.832 2.637M265.345 20.52c-3.498-3.722-8.459-5.719-13.57-5.766-2.958.04-5.844.679-8.436 2.021a16.935 16.935 0 0 0-3.363 2.286c-.207.18-.414.367-.613.554V0h-7.33v52.986h6.599l.254-4.237c.255.25.51.484.78.718a18.05 18.05 0 0 0 3.41 2.356 19.12 19.12 0 0 0 4.015 1.576c1.471.39 2.99.593 4.5.593h.247c5.08 0 9.97-2.09 13.452-5.766a19.365 19.365 0 0 0 3.951-6.242 20.387 20.387 0 0 0 1.423-7.63 20.302 20.302 0 0 0-1.399-7.608 19.426 19.426 0 0 0-3.92-6.226m-2.003 13.818v.648a13.372 13.372 0 0 1-.954 4.478 12.156 12.156 0 0 1-2.608 4.01 11.98 11.98 0 0 1-3.84 2.638c-4.5 1.927-9.827.866-13.23-2.614a12.47 12.47 0 0 1-2.591-4.026 14.062 14.062 0 0 1 0-10.213 12.227 12.227 0 0 1 2.6-4.003 12.217 12.217 0 0 1 3.84-2.645 12.111 12.111 0 0 1 9.413 0 12.074 12.074 0 0 1 3.824 2.637 12.272 12.272 0 0 1 2.592 4.019 13.22 13.22 0 0 1 .954 5.071M307.308 19.982c-.247-.242-.501-.484-.755-.71a17.728 17.728 0 0 0-3.395-2.357 19.399 19.399 0 0 0-4.007-1.576c-1.495-.398-3.037-.64-4.572-.585-5.168-.039-10.137 2.044-13.667 5.758a19.17 19.17 0 0 0-3.935 6.227 20.41 20.41 0 0 0-1.407 7.607 20.673 20.673 0 0 0 1.399 7.623 19.012 19.012 0 0 0 3.943 6.234 18.663 18.663 0 0 0 6.019 4.198 18.482 18.482 0 0 0 7.394 1.537h.199c1.51.023 3.06-.18 4.547-.57a18.323 18.323 0 0 0 7.426-3.925c.262-.234.525-.476.779-.725l.278 4.26h6.6V15.714h-6.6l-.254 4.268h.008zm-3.808 5.266a12.687 12.687 0 0 1 2.615 4.019c.66 1.622.986 3.323.97 5.087a13.416 13.416 0 0 1-.954 5.11 12.432 12.432 0 0 1-2.608 4.026 11.704 11.704 0 0 1-3.832 2.637c-1.486.64-3.076.929-4.714.945-1.614-.032-3.188-.313-4.683-.96a11.86 11.86 0 0 1-3.832-2.637 12.32 12.32 0 0 1-2.592-4.01 13.239 13.239 0 0 1-.954-5.111v-.024a13.2 13.2 0 0 1 .962-5.071 12.44 12.44 0 0 1 2.576-4.018 11.617 11.617 0 0 1 3.816-2.63 12.09 12.09 0 0 1 9.413 0 11.74 11.74 0 0 1 3.832 2.637M349.43 35.235a9.727 9.727 0 0 0-2.577-1.981 18.578 18.578 0 0 0-2.957-1.264 22.583 22.583 0 0 0-3.165-.796 87.413 87.413 0 0 0-3.084-.5 40.563 40.563 0 0 1-4.198-.6 10.778 10.778 0 0 1-2.783-.921 3.775 3.775 0 0 1-1.391-1.147 2.836 2.836 0 0 1-.453-1.662c0-.616.127-1.217.365-1.787a4.063 4.063 0 0 1 1.153-1.521 6.41 6.41 0 0 1 2.258-1.17 11.782 11.782 0 0 1 3.673-.469c.922.008 1.877.11 2.799.367.755.21 1.455.546 2.09.999.533.382.987.89 1.297 1.451a4.27 4.27 0 0 1 .524 1.857l.048 1.069h7.267l.016-1.1c.047-3.168-1.352-6.133-3.824-8.154a13.383 13.383 0 0 0-4.326-2.333 17.922 17.922 0 0 0-5.533-.827c-2.314-.07-4.611.25-6.83.905a13.254 13.254 0 0 0-4.738 2.552 9.768 9.768 0 0 0-2.711 3.815 11.868 11.868 0 0 0-.81 4.354c-.088 1.818.373 3.605 1.35 5.204a9.647 9.647 0 0 0 3.348 3.074 15.333 15.333 0 0 0 4.253 1.584c1.455.312 2.87.554 4.15.718 1.638.257 3.053.523 4.341.811 1.074.227 2.115.586 3.101 1.054a4.81 4.81 0 0 1 1.717 1.357c.39.554.597 1.233.565 1.959.016 1.443-.74 2.808-2.02 3.597-1.478.998-3.816 1.505-6.964 1.505-1.034-.023-2.028-.156-3.005-.476a9.005 9.005 0 0 1-2.473-1.264 6.099 6.099 0 0 1-1.614-1.747 3.873 3.873 0 0 1-.572-1.935l-.032-1.077-7.211-.055v1.132c.024 1.529.39 3.074 1.057 4.44a12.201 12.201 0 0 0 2.95 3.9 14.902 14.902 0 0 0 4.627 2.762 16.7 16.7 0 0 0 5.843 1.054h.263c2.29.039 4.571-.226 6.797-.757a15.554 15.554 0 0 0 5.272-2.302 10.785 10.785 0 0 0 3.426-3.885 11.337 11.337 0 0 0 1.161-5.197 9.955 9.955 0 0 0-.652-3.776 9.133 9.133 0 0 0-1.765-2.824M392.52 26.707a19.666 19.666 0 0 0-4.062-6.226 18.88 18.88 0 0 0-6.146-4.19 19.97 19.97 0 0 0-15.304 0 18.997 18.997 0 0 0-6.138 4.214 19.493 19.493 0 0 0-4.063 6.226 19.714 19.714 0 0 0-1.455 7.623c-.016 2.63.47 5.204 1.455 7.646a19.214 19.214 0 0 0 4.063 6.242 18.981 18.981 0 0 0 6.146 4.213 19.736 19.736 0 0 0 7.648 1.537c2.003 0 4.023-.304 5.963-.92a19.43 19.43 0 0 0 5.08-2.505 18.43 18.43 0 0 0 3.991-3.753 19.614 19.614 0 0 0 2.695-4.603l.636-1.53h-7.887l-.318.601a11.798 11.798 0 0 1-1.765 2.466 10.807 10.807 0 0 1-2.337 1.888c-.882.53-1.836.936-2.822 1.201a11.99 11.99 0 0 1-3.165.43c-1.462 0-2.91-.258-4.269-.804a12.169 12.169 0 0 1-3.713-2.263 12.618 12.618 0 0 1-2.782-3.573 12.534 12.534 0 0 1-1.217-3.496h30.999l.095-.858H394v-1.896a19.752 19.752 0 0 0-1.48-7.654m-29.615 4.221a13.311 13.311 0 0 1 1.153-3.105 12.161 12.161 0 0 1 2.616-3.418 11.977 11.977 0 0 1 3.61-2.247c1.406-.554 2.877-.85 4.396-.811h.016c2.973 0 5.732 1.069 7.863 3.066a12.828 12.828 0 0 1 2.6 3.457c.508.975.89 2.005 1.144 3.066h-23.398v-.008zM78.71 0v7.779h16.48v46.205h7.999V7.78h16.48V0z"/>
        </g>
        <path fill="url(#49u0gphwxa)" d="M31.515 0 0 54h12.601l18.914-32.13z"/>
        <g fill="#1B3359">
            <path d="M145.207 20.481a18.93 18.93 0 0 0-6.138-4.19c-4.866-2.028-10.44-2.036-15.305 0a18.997 18.997 0 0 0-6.137 4.214 19.493 19.493 0 0 0-4.063 6.226 19.742 19.742 0 0 0-1.455 7.623c-.024 2.63.469 5.204 1.455 7.646a19.214 19.214 0 0 0 4.063 6.242 18.981 18.981 0 0 0 6.145 4.213 19.766 19.766 0 0 0 7.649 1.537c2.011 0 4.022-.304 5.962-.92a19.43 19.43 0 0 0 5.08-2.505 18.212 18.212 0 0 0 3.984-3.753 18.933 18.933 0 0 0 2.695-4.603l.636-1.53h-7.895l-.318.601a11.515 11.515 0 0 1-1.765 2.466 10.619 10.619 0 0 1-2.337 1.888c-.883.53-1.837.936-2.823 1.201a11.99 11.99 0 0 1-3.164.43c-1.455-.008-2.91-.258-4.277-.804a12.169 12.169 0 0 1-3.713-2.263 12.59 12.59 0 0 1-2.775-3.573 12.534 12.534 0 0 1-1.216-3.496h30.99l.104-.858h.151v-1.896a19.752 19.752 0 0 0-1.479-7.654 19.53 19.53 0 0 0-4.062-6.226m-25.553 10.447a13.311 13.311 0 0 1 1.153-3.105 12.015 12.015 0 0 1 2.615-3.418 12.075 12.075 0 0 1 3.61-2.247c1.407-.554 2.886-.85 4.397-.811h.015c2.863-.04 5.733 1.069 7.863 3.066a12.666 12.666 0 0 1 2.6 3.457c.509.975.89 2.005 1.145 3.066h-23.398v-.008zM171.546 16.198a16.059 16.059 0 0 0-3.553 1.318 14.289 14.289 0 0 0-2.926 1.998c-.135.124-.279.25-.414.382l-.373-4.174h-6.377v37.264h7.291V34.44a15.238 15.238 0 0 1 .81-5.205c.47-1.357 1.201-2.574 2.18-3.62a8.886 8.886 0 0 1 3.315-2.169 12.495 12.495 0 0 1 4.412-.757h4.707v-6.967h-4.93a16.683 16.683 0 0 0-4.158.483M215.33 19.982a17.728 17.728 0 0 0-4.15-3.066 19.399 19.399 0 0 0-4.008-1.577c-1.494-.398-3.029-.554-4.571-.585-5.168-.039-10.145 2.044-13.667 5.758a19.17 19.17 0 0 0-3.936 6.227 20.245 20.245 0 0 0-1.399 7.607 20.512 20.512 0 0 0 1.4 7.623 19.012 19.012 0 0 0 3.943 6.234 18.46 18.46 0 0 0 6.018 4.198 18.51 18.51 0 0 0 7.394 1.537h.199c1.526-.032 3.06-.18 4.548-.57a18.374 18.374 0 0 0 7.425-3.925c.263-.234.525-.476.78-.725l.278 4.26h6.599V15.714h-6.6l-.254 4.268zm-3.809 5.266a12.586 12.586 0 0 1 2.616 4.026c.66 1.615.986 3.324.97 5.088a13.266 13.266 0 0 1-.954 5.11 12.431 12.431 0 0 1-2.608 4.026 11.704 11.704 0 0 1-3.832 2.637c-1.487.64-3.077.929-4.715.944-1.558.047-3.188-.312-4.683-.96a11.86 11.86 0 0 1-3.832-2.637 12.32 12.32 0 0 1-2.592-4.01 13.266 13.266 0 0 1-.954-5.11v-.648c.064-1.53.382-3.02.962-4.447a12.44 12.44 0 0 1 2.576-4.019 11.617 11.617 0 0 1 3.817-2.629 12.055 12.055 0 0 1 9.413 0 11.74 11.74 0 0 1 3.832 2.637M265.345 20.52c-3.498-3.722-8.459-5.719-13.57-5.766-2.958.04-5.844.679-8.436 2.021a16.935 16.935 0 0 0-3.363 2.286c-.207.18-.414.367-.613.554V0h-7.33v52.986h6.599l.254-4.237c.255.25.51.484.78.718a18.05 18.05 0 0 0 3.41 2.356 19.12 19.12 0 0 0 4.015 1.576c1.471.39 2.99.593 4.5.593h.247c5.08 0 9.97-2.09 13.452-5.766a19.365 19.365 0 0 0 3.951-6.242 20.387 20.387 0 0 0 1.423-7.63 20.302 20.302 0 0 0-1.399-7.608 19.426 19.426 0 0 0-3.92-6.226m-2.003 13.818v.648a13.372 13.372 0 0 1-.954 4.478 12.156 12.156 0 0 1-2.608 4.01 11.98 11.98 0 0 1-3.84 2.638c-4.5 1.927-9.827.866-13.23-2.614a12.47 12.47 0 0 1-2.591-4.026 14.062 14.062 0 0 1 0-10.213 12.227 12.227 0 0 1 2.6-4.003 12.217 12.217 0 0 1 3.84-2.645 12.111 12.111 0 0 1 9.413 0 12.074 12.074 0 0 1 3.824 2.637 12.272 12.272 0 0 1 2.592 4.019 13.22 13.22 0 0 1 .954 5.071M307.308 19.982c-.247-.242-.501-.484-.755-.71a17.728 17.728 0 0 0-3.395-2.357 19.399 19.399 0 0 0-4.007-1.576c-1.495-.398-3.037-.64-4.572-.585-5.168-.039-10.137 2.044-13.667 5.758a19.17 19.17 0 0 0-3.935 6.227 20.41 20.41 0 0 0-1.407 7.607 20.673 20.673 0 0 0 1.399 7.623 19.012 19.012 0 0 0 3.943 6.234 18.663 18.663 0 0 0 6.019 4.198 18.482 18.482 0 0 0 7.394 1.537h.199c1.51.023 3.06-.18 4.547-.57a18.323 18.323 0 0 0 7.426-3.925c.262-.234.525-.476.779-.725l.278 4.26h6.6V15.714h-6.6l-.254 4.268h.008zm-3.808 5.266a12.687 12.687 0 0 1 2.615 4.019c.66 1.622.986 3.323.97 5.087a13.416 13.416 0 0 1-.954 5.11 12.432 12.432 0 0 1-2.608 4.026 11.704 11.704 0 0 1-3.832 2.637c-1.486.64-3.076.929-4.714.945-1.614-.032-3.188-.313-4.683-.96a11.86 11.86 0 0 1-3.832-2.637 12.32 12.32 0 0 1-2.592-4.01 13.239 13.239 0 0 1-.954-5.111v-.024a13.2 13.2 0 0 1 .962-5.071 12.44 12.44 0 0 1 2.576-4.018 11.617 11.617 0 0 1 3.816-2.63 12.09 12.09 0 0 1 9.413 0 11.74 11.74 0 0 1 3.832 2.637M349.43 35.235a9.727 9.727 0 0 0-2.577-1.981 18.578 18.578 0 0 0-2.957-1.264 22.583 22.583 0 0 0-3.165-.796 87.413 87.413 0 0 0-3.084-.5 40.563 40.563 0 0 1-4.198-.6 10.778 10.778 0 0 1-2.783-.921 3.775 3.775 0 0 1-1.391-1.147 2.836 2.836 0 0 1-.453-1.662c0-.616.127-1.217.365-1.787a4.063 4.063 0 0 1 1.153-1.521 6.41 6.41 0 0 1 2.258-1.17 11.782 11.782 0 0 1 3.673-.469c.922.008 1.877.11 2.799.367.755.21 1.455.546 2.09.999.533.382.987.89 1.297 1.451a4.27 4.27 0 0 1 .524 1.857l.048 1.069h7.267l.016-1.1c.047-3.168-1.352-6.133-3.824-8.154a13.383 13.383 0 0 0-4.326-2.333 17.922 17.922 0 0 0-5.533-.827c-2.314-.07-4.611.25-6.83.905a13.254 13.254 0 0 0-4.738 2.552 9.768 9.768 0 0 0-2.711 3.815 11.868 11.868 0 0 0-.81 4.354c-.088 1.818.373 3.605 1.35 5.204a9.647 9.647 0 0 0 3.348 3.074 15.333 15.333 0 0 0 4.253 1.584c1.455.312 2.87.554 4.15.718 1.638.257 3.053.523 4.341.811 1.074.227 2.115.586 3.101 1.054a4.81 4.81 0 0 1 1.717 1.357c.39.554.597 1.233.565 1.959.016 1.443-.74 2.808-2.02 3.597-1.478.998-3.816 1.505-6.964 1.505-1.034-.023-2.028-.156-3.005-.476a9.005 9.005 0 0 1-2.473-1.264 6.099 6.099 0 0 1-1.614-1.747 3.873 3.873 0 0 1-.572-1.935l-.032-1.077-7.211-.055v1.132c.024 1.529.39 3.074 1.057 4.44a12.201 12.201 0 0 0 2.95 3.9 14.902 14.902 0 0 0 4.627 2.762 16.7 16.7 0 0 0 5.843 1.054h.263c2.29.039 4.571-.226 6.797-.757a15.554 15.554 0 0 0 5.272-2.302 10.785 10.785 0 0 0 3.426-3.885 11.337 11.337 0 0 0 1.161-5.197 9.955 9.955 0 0 0-.652-3.776 9.133 9.133 0 0 0-1.765-2.824M392.52 26.707a19.666 19.666 0 0 0-4.062-6.226 18.88 18.88 0 0 0-6.146-4.19 19.97 19.97 0 0 0-15.304 0 18.997 18.997 0 0 0-6.138 4.214 19.493 19.493 0 0 0-4.063 6.226 19.714 19.714 0 0 0-1.455 7.623c-.016 2.63.47 5.204 1.455 7.646a19.214 19.214 0 0 0 4.063 6.242 18.981 18.981 0 0 0 6.146 4.213 19.736 19.736 0 0 0 7.648 1.537c2.003 0 4.023-.304 5.963-.92a19.43 19.43 0 0 0 5.08-2.505 18.43 18.43 0 0 0 3.991-3.753 19.614 19.614 0 0 0 2.695-4.603l.636-1.53h-7.887l-.318.601a11.798 11.798 0 0 1-1.765 2.466 10.807 10.807 0 0 1-2.337 1.888c-.882.53-1.836.936-2.822 1.201a11.99 11.99 0 0 1-3.165.43c-1.462 0-2.91-.258-4.269-.804a12.169 12.169 0 0 1-3.713-2.263 12.618 12.618 0 0 1-2.782-3.573 12.534 12.534 0 0 1-1.217-3.496h30.999l.095-.858H394v-1.896a19.752 19.752 0 0 0-1.48-7.654m-29.615 4.221a13.311 13.311 0 0 1 1.153-3.105 12.161 12.161 0 0 1 2.616-3.418 11.977 11.977 0 0 1 3.61-2.247c1.406-.554 2.877-.85 4.396-.811h.016c2.973 0 5.732 1.069 7.863 3.066a12.828 12.828 0 0 1 2.6 3.457c.508.975.89 2.005 1.144 3.066h-23.398v-.008zM78.71 0v7.779h16.48v46.205h7.999V7.78h16.48V0z"/>
        </g>
        <path fill="url(#f1lagcv8tb)" d="M48.347 54H21.236L34.79 30.96z"/>
        <path fill="url(#ihgvj0nqpc)" d="M56.989 54H69.59l-23-38.988-6.409 10.946z"/>
    </g>
</svg>
