<?xml version="1.0" encoding="UTF-8"?>
<svg id="Regular_Colors" data-name="Regular Colors" xmlns="http://www.w3.org/2000/svg" viewBox="0 0 715.52 106.71">
  <defs>
    <style>
      .cls-1 {
        fill: #231f20;
      }

      .cls-2 {
        fill: #00aeef;
      }
    </style>
  </defs>
  <g id="Oneline_Text" data-name="Oneline Text">
    <g id="Proximal_oneline_" data-name="Proximal (oneline)">
      <path class="cls-1" d="M135.41,25.49c13.27,0,20.54,6.59,20.54,18.15s-7.62,18.66-21.14,18.66h-11.13v18.49h-9.84V25.49h21.57ZM123.68,33.88v19.94h10.7c8.22,0,11.73-3.68,11.73-10.02s-3.6-9.93-11.73-9.93h-10.7Z"/>
      <path class="cls-1" d="M164.17,56.73c0-6.08-.6-13.44-1.37-18.49h9.42c.34,1.88.6,3.94.86,6.93h.43c2.05-5.05,5.82-7.62,11.56-7.62,1.8,0,3.77.26,5.05.77v9.07h-.43c-1.63-.6-3.77-.86-5.74-.86-6.59,0-10.36,4.28-10.36,11.38v22.85h-9.42v-24.05Z"/>
      <path class="cls-1" d="M193.28,59.39c0-13.61,7.62-22.26,20.37-22.26s20.2,8.47,20.2,22.26-7.53,22.51-20.37,22.51-20.2-8.56-20.2-22.51ZM224.26,59.39c0-8.56-3.42-14.21-10.7-14.21s-10.79,5.56-10.79,14.21,3.51,14.55,10.79,14.55,10.7-5.73,10.7-14.55Z"/>
      <path class="cls-1" d="M236.08,80.36l14.47-20.72-14.47-20.97v-.43h10.61l10.02,14.55,9.76-14.55h9.93v.43l-14.38,20.89,14.3,20.8v.43h-10.61l-9.93-14.38-9.76,14.38h-9.93v-.43Z"/>
      <path class="cls-1" d="M294.37,25.49c0,3.42-2.57,5.82-6.16,5.82s-6.08-2.4-6.08-5.82c0-3.6,2.48-5.91,6.08-5.91s6.16,2.31,6.16,5.91ZM283.5,38.24h9.42v42.54h-9.42v-42.54Z"/>
      <path class="cls-1" d="M304.3,56.73c0-6.08-.6-13.44-1.37-18.49h9.42c.43,1.97.6,3.68.77,5.99h.51c2.31-4.28,6.51-6.68,11.81-6.68,5.82,0,10.61,2.14,13.27,7.36h.34c2.82-5.05,7.45-7.36,12.84-7.36,8.9,0,15.32,4.88,15.32,17.29v25.94h-9.5v-24.48c0-7.1-2.57-10.53-8.05-10.53-5.14,0-8.9,4.19-8.9,11.13v23.88h-9.5v-24.48c0-7.1-2.57-10.53-8.05-10.53s-9.5,4.19-9.5,11.13v23.88h-9.42v-24.05Z"/>
      <path class="cls-1" d="M375.86,68.12c0-8.65,6.59-13.78,17.55-13.78,3.68,0,7.45.51,10.53,1.2v-1.37c0-6.16-3.25-8.56-10.96-8.56-4.54,0-9.84,1.03-13.53,2.48h-.43v-8.3c3.34-1.28,8.9-2.23,14.12-2.23,13.87,0,20.03,4.45,20.03,16.26,0,3.68-.26,7.45-.26,10.7,0,5.91.77,13.27,1.28,16.26h-9.33c-.43-1.97-.68-3.77-.86-6.25h-.43c-2.57,4.62-7.1,7.02-12.58,7.02-9.42,0-15.15-5.05-15.15-13.44ZM392.73,74.11c6.51,0,11.04-3.77,11.04-10.53v-1.03c-2.91-.77-6.16-1.28-9.5-1.28-6.08,0-9.25,2.23-9.25,6.59,0,3.85,2.74,6.25,7.7,6.25Z"/>
      <path class="cls-1" d="M424.14,80.79V20.1h9.42v60.69h-9.42Z"/>
    </g>
    <g id="Energy_oneline_" data-name="Energy (oneline)">
      <path class="cls-1" d="M498.01,25.49v8.39h-28.68v14.55h26.45v8.3h-26.45v15.67h28.68v8.39h-38.43V25.49h38.43Z"/>
      <path class="cls-1" d="M508.29,56.73c0-6.08-.6-13.44-1.37-18.49h9.42c.43,1.97.6,3.68.77,5.99h.51c2.31-4.28,6.51-6.68,11.81-6.68,8.9,0,15.32,4.88,15.32,17.29v25.94h-9.5v-24.48c0-7.1-2.57-10.53-8.05-10.53s-9.5,4.19-9.5,11.13v23.88h-9.42v-24.05Z"/>
      <path class="cls-1" d="M552.8,59.82c0-13.35,7.1-22.43,19.09-22.43s17.63,6.76,17.63,18.75c0,2.74-.26,5.31-.43,6.68h-26.88c.6,7.45,5.65,11.04,13.35,11.04,3.68,0,7.28-.68,11.73-2.91h.34v7.96c-3.17,1.71-7.7,2.74-12.75,2.74-13.95,0-22.08-7.62-22.08-21.83ZM562.3,56.13h17.98v-1.2c0-6.51-3.25-9.76-8.47-9.76s-8.82,4.28-9.5,10.96Z"/>
      <path class="cls-1" d="M598.51,56.73c0-6.08-.6-13.44-1.37-18.49h9.42c.34,1.88.6,3.94.86,6.93h.43c2.05-5.05,5.82-7.62,11.56-7.62,1.8,0,3.77.26,5.05.77v9.07h-.43c-1.63-.6-3.77-.86-5.74-.86-6.59,0-10.36,4.28-10.36,11.38v22.85h-9.42v-24.05Z"/>
      <path class="cls-1" d="M629.92,96.71v-8.3h.43c3.94,1.97,9.67,3.42,14.29,3.42,7.53,0,11.21-3.17,11.21-12.5v-4.28h-.43c-1.97,4.11-5.48,6.51-10.44,6.51-10.62,0-17.38-7.7-17.38-21.23s7.79-22.77,20.29-22.77c2.57,0,4.71.09,8.05.69h9.33v40.75c0,13.18-5.22,20.8-19.95,20.8-6.08,0-11.81-1.46-15.41-3.08ZM655.86,62.3v-15.84c-2.48-.68-5.05-.94-7.28-.94-7.45,0-11.47,5.14-11.47,14.72,0,8.65,3.34,13.27,9.42,13.27,5.56,0,9.33-4.19,9.33-11.21Z"/>
      <path class="cls-1" d="M688.56,82.07l-17.21-43.83h10.36l12.67,33.04h.43l2.82-10.61,8.13-22.43h9.76l-23.45,60.69h-10.1l6.59-16.86Z"/>
    </g>
  </g>
  <g id="Logo">
    <g id="InnerBox">
      <path class="cls-2" d="M31.5,61.95l11.81,6.97v-31.28l-11.81,6.69v17.62ZM53.31,37.67v31.25l11.81-6.97v-17.49l-11.81-6.79Z"/>
    </g>
    <g id="OuterBoxes">
      <path class="cls-1" d="M43.31,77.84l-20.15-11.89v-25.63l20.15-11.58v-6.89l-26.12,15.01v32.49l26.12,15.42v-6.93ZM48.31,0L0,27.76v50.43l48.31,28.52,48.31-28.52V27.76L48.31,0ZM48.31,18.97h0v6.89h0s0,54.93,0,54.93h0s0,6.93,0,6.93h0v8.41l-39.2-23.14v-39.96L48.31,10.51v8.46ZM53.31,28.73l16.43,9.44c0,.14-.02.27-.02.41,0,2.64,1.53,4.92,3.74,6.02v17.02c-2.21,1.1-3.74,3.38-3.74,6.02,0,.17.01.33.02.49l-16.44,9.7V28.73ZM76.45,42.14c-1.96,0-3.55-1.59-3.55-3.55s1.59-3.55,3.55-3.55,3.55,1.59,3.55,3.55-1.59,3.55-3.55,3.55ZM80,67.65c0,1.96-1.59,3.55-3.55,3.55s-3.55-1.59-3.55-3.55,1.59-3.55,3.55-3.55,3.55,1.59,3.55,3.55ZM87.51,72.99l-34.2,20.19v-8.41l19.47-11.49c1.06.69,2.31,1.09,3.67,1.09,3.71,0,6.73-3.02,6.73-6.73,0-2.64-1.53-4.92-3.74-6.02v-17.02c2.21-1.1,3.74-3.38,3.74-6.02,0-3.71-3.02-6.73-6.73-6.73-1.38,0-2.67.42-3.74,1.14l-19.4-11.15v-8.46l34.2,19.65v39.96Z"/>
    </g>
  </g>
</svg>