<svg width="578" height="578" xmlns="http://www.w3.org/2000/svg" xmlns:xlink="http://www.w3.org/1999/xlink" xml:space="preserve" overflow="hidden"><g transform="translate(-2919 -1434)"><g><path d="M0 0 0.000360892 472.312" stroke="#000000" stroke-width="13.75" stroke-linecap="round" stroke-linejoin="miter" stroke-miterlimit="8" stroke-opacity="1" fill="none" fill-rule="evenodd" transform="matrix(1 0 0 -1 3123 1984.31)"/><path d="M0 0 0.000360892 461.312" stroke="#000000" stroke-width="13.75" stroke-linecap="round" stroke-linejoin="miter" stroke-miterlimit="8" stroke-opacity="1" fill="none" fill-rule="evenodd" transform="matrix(1 0 0 -1 2951 1977.31)"/><path d="M2952 1984 3117 1984" stroke="#000000" stroke-width="13.75" stroke-linecap="round" stroke-linejoin="miter" stroke-miterlimit="8" stroke-opacity="1" fill="none" fill-rule="evenodd"/><path d="M2954 1641 3119 1641" stroke="#000000" stroke-width="13.75" stroke-linecap="round" stroke-linejoin="miter" stroke-miterlimit="8" stroke-opacity="1" fill="none" fill-rule="evenodd"/><path d="M2954 1710 3119 1710" stroke="#000000" stroke-width="13.75" stroke-linecap="round" stroke-linejoin="miter" stroke-miterlimit="8" stroke-opacity="1" fill="none" fill-rule="evenodd"/><path d="M2954 1779 3119 1779" stroke="#000000" stroke-width="13.75" stroke-linecap="round" stroke-linejoin="miter" stroke-miterlimit="8" stroke-opacity="1" fill="none" fill-rule="evenodd"/><path d="M2954 1916 3119 1916" stroke="#000000" stroke-width="13.75" stroke-linecap="round" stroke-linejoin="miter" stroke-miterlimit="8" stroke-opacity="1" fill="none" fill-rule="evenodd"/><path d="M2954 1848 3119 1848" stroke="#000000" stroke-width="13.75" stroke-linecap="round" stroke-linejoin="miter" stroke-miterlimit="8" stroke-opacity="1" fill="none" fill-rule="evenodd"/><path d="M2956 1579 3121 1579" stroke="#000000" stroke-width="13.75" stroke-linecap="round" stroke-linejoin="miter" stroke-miterlimit="8" stroke-opacity="1" fill="none" fill-rule="evenodd"/><path d="M2951 1512 3116 1512" stroke="#000000" stroke-width="13.75" stroke-linecap="round" stroke-linejoin="miter" stroke-miterlimit="8" stroke-opacity="1" fill="none" fill-rule="evenodd"/><path d="M3098.39 1538.17 3069.81 1554.67" stroke="#000000" stroke-width="13.75" stroke-linecap="round" stroke-linejoin="miter" stroke-miterlimit="8" stroke-opacity="1" fill="none" fill-rule="evenodd"/><path d="M3098.39 1555.4 3069.81 1538.9" stroke="#000000" stroke-width="13.75" stroke-linecap="round" stroke-linejoin="miter" stroke-miterlimit="8" stroke-opacity="1" fill="none" fill-rule="evenodd"/><path d="M3084 1563 3084 1530" stroke="#000000" stroke-width="13.75" stroke-linecap="round" stroke-linejoin="miter" stroke-miterlimit="8" stroke-opacity="1" fill="none" fill-rule="evenodd"/><path d="M0 0 0.000360892 472.312" stroke="#000000" stroke-width="13.75" stroke-linecap="round" stroke-linejoin="miter" stroke-miterlimit="8" stroke-opacity="1" fill="none" fill-rule="evenodd" transform="matrix(1 0 0 -1 3294 1984.31)"/><path d="M0 0 0.000360892 461.312" stroke="#000000" stroke-width="13.75" stroke-linecap="round" stroke-linejoin="miter" stroke-miterlimit="8" stroke-opacity="1" fill="none" fill-rule="evenodd" transform="matrix(1 0 0 -1 3122 1977.31)"/><path d="M3124 1984 3289 1984" stroke="#000000" stroke-width="13.75" stroke-linecap="round" stroke-linejoin="miter" stroke-miterlimit="8" stroke-opacity="1" fill="none" fill-rule="evenodd"/><path d="M3125 1641 3290 1641" stroke="#000000" stroke-width="13.75" stroke-linecap="round" stroke-linejoin="miter" stroke-miterlimit="8" stroke-opacity="1" fill="none" fill-rule="evenodd"/><path d="M3125 1710 3290 1710" stroke="#000000" stroke-width="13.75" stroke-linecap="round" stroke-linejoin="miter" stroke-miterlimit="8" stroke-opacity="1" fill="none" fill-rule="evenodd"/><path d="M3125 1779 3290 1779" stroke="#000000" stroke-width="13.75" stroke-linecap="round" stroke-linejoin="miter" stroke-miterlimit="8" stroke-opacity="1" fill="none" fill-rule="evenodd"/><path d="M3125 1916 3290 1916" stroke="#000000" stroke-width="13.75" stroke-linecap="round" stroke-linejoin="miter" stroke-miterlimit="8" stroke-opacity="1" fill="none" fill-rule="evenodd"/><path d="M3125 1848 3290 1848" stroke="#000000" stroke-width="13.75" stroke-linecap="round" stroke-linejoin="miter" stroke-miterlimit="8" stroke-opacity="1" fill="none" fill-rule="evenodd"/><path d="M3128 1579 3293 1579" stroke="#000000" stroke-width="13.75" stroke-linecap="round" stroke-linejoin="miter" stroke-miterlimit="8" stroke-opacity="1" fill="none" fill-rule="evenodd"/><path d="M3122 1512 3287 1512" stroke="#000000" stroke-width="13.75" stroke-linecap="round" stroke-linejoin="miter" stroke-miterlimit="8" stroke-opacity="1" fill="none" fill-rule="evenodd"/><path d="M3269.95 1538.17 3241.37 1554.67" stroke="#000000" stroke-width="13.75" stroke-linecap="round" stroke-linejoin="miter" stroke-miterlimit="8" stroke-opacity="1" fill="none" fill-rule="evenodd"/><path d="M3269.95 1555.4 3241.37 1538.9" stroke="#000000" stroke-width="13.75" stroke-linecap="round" stroke-linejoin="miter" stroke-miterlimit="8" stroke-opacity="1" fill="none" fill-rule="evenodd"/><path d="M3256 1563 3256 1530" stroke="#000000" stroke-width="13.75" stroke-linecap="round" stroke-linejoin="miter" stroke-miterlimit="8" stroke-opacity="1" fill="none" fill-rule="evenodd"/><path d="M0 0 0.000360892 24.75" stroke="#000000" stroke-width="13.75" stroke-linecap="round" stroke-linejoin="miter" stroke-miterlimit="8" stroke-opacity="1" fill="none" fill-rule="evenodd" transform="matrix(1 0 0 -1 2972 1621.75)"/><path d="M0 0 0.000360892 24.75" stroke="#000000" stroke-width="13.75" stroke-linecap="round" stroke-linejoin="miter" stroke-miterlimit="8" stroke-opacity="1" fill="none" fill-rule="evenodd" transform="matrix(1 0 0 -1 3024 1621.75)"/><path d="M0 0 0.000360892 24.75" stroke="#000000" stroke-width="13.75" stroke-linecap="round" stroke-linejoin="miter" stroke-miterlimit="8" stroke-opacity="1" fill="none" fill-rule="evenodd" transform="matrix(1 0 0 -1 3077 1621.75)"/><path d="M0 0 0.000360892 24.75" stroke="#000000" stroke-width="13.75" stroke-linecap="round" stroke-linejoin="miter" stroke-miterlimit="8" stroke-opacity="1" fill="none" fill-rule="evenodd" transform="matrix(1 0 0 -1 2998 1621.75)"/><path d="M0 0 0.000360892 24.75" stroke="#000000" stroke-width="13.75" stroke-linecap="round" stroke-linejoin="miter" stroke-miterlimit="8" stroke-opacity="1" fill="none" fill-rule="evenodd" transform="matrix(1 0 0 -1 3051 1621.75)"/><path d="M0 0 0.000360892 24.75" stroke="#000000" stroke-width="13.75" stroke-linecap="round" stroke-linejoin="miter" stroke-miterlimit="8" stroke-opacity="1" fill="none" fill-rule="evenodd" transform="matrix(1 0 0 -1 3104 1621.75)"/><path d="M0 0 0.000360892 24.75" stroke="#000000" stroke-width="13.75" stroke-linecap="round" stroke-linejoin="miter" stroke-miterlimit="8" stroke-opacity="1" fill="none" fill-rule="evenodd" transform="matrix(1 0 0 -1 2972 1689.75)"/><path d="M0 0 0.000360892 24.75" stroke="#000000" stroke-width="13.75" stroke-linecap="round" stroke-linejoin="miter" stroke-miterlimit="8" stroke-opacity="1" fill="none" fill-rule="evenodd" transform="matrix(1 0 0 -1 3024 1689.75)"/><path d="M0 0 0.000360892 24.75" stroke="#000000" stroke-width="13.75" stroke-linecap="round" stroke-linejoin="miter" stroke-miterlimit="8" stroke-opacity="1" fill="none" fill-rule="evenodd" transform="matrix(1 0 0 -1 3077 1689.75)"/><path d="M0 0 0.000360892 24.75" stroke="#000000" stroke-width="13.75" stroke-linecap="round" stroke-linejoin="miter" stroke-miterlimit="8" stroke-opacity="1" fill="none" fill-rule="evenodd" transform="matrix(1 0 0 -1 2998 1689.75)"/><path d="M0 0 0.000360892 24.75" stroke="#000000" stroke-width="13.75" stroke-linecap="round" stroke-linejoin="miter" stroke-miterlimit="8" stroke-opacity="1" fill="none" fill-rule="evenodd" transform="matrix(1 0 0 -1 3051 1689.75)"/><path d="M0 0 0.000360892 24.75" stroke="#000000" stroke-width="13.75" stroke-linecap="round" stroke-linejoin="miter" stroke-miterlimit="8" stroke-opacity="1" fill="none" fill-rule="evenodd" transform="matrix(1 0 0 -1 3104 1689.75)"/><path d="M0 0 0.000360892 24.75" stroke="#000000" stroke-width="13.75" stroke-linecap="round" stroke-linejoin="miter" stroke-miterlimit="8" stroke-opacity="1" fill="none" fill-rule="evenodd" transform="matrix(1 0 0 -1 2972 1757.75)"/><path d="M0 0 0.000360892 24.75" stroke="#000000" stroke-width="13.75" stroke-linecap="round" stroke-linejoin="miter" stroke-miterlimit="8" stroke-opacity="1" fill="none" fill-rule="evenodd" transform="matrix(1 0 0 -1 3024 1757.75)"/><path d="M0 0 0.000360892 24.75" stroke="#000000" stroke-width="13.75" stroke-linecap="round" stroke-linejoin="miter" stroke-miterlimit="8" stroke-opacity="1" fill="none" fill-rule="evenodd" transform="matrix(1 0 0 -1 3077 1757.75)"/><path d="M0 0 0.000360892 24.75" stroke="#000000" stroke-width="13.75" stroke-linecap="round" stroke-linejoin="miter" stroke-miterlimit="8" stroke-opacity="1" fill="none" fill-rule="evenodd" transform="matrix(1 0 0 -1 2998 1757.75)"/><path d="M0 0 0.000360892 24.75" stroke="#000000" stroke-width="13.75" stroke-linecap="round" stroke-linejoin="miter" stroke-miterlimit="8" stroke-opacity="1" fill="none" fill-rule="evenodd" transform="matrix(1 0 0 -1 3051 1757.75)"/><path d="M0 0 0.000360892 24.75" stroke="#000000" stroke-width="13.75" stroke-linecap="round" stroke-linejoin="miter" stroke-miterlimit="8" stroke-opacity="1" fill="none" fill-rule="evenodd" transform="matrix(1 0 0 -1 3104 1757.75)"/><path d="M0 0 0.000360892 24.75" stroke="#000000" stroke-width="13.75" stroke-linecap="round" stroke-linejoin="miter" stroke-miterlimit="8" stroke-opacity="1" fill="none" fill-rule="evenodd" transform="matrix(1 0 0 -1 2972 1826.75)"/><path d="M0 0 0.000360892 24.75" stroke="#000000" stroke-width="13.75" stroke-linecap="round" stroke-linejoin="miter" stroke-miterlimit="8" stroke-opacity="1" fill="none" fill-rule="evenodd" transform="matrix(1 0 0 -1 3024 1826.75)"/><path d="M0 0 0.000360892 24.75" stroke="#000000" stroke-width="13.75" stroke-linecap="round" stroke-linejoin="miter" stroke-miterlimit="8" stroke-opacity="1" fill="none" fill-rule="evenodd" transform="matrix(1 0 0 -1 3077 1826.75)"/><path d="M0 0 0.000360892 24.75" stroke="#000000" stroke-width="13.75" stroke-linecap="round" stroke-linejoin="miter" stroke-miterlimit="8" stroke-opacity="1" fill="none" fill-rule="evenodd" transform="matrix(1 0 0 -1 2998 1826.75)"/><path d="M0 0 0.000360892 24.75" stroke="#000000" stroke-width="13.75" stroke-linecap="round" stroke-linejoin="miter" stroke-miterlimit="8" stroke-opacity="1" fill="none" fill-rule="evenodd" transform="matrix(1 0 0 -1 3051 1826.75)"/><path d="M0 0 0.000360892 24.75" stroke="#000000" stroke-width="13.75" stroke-linecap="round" stroke-linejoin="miter" stroke-miterlimit="8" stroke-opacity="1" fill="none" fill-rule="evenodd" transform="matrix(1 0 0 -1 3104 1826.75)"/><path d="M0 0 0.000360892 24.75" stroke="#000000" stroke-width="13.75" stroke-linecap="round" stroke-linejoin="miter" stroke-miterlimit="8" stroke-opacity="1" fill="none" fill-rule="evenodd" transform="matrix(1 0 0 -1 2972 1894.75)"/><path d="M0 0 0.000360892 24.75" stroke="#000000" stroke-width="13.75" stroke-linecap="round" stroke-linejoin="miter" stroke-miterlimit="8" stroke-opacity="1" fill="none" fill-rule="evenodd" transform="matrix(1 0 0 -1 3024 1894.75)"/><path d="M0 0 0.000360892 24.75" stroke="#000000" stroke-width="13.75" stroke-linecap="round" stroke-linejoin="miter" stroke-miterlimit="8" stroke-opacity="1" fill="none" fill-rule="evenodd" transform="matrix(1 0 0 -1 3077 1894.75)"/><path d="M0 0 0.000360892 24.75" stroke="#000000" stroke-width="13.75" stroke-linecap="round" stroke-linejoin="miter" stroke-miterlimit="8" stroke-opacity="1" fill="none" fill-rule="evenodd" transform="matrix(1 0 0 -1 2998 1894.75)"/><path d="M0 0 0.000360892 24.75" stroke="#000000" stroke-width="13.75" stroke-linecap="round" stroke-linejoin="miter" stroke-miterlimit="8" stroke-opacity="1" fill="none" fill-rule="evenodd" transform="matrix(1 0 0 -1 3051 1894.75)"/><path d="M0 0 0.000360892 24.75" stroke="#000000" stroke-width="13.75" stroke-linecap="round" stroke-linejoin="miter" stroke-miterlimit="8" stroke-opacity="1" fill="none" fill-rule="evenodd" transform="matrix(1 0 0 -1 3104 1894.75)"/><path d="M0 0 0.000360892 24.75" stroke="#000000" stroke-width="13.75" stroke-linecap="round" stroke-linejoin="miter" stroke-miterlimit="8" stroke-opacity="1" fill="none" fill-rule="evenodd" transform="matrix(1 0 0 -1 2972 1963.75)"/><path d="M0 0 0.000360892 24.75" stroke="#000000" stroke-width="13.75" stroke-linecap="round" stroke-linejoin="miter" stroke-miterlimit="8" stroke-opacity="1" fill="none" fill-rule="evenodd" transform="matrix(1 0 0 -1 3024 1963.75)"/><path d="M0 0 0.000360892 24.75" stroke="#000000" stroke-width="13.75" stroke-linecap="round" stroke-linejoin="miter" stroke-miterlimit="8" stroke-opacity="1" fill="none" fill-rule="evenodd" transform="matrix(1 0 0 -1 3077 1963.75)"/><path d="M0 0 0.000360892 24.75" stroke="#000000" stroke-width="13.75" stroke-linecap="round" stroke-linejoin="miter" stroke-miterlimit="8" stroke-opacity="1" fill="none" fill-rule="evenodd" transform="matrix(1 0 0 -1 2998 1963.75)"/><path d="M0 0 0.000360892 24.75" stroke="#000000" stroke-width="13.75" stroke-linecap="round" stroke-linejoin="miter" stroke-miterlimit="8" stroke-opacity="1" fill="none" fill-rule="evenodd" transform="matrix(1 0 0 -1 3051 1963.75)"/><path d="M0 0 0.000360892 24.75" stroke="#000000" stroke-width="13.75" stroke-linecap="round" stroke-linejoin="miter" stroke-miterlimit="8" stroke-opacity="1" fill="none" fill-rule="evenodd" transform="matrix(1 0 0 -1 3104 1963.75)"/><path d="M0 0 0.000360892 24.75" stroke="#000000" stroke-width="13.75" stroke-linecap="round" stroke-linejoin="miter" stroke-miterlimit="8" stroke-opacity="1" fill="none" fill-rule="evenodd" transform="matrix(1 0 0 -1 3143 1621.75)"/><path d="M0 0 0.000360892 24.75" stroke="#000000" stroke-width="13.75" stroke-linecap="round" stroke-linejoin="miter" stroke-miterlimit="8" stroke-opacity="1" fill="none" fill-rule="evenodd" transform="matrix(1 0 0 -1 3196 1621.75)"/><path d="M0 0 0.000360892 24.75" stroke="#000000" stroke-width="13.75" stroke-linecap="round" stroke-linejoin="miter" stroke-miterlimit="8" stroke-opacity="1" fill="none" fill-rule="evenodd" transform="matrix(1 0 0 -1 3249 1621.75)"/><path d="M0 0 0.000360892 24.75" stroke="#000000" stroke-width="13.75" stroke-linecap="round" stroke-linejoin="miter" stroke-miterlimit="8" stroke-opacity="1" fill="none" fill-rule="evenodd" transform="matrix(1 0 0 -1 3170 1621.75)"/><path d="M0 0 0.000360892 24.75" stroke="#000000" stroke-width="13.75" stroke-linecap="round" stroke-linejoin="miter" stroke-miterlimit="8" stroke-opacity="1" fill="none" fill-rule="evenodd" transform="matrix(1 0 0 -1 3222 1621.75)"/><path d="M0 0 0.000360892 24.75" stroke="#000000" stroke-width="13.75" stroke-linecap="round" stroke-linejoin="miter" stroke-miterlimit="8" stroke-opacity="1" fill="none" fill-rule="evenodd" transform="matrix(1 0 0 -1 3275 1621.75)"/><path d="M0 0 0.000360892 24.75" stroke="#000000" stroke-width="13.75" stroke-linecap="round" stroke-linejoin="miter" stroke-miterlimit="8" stroke-opacity="1" fill="none" fill-rule="evenodd" transform="matrix(1 0 0 -1 3143 1689.75)"/><path d="M0 0 0.000360892 24.75" stroke="#000000" stroke-width="13.75" stroke-linecap="round" stroke-linejoin="miter" stroke-miterlimit="8" stroke-opacity="1" fill="none" fill-rule="evenodd" transform="matrix(1 0 0 -1 3196 1689.75)"/><path d="M0 0 0.000360892 24.75" stroke="#000000" stroke-width="13.75" stroke-linecap="round" stroke-linejoin="miter" stroke-miterlimit="8" stroke-opacity="1" fill="none" fill-rule="evenodd" transform="matrix(1 0 0 -1 3249 1689.75)"/><path d="M0 0 0.000360892 24.75" stroke="#000000" stroke-width="13.75" stroke-linecap="round" stroke-linejoin="miter" stroke-miterlimit="8" stroke-opacity="1" fill="none" fill-rule="evenodd" transform="matrix(1 0 0 -1 3170 1689.75)"/><path d="M0 0 0.000360892 24.75" stroke="#000000" stroke-width="13.75" stroke-linecap="round" stroke-linejoin="miter" stroke-miterlimit="8" stroke-opacity="1" fill="none" fill-rule="evenodd" transform="matrix(1 0 0 -1 3222 1689.75)"/><path d="M0 0 0.000360892 24.75" stroke="#000000" stroke-width="13.75" stroke-linecap="round" stroke-linejoin="miter" stroke-miterlimit="8" stroke-opacity="1" fill="none" fill-rule="evenodd" transform="matrix(1 0 0 -1 3275 1689.75)"/><path d="M0 0 0.000360892 24.75" stroke="#000000" stroke-width="13.75" stroke-linecap="round" stroke-linejoin="miter" stroke-miterlimit="8" stroke-opacity="1" fill="none" fill-rule="evenodd" transform="matrix(1 0 0 -1 3143 1757.75)"/><path d="M0 0 0.000360892 24.75" stroke="#000000" stroke-width="13.75" stroke-linecap="round" stroke-linejoin="miter" stroke-miterlimit="8" stroke-opacity="1" fill="none" fill-rule="evenodd" transform="matrix(1 0 0 -1 3196 1757.75)"/><path d="M0 0 0.000360892 24.75" stroke="#000000" stroke-width="13.75" stroke-linecap="round" stroke-linejoin="miter" stroke-miterlimit="8" stroke-opacity="1" fill="none" fill-rule="evenodd" transform="matrix(1 0 0 -1 3249 1757.75)"/><path d="M0 0 0.000360892 24.75" stroke="#000000" stroke-width="13.75" stroke-linecap="round" stroke-linejoin="miter" stroke-miterlimit="8" stroke-opacity="1" fill="none" fill-rule="evenodd" transform="matrix(1 0 0 -1 3170 1757.75)"/><path d="M0 0 0.000360892 24.75" stroke="#000000" stroke-width="13.75" stroke-linecap="round" stroke-linejoin="miter" stroke-miterlimit="8" stroke-opacity="1" fill="none" fill-rule="evenodd" transform="matrix(1 0 0 -1 3222 1757.75)"/><path d="M0 0 0.000360892 24.75" stroke="#000000" stroke-width="13.75" stroke-linecap="round" stroke-linejoin="miter" stroke-miterlimit="8" stroke-opacity="1" fill="none" fill-rule="evenodd" transform="matrix(1 0 0 -1 3275 1757.75)"/><path d="M0 0 0.000360892 24.75" stroke="#000000" stroke-width="13.75" stroke-linecap="round" stroke-linejoin="miter" stroke-miterlimit="8" stroke-opacity="1" fill="none" fill-rule="evenodd" transform="matrix(1 0 0 -1 3143 1826.75)"/><path d="M0 0 0.000360892 24.75" stroke="#000000" stroke-width="13.75" stroke-linecap="round" stroke-linejoin="miter" stroke-miterlimit="8" stroke-opacity="1" fill="none" fill-rule="evenodd" transform="matrix(1 0 0 -1 3196 1826.75)"/><path d="M0 0 0.000360892 24.75" stroke="#000000" stroke-width="13.75" stroke-linecap="round" stroke-linejoin="miter" stroke-miterlimit="8" stroke-opacity="1" fill="none" fill-rule="evenodd" transform="matrix(1 0 0 -1 3249 1826.75)"/><path d="M0 0 0.000360892 24.75" stroke="#000000" stroke-width="13.75" stroke-linecap="round" stroke-linejoin="miter" stroke-miterlimit="8" stroke-opacity="1" fill="none" fill-rule="evenodd" transform="matrix(1 0 0 -1 3170 1826.75)"/><path d="M0 0 0.000360892 24.75" stroke="#000000" stroke-width="13.75" stroke-linecap="round" stroke-linejoin="miter" stroke-miterlimit="8" stroke-opacity="1" fill="none" fill-rule="evenodd" transform="matrix(1 0 0 -1 3222 1826.75)"/><path d="M0 0 0.000360892 24.75" stroke="#000000" stroke-width="13.75" stroke-linecap="round" stroke-linejoin="miter" stroke-miterlimit="8" stroke-opacity="1" fill="none" fill-rule="evenodd" transform="matrix(1 0 0 -1 3275 1826.75)"/><path d="M0 0 0.000360892 24.75" stroke="#000000" stroke-width="13.75" stroke-linecap="round" stroke-linejoin="miter" stroke-miterlimit="8" stroke-opacity="1" fill="none" fill-rule="evenodd" transform="matrix(1 0 0 -1 3143 1894.75)"/><path d="M0 0 0.000360892 24.75" stroke="#000000" stroke-width="13.75" stroke-linecap="round" stroke-linejoin="miter" stroke-miterlimit="8" stroke-opacity="1" fill="none" fill-rule="evenodd" transform="matrix(1 0 0 -1 3196 1894.75)"/><path d="M0 0 0.000360892 24.75" stroke="#000000" stroke-width="13.75" stroke-linecap="round" stroke-linejoin="miter" stroke-miterlimit="8" stroke-opacity="1" fill="none" fill-rule="evenodd" transform="matrix(1 0 0 -1 3249 1894.75)"/><path d="M0 0 0.000360892 24.75" stroke="#000000" stroke-width="13.75" stroke-linecap="round" stroke-linejoin="miter" stroke-miterlimit="8" stroke-opacity="1" fill="none" fill-rule="evenodd" transform="matrix(1 0 0 -1 3170 1894.75)"/><path d="M0 0 0.000360892 24.75" stroke="#000000" stroke-width="13.75" stroke-linecap="round" stroke-linejoin="miter" stroke-miterlimit="8" stroke-opacity="1" fill="none" fill-rule="evenodd" transform="matrix(1 0 0 -1 3222 1894.75)"/><path d="M0 0 0.000360892 24.75" stroke="#000000" stroke-width="13.75" stroke-linecap="round" stroke-linejoin="miter" stroke-miterlimit="8" stroke-opacity="1" fill="none" fill-rule="evenodd" transform="matrix(1 0 0 -1 3275 1894.75)"/><path d="M0 0 0.000360892 24.75" stroke="#000000" stroke-width="13.75" stroke-linecap="round" stroke-linejoin="miter" stroke-miterlimit="8" stroke-opacity="1" fill="none" fill-rule="evenodd" transform="matrix(1 0 0 -1 3143 1963.75)"/><path d="M0 0 0.000360892 24.75" stroke="#000000" stroke-width="13.75" stroke-linecap="round" stroke-linejoin="miter" stroke-miterlimit="8" stroke-opacity="1" fill="none" fill-rule="evenodd" transform="matrix(1 0 0 -1 3196 1963.75)"/><path d="M0 0 0.000360892 24.75" stroke="#000000" stroke-width="13.75" stroke-linecap="round" stroke-linejoin="miter" stroke-miterlimit="8" stroke-opacity="1" fill="none" fill-rule="evenodd" transform="matrix(1 0 0 -1 3249 1963.75)"/><path d="M0 0 0.000360892 24.75" stroke="#000000" stroke-width="13.75" stroke-linecap="round" stroke-linejoin="miter" stroke-miterlimit="8" stroke-opacity="1" fill="none" fill-rule="evenodd" transform="matrix(1 0 0 -1 3170 1963.75)"/><path d="M0 0 0.000360892 24.75" stroke="#000000" stroke-width="13.75" stroke-linecap="round" stroke-linejoin="miter" stroke-miterlimit="8" stroke-opacity="1" fill="none" fill-rule="evenodd" transform="matrix(1 0 0 -1 3222 1963.75)"/><path d="M0 0 0.000360892 24.75" stroke="#000000" stroke-width="13.75" stroke-linecap="round" stroke-linejoin="miter" stroke-miterlimit="8" stroke-opacity="1" fill="none" fill-rule="evenodd" transform="matrix(1 0 0 -1 3275 1963.75)"/><path d="M0 0 0.000360892 24.75" stroke="#000000" stroke-width="13.75" stroke-linecap="round" stroke-linejoin="miter" stroke-miterlimit="8" stroke-opacity="1" fill="none" fill-rule="evenodd" transform="matrix(1 0 0 -1 3315 1621.75)"/><path d="M0 0 0.000360892 24.75" stroke="#000000" stroke-width="13.75" stroke-linecap="round" stroke-linejoin="miter" stroke-miterlimit="8" stroke-opacity="1" fill="none" fill-rule="evenodd" transform="matrix(1 0 0 -1 3368 1621.75)"/><path d="M0 0 0.000360892 24.75" stroke="#000000" stroke-width="13.75" stroke-linecap="round" stroke-linejoin="miter" stroke-miterlimit="8" stroke-opacity="1" fill="none" fill-rule="evenodd" transform="matrix(1 0 0 -1 3421 1621.75)"/><path d="M0 0 0.000360892 24.75" stroke="#000000" stroke-width="13.75" stroke-linecap="round" stroke-linejoin="miter" stroke-miterlimit="8" stroke-opacity="1" fill="none" fill-rule="evenodd" transform="matrix(1 0 0 -1 3342 1621.75)"/><path d="M0 0 0.000360892 24.75" stroke="#000000" stroke-width="13.75" stroke-linecap="round" stroke-linejoin="miter" stroke-miterlimit="8" stroke-opacity="1" fill="none" fill-rule="evenodd" transform="matrix(1 0 0 -1 3394 1621.75)"/><path d="M0 0 0.000360892 24.75" stroke="#000000" stroke-width="13.75" stroke-linecap="round" stroke-linejoin="miter" stroke-miterlimit="8" stroke-opacity="1" fill="none" fill-rule="evenodd" transform="matrix(1 0 0 -1 3447 1621.75)"/><path d="M0 0 0.000360892 24.75" stroke="#000000" stroke-width="13.75" stroke-linecap="round" stroke-linejoin="miter" stroke-miterlimit="8" stroke-opacity="1" fill="none" fill-rule="evenodd" transform="matrix(1 0 0 -1 3315 1689.75)"/><path d="M0 0 0.000360892 24.75" stroke="#000000" stroke-width="13.75" stroke-linecap="round" stroke-linejoin="miter" stroke-miterlimit="8" stroke-opacity="1" fill="none" fill-rule="evenodd" transform="matrix(1 0 0 -1 3368 1689.75)"/><path d="M0 0 0.000360892 24.75" stroke="#000000" stroke-width="13.75" stroke-linecap="round" stroke-linejoin="miter" stroke-miterlimit="8" stroke-opacity="1" fill="none" fill-rule="evenodd" transform="matrix(1 0 0 -1 3421 1689.75)"/><path d="M0 0 0.000360892 24.75" stroke="#000000" stroke-width="13.75" stroke-linecap="round" stroke-linejoin="miter" stroke-miterlimit="8" stroke-opacity="1" fill="none" fill-rule="evenodd" transform="matrix(1 0 0 -1 3342 1689.75)"/><path d="M0 0 0.000360892 24.75" stroke="#000000" stroke-width="13.75" stroke-linecap="round" stroke-linejoin="miter" stroke-miterlimit="8" stroke-opacity="1" fill="none" fill-rule="evenodd" transform="matrix(1 0 0 -1 3394 1689.75)"/><path d="M0 0 0.000360892 24.75" stroke="#000000" stroke-width="13.75" stroke-linecap="round" stroke-linejoin="miter" stroke-miterlimit="8" stroke-opacity="1" fill="none" fill-rule="evenodd" transform="matrix(1 0 0 -1 3447 1689.75)"/><path d="M0 0 0.000360892 24.75" stroke="#000000" stroke-width="13.75" stroke-linecap="round" stroke-linejoin="miter" stroke-miterlimit="8" stroke-opacity="1" fill="none" fill-rule="evenodd" transform="matrix(1 0 0 -1 3315 1757.75)"/><path d="M0 0 0.000360892 24.75" stroke="#000000" stroke-width="13.75" stroke-linecap="round" stroke-linejoin="miter" stroke-miterlimit="8" stroke-opacity="1" fill="none" fill-rule="evenodd" transform="matrix(1 0 0 -1 3368 1757.75)"/><path d="M0 0 0.000360892 24.75" stroke="#000000" stroke-width="13.75" stroke-linecap="round" stroke-linejoin="miter" stroke-miterlimit="8" stroke-opacity="1" fill="none" fill-rule="evenodd" transform="matrix(1 0 0 -1 3421 1757.75)"/><path d="M0 0 0.000360892 24.75" stroke="#000000" stroke-width="13.75" stroke-linecap="round" stroke-linejoin="miter" stroke-miterlimit="8" stroke-opacity="1" fill="none" fill-rule="evenodd" transform="matrix(1 0 0 -1 3342 1757.75)"/><path d="M0 0 0.000360892 24.75" stroke="#000000" stroke-width="13.75" stroke-linecap="round" stroke-linejoin="miter" stroke-miterlimit="8" stroke-opacity="1" fill="none" fill-rule="evenodd" transform="matrix(1 0 0 -1 3394 1757.75)"/><path d="M0 0 0.000360892 24.75" stroke="#000000" stroke-width="13.75" stroke-linecap="round" stroke-linejoin="miter" stroke-miterlimit="8" stroke-opacity="1" fill="none" fill-rule="evenodd" transform="matrix(1 0 0 -1 3447 1757.75)"/><path d="M0 0 0.000360892 24.75" stroke="#000000" stroke-width="13.75" stroke-linecap="round" stroke-linejoin="miter" stroke-miterlimit="8" stroke-opacity="1" fill="none" fill-rule="evenodd" transform="matrix(1 0 0 -1 3315 1826.75)"/><path d="M0 0 0.000360892 24.75" stroke="#000000" stroke-width="13.75" stroke-linecap="round" stroke-linejoin="miter" stroke-miterlimit="8" stroke-opacity="1" fill="none" fill-rule="evenodd" transform="matrix(1 0 0 -1 3368 1826.75)"/><path d="M0 0 0.000360892 24.75" stroke="#000000" stroke-width="13.75" stroke-linecap="round" stroke-linejoin="miter" stroke-miterlimit="8" stroke-opacity="1" fill="none" fill-rule="evenodd" transform="matrix(1 0 0 -1 3421 1826.75)"/><path d="M0 0 0.000360892 24.75" stroke="#000000" stroke-width="13.75" stroke-linecap="round" stroke-linejoin="miter" stroke-miterlimit="8" stroke-opacity="1" fill="none" fill-rule="evenodd" transform="matrix(1 0 0 -1 3342 1826.75)"/><path d="M0 0 0.000360892 24.75" stroke="#000000" stroke-width="13.75" stroke-linecap="round" stroke-linejoin="miter" stroke-miterlimit="8" stroke-opacity="1" fill="none" fill-rule="evenodd" transform="matrix(1 0 0 -1 3394 1826.75)"/><path d="M0 0 0.000360892 24.75" stroke="#000000" stroke-width="13.75" stroke-linecap="round" stroke-linejoin="miter" stroke-miterlimit="8" stroke-opacity="1" fill="none" fill-rule="evenodd" transform="matrix(1 0 0 -1 3447 1826.75)"/><path d="M0 0 0.000360892 24.75" stroke="#000000" stroke-width="13.75" stroke-linecap="round" stroke-linejoin="miter" stroke-miterlimit="8" stroke-opacity="1" fill="none" fill-rule="evenodd" transform="matrix(1 0 0 -1 3315 1894.75)"/><path d="M0 0 0.000360892 24.75" stroke="#000000" stroke-width="13.75" stroke-linecap="round" stroke-linejoin="miter" stroke-miterlimit="8" stroke-opacity="1" fill="none" fill-rule="evenodd" transform="matrix(1 0 0 -1 3368 1894.75)"/><path d="M0 0 0.000360892 24.75" stroke="#000000" stroke-width="13.75" stroke-linecap="round" stroke-linejoin="miter" stroke-miterlimit="8" stroke-opacity="1" fill="none" fill-rule="evenodd" transform="matrix(1 0 0 -1 3421 1894.75)"/><path d="M0 0 0.000360892 24.75" stroke="#000000" stroke-width="13.75" stroke-linecap="round" stroke-linejoin="miter" stroke-miterlimit="8" stroke-opacity="1" fill="none" fill-rule="evenodd" transform="matrix(1 0 0 -1 3342 1894.75)"/><path d="M0 0 0.000360892 24.75" stroke="#000000" stroke-width="13.75" stroke-linecap="round" stroke-linejoin="miter" stroke-miterlimit="8" stroke-opacity="1" fill="none" fill-rule="evenodd" transform="matrix(1 0 0 -1 3394 1894.75)"/><path d="M0 0 0.000360892 24.75" stroke="#000000" stroke-width="13.75" stroke-linecap="round" stroke-linejoin="miter" stroke-miterlimit="8" stroke-opacity="1" fill="none" fill-rule="evenodd" transform="matrix(1 0 0 -1 3447 1894.75)"/><path d="M0 0 0.000360892 24.75" stroke="#000000" stroke-width="13.75" stroke-linecap="round" stroke-linejoin="miter" stroke-miterlimit="8" stroke-opacity="1" fill="none" fill-rule="evenodd" transform="matrix(1 0 0 -1 3315 1963.75)"/><path d="M0 0 0.000360892 24.75" stroke="#000000" stroke-width="13.75" stroke-linecap="round" stroke-linejoin="miter" stroke-miterlimit="8" stroke-opacity="1" fill="none" fill-rule="evenodd" transform="matrix(1 0 0 -1 3368 1963.75)"/><path d="M0 0 0.000360892 24.75" stroke="#000000" stroke-width="13.75" stroke-linecap="round" stroke-linejoin="miter" stroke-miterlimit="8" stroke-opacity="1" fill="none" fill-rule="evenodd" transform="matrix(1 0 0 -1 3421 1963.75)"/><path d="M0 0 0.000360892 24.75" stroke="#000000" stroke-width="13.75" stroke-linecap="round" stroke-linejoin="miter" stroke-miterlimit="8" stroke-opacity="1" fill="none" fill-rule="evenodd" transform="matrix(1 0 0 -1 3342 1963.75)"/><path d="M0 0 0.000360892 24.75" stroke="#000000" stroke-width="13.75" stroke-linecap="round" stroke-linejoin="miter" stroke-miterlimit="8" stroke-opacity="1" fill="none" fill-rule="evenodd" transform="matrix(1 0 0 -1 3394 1963.75)"/><path d="M0 0 0.000360892 24.75" stroke="#000000" stroke-width="13.75" stroke-linecap="round" stroke-linejoin="miter" stroke-miterlimit="8" stroke-opacity="1" fill="none" fill-rule="evenodd" transform="matrix(1 0 0 -1 3447 1963.75)"/><path d="M0 0 0.000360892 472.312" stroke="#000000" stroke-width="13.75" stroke-linecap="round" stroke-linejoin="miter" stroke-miterlimit="8" stroke-opacity="1" fill="none" fill-rule="evenodd" transform="matrix(1 0 0 -1 3466 1984.31)"/><path d="M0 0 0.000360892 461.312" stroke="#000000" stroke-width="13.75" stroke-linecap="round" stroke-linejoin="miter" stroke-miterlimit="8" stroke-opacity="1" fill="none" fill-rule="evenodd" transform="matrix(1 0 0 -1 3294 1977.31)"/><path d="M3296 1984 3461 1984" stroke="#000000" stroke-width="13.75" stroke-linecap="round" stroke-linejoin="miter" stroke-miterlimit="8" stroke-opacity="1" fill="none" fill-rule="evenodd"/><path d="M3297 1641 3462 1641" stroke="#000000" stroke-width="13.75" stroke-linecap="round" stroke-linejoin="miter" stroke-miterlimit="8" stroke-opacity="1" fill="none" fill-rule="evenodd"/><path d="M3297 1710 3462 1710" stroke="#000000" stroke-width="13.75" stroke-linecap="round" stroke-linejoin="miter" stroke-miterlimit="8" stroke-opacity="1" fill="none" fill-rule="evenodd"/><path d="M3297 1779 3462 1779" stroke="#000000" stroke-width="13.75" stroke-linecap="round" stroke-linejoin="miter" stroke-miterlimit="8" stroke-opacity="1" fill="none" fill-rule="evenodd"/><path d="M3297 1916 3462 1916" stroke="#000000" stroke-width="13.75" stroke-linecap="round" stroke-linejoin="miter" stroke-miterlimit="8" stroke-opacity="1" fill="none" fill-rule="evenodd"/><path d="M3297 1848 3462 1848" stroke="#000000" stroke-width="13.75" stroke-linecap="round" stroke-linejoin="miter" stroke-miterlimit="8" stroke-opacity="1" fill="none" fill-rule="evenodd"/><path d="M3300 1579 3465 1579" stroke="#000000" stroke-width="13.75" stroke-linecap="round" stroke-linejoin="miter" stroke-miterlimit="8" stroke-opacity="1" fill="none" fill-rule="evenodd"/><path d="M3294 1512 3459 1512" stroke="#000000" stroke-width="13.75" stroke-linecap="round" stroke-linejoin="miter" stroke-miterlimit="8" stroke-opacity="1" fill="none" fill-rule="evenodd"/><path d="M3441.85 1538.17 3413.27 1554.67" stroke="#000000" stroke-width="13.75" stroke-linecap="round" stroke-linejoin="miter" stroke-miterlimit="8" stroke-opacity="1" fill="none" fill-rule="evenodd"/><path d="M3441.85 1555.4 3413.27 1538.9" stroke="#000000" stroke-width="13.75" stroke-linecap="round" stroke-linejoin="miter" stroke-miterlimit="8" stroke-opacity="1" fill="none" fill-rule="evenodd"/><path d="M3428 1563 3428 1530" stroke="#000000" stroke-width="13.75" stroke-linecap="round" stroke-linejoin="miter" stroke-miterlimit="8" stroke-opacity="1" fill="none" fill-rule="evenodd"/><path d="M2928 2005 3488.76 2005" stroke="#000000" stroke-width="13.75" stroke-linecap="round" stroke-linejoin="miter" stroke-miterlimit="8" stroke-opacity="1" fill="none" fill-rule="evenodd"/><path d="M0 0 0.000360892 562.887" stroke="#000000" stroke-width="13.75" stroke-linecap="round" stroke-linejoin="miter" stroke-miterlimit="8" stroke-opacity="1" fill="none" fill-rule="evenodd" transform="matrix(1 0 0 -1 2927 2004.89)"/><path d="M0 0 0.000360892 562.887" stroke="#000000" stroke-width="13.75" stroke-linecap="round" stroke-linejoin="miter" stroke-miterlimit="8" stroke-opacity="1" fill="none" fill-rule="evenodd" transform="matrix(1 0 0 -1 3490 2004.89)"/><path d="M2928 1492 3488.76 1492" stroke="#000000" stroke-width="13.75" stroke-linecap="round" stroke-linejoin="miter" stroke-miterlimit="8" stroke-opacity="1" fill="none" fill-rule="evenodd"/><path d="M2928 1442 3488.76 1442" stroke="#000000" stroke-width="13.75" stroke-linecap="round" stroke-linejoin="miter" stroke-miterlimit="8" stroke-opacity="1" fill="none" fill-rule="evenodd"/><path d="M2962 1467C2962 1460.93 2966.92 1456 2973 1456 2979.08 1456 2984 1460.93 2984 1467 2984 1473.08 2979.08 1478 2973 1478 2966.92 1478 2962 1473.08 2962 1467Z" stroke="#000000" stroke-width="13.75" stroke-linecap="butt" stroke-linejoin="miter" stroke-miterlimit="8" stroke-opacity="1" fill="none" fill-rule="evenodd"/><path d="M3197 1467C3197 1460.93 3201.92 1456 3208 1456 3214.07 1456 3219 1460.93 3219 1467 3219 1473.08 3214.07 1478 3208 1478 3201.92 1478 3197 1473.08 3197 1467Z" stroke="#000000" stroke-width="13.75" stroke-linecap="butt" stroke-linejoin="miter" stroke-miterlimit="8" stroke-opacity="1" fill="none" fill-rule="evenodd"/><path d="M3435 1466C3435 1459.93 3439.92 1455 3446 1455 3452.08 1455 3457 1459.93 3457 1466 3457 1472.08 3452.08 1477 3446 1477 3439.92 1477 3435 1472.08 3435 1466Z" stroke="#000000" stroke-width="13.75" stroke-linecap="butt" stroke-linejoin="miter" stroke-miterlimit="8" stroke-opacity="1" fill="none" fill-rule="evenodd"/></g></g></svg>