<svg width="211" height="51" viewBox="0 0 211 51" fill="none" xmlns="http://www.w3.org/2000/svg">
<path d="M0 25.0778C0 9.4071 32.0868 0 32.0868 0C32.0868 0 8.00414 9.45978 8.00414 25.0017C8.00414 40.5436 32.0868 50.1848 32.0868 50.1848C32.0868 50.1848 0 40.7485 0 25.0836V25.0778Z" fill="#ED874E"/>
<path d="M38.7344 25.0714C38.7344 17.4322 54.3796 12.8428 54.3796 12.8428C54.3796 12.8428 42.6398 17.4556 42.6398 25.0304C42.6398 32.6053 54.3796 37.3059 54.3796 37.3059C54.3796 37.3059 38.7344 32.7048 38.7344 25.0656V25.0714Z" fill="#57844D"/>
<path d="M14.3496 24.9429C14.2618 12.3104 40.2825 4.90527 40.2825 4.90527C40.2825 4.90527 20.7611 12.3923 20.8489 24.9254C20.9368 37.4525 40.5636 45.3611 40.5636 45.3611C40.5636 45.3611 14.4316 37.5755 14.3438 24.9429H14.3496Z" fill="#43538E"/>
<path d="M27.2578 25.0659C27.2578 15.091 47.6868 9.09668 47.6868 9.09668C47.6868 9.09668 32.3519 15.1203 32.3519 25.0132C32.3519 34.9062 47.6868 41.0469 47.6868 41.0469C47.6868 41.0469 27.2578 35.0408 27.2578 25.0601V25.0659Z" fill="#236A96"/>
<path d="M65.3929 20.2544C63.9759 20.2544 62.9161 20.6817 62.2135 21.5364C61.5109 22.391 61.1596 23.6847 61.1596 25.4116C61.1596 27.2848 61.4992 28.6546 62.1784 29.5268C62.8576 30.399 63.9291 30.8322 65.3871 30.8322C66.8275 30.8322 67.8931 30.399 68.584 29.5385C69.2808 28.6722 69.6263 27.3433 69.6263 25.5462C69.6263 23.7432 69.2808 22.4086 68.584 21.5481C67.8873 20.6876 66.8216 20.2602 65.3871 20.2544M57.5469 25.3882C57.5469 22.7774 58.191 20.8397 59.485 19.5636C60.779 18.2875 62.7463 17.6553 65.3871 17.6494C68.0512 17.6494 70.0244 18.2933 71.3009 19.5812C72.5773 20.869 73.2155 22.8535 73.2155 25.5404C73.2155 28.2273 72.5773 30.2176 71.3009 31.5113C70.0244 32.805 68.0512 33.4547 65.3871 33.4547C62.6936 33.4547 60.7146 32.805 59.4498 31.5054C58.1851 30.2059 57.5469 28.1629 57.5469 25.3882Z" fill="#ED874E"/>
<path d="M75.1758 21.9922H80.2991C81.4995 21.9922 82.3368 22.2029 82.8169 22.6185C83.297 23.0342 83.5371 23.7659 83.5371 24.802V26.6635H80.627V25.2294C80.627 24.7962 80.545 24.5035 80.387 24.3571C80.2289 24.2108 79.86 24.1347 79.292 24.1347H78.2205V33.1437H75.1758V21.998V21.9922Z" fill="#ED874E"/>
<path d="M88.6657 33.1389H85.4688V21.9932H88.6657V33.1389ZM88.6657 20.723H85.4688V17.9541H88.6657V20.723Z" fill="#ED874E"/>
<path d="M102.121 32.7349C102.121 34.2628 101.769 35.3867 101.061 36.1009C100.352 36.8151 99.2517 37.178 97.7527 37.178H91.7804V34.9184H97.2258C97.8113 34.9184 98.2621 34.7838 98.5725 34.5086C98.8886 34.2394 99.0409 33.8413 99.0409 33.3262V33.1389H96.5583C95.276 33.1389 94.3508 33.0452 93.7887 32.8637C93.2266 32.6764 92.7055 32.3603 92.2254 31.9154C91.675 31.412 91.2534 30.7856 90.9606 30.0363C90.662 29.287 90.5156 28.4734 90.5156 27.5953C90.5156 26.7348 90.662 25.9328 90.9606 25.1835C91.2592 24.4342 91.6808 23.8137 92.2254 23.3103C92.7172 22.842 93.2969 22.5083 93.9585 22.3034C94.6202 22.0985 95.4867 21.999 96.5583 21.999H102.109V32.7408L102.121 32.7349ZM97.4658 30.8324H99.0467V24.3757H97.4658C96.7046 24.3757 96.1659 24.4049 95.8615 24.4576C95.557 24.5103 95.2877 24.604 95.0593 24.7328C94.5909 25.0079 94.2454 25.3708 94.0288 25.8216C93.8121 26.2723 93.7009 26.8577 93.7009 27.5836C93.7009 28.7778 93.9761 29.6148 94.5265 30.1007C95.0769 30.5866 96.0547 30.8266 97.4658 30.8266V30.8324Z" fill="#ED874E"/>
<path d="M107.838 33.1389H104.641V21.9932H107.838V33.1389ZM107.838 20.723H104.641V17.9541H107.838V20.723Z" fill="#ED874E"/>
<path d="M110.289 30.8139H116.706C117.274 30.8139 117.69 30.7261 117.953 30.5563C118.211 30.3866 118.346 30.1114 118.346 29.7309C118.346 29.3504 118.217 29.0753 117.953 28.8997C117.69 28.7241 117.274 28.6363 116.712 28.6363H114.083C112.52 28.6363 111.466 28.408 110.915 27.9455C110.365 27.4831 110.09 26.6635 110.09 25.4869C110.09 24.3103 110.424 23.4088 111.085 22.841C111.747 22.279 112.777 21.9922 114.165 21.9922H120.7V24.3162H115.33C114.452 24.3162 113.884 24.3923 113.621 24.5386C113.357 24.6849 113.222 24.9484 113.222 25.3289C113.222 25.6742 113.34 25.926 113.568 26.0899C113.802 26.2538 114.165 26.3299 114.663 26.3299H117.421C118.679 26.3299 119.64 26.6167 120.307 27.1845C120.969 27.7524 121.303 28.5719 121.303 29.649C121.303 30.6851 121.01 31.5222 120.424 32.172C119.839 32.8218 119.078 33.1437 118.153 33.1437H110.289V30.8198V30.8139Z" fill="#ED874E"/>
<path d="M138.741 20.6C137.546 20.6 136.645 20.8869 136.036 21.4664C135.427 22.0459 135.093 22.9299 135.029 24.1182L144.175 24.1299V26.7758H135.011C135.017 28.0988 135.31 29.0471 135.883 29.6266C136.457 30.2062 137.412 30.493 138.753 30.493H144.18V33.1389H138.594C137.365 33.1389 136.393 33.0394 135.69 32.8345C134.988 32.6296 134.326 32.2901 133.705 31.8043C132.903 31.1837 132.3 30.3759 131.896 29.3808C131.492 28.3856 131.293 27.1973 131.293 25.8099C131.293 23.123 131.896 21.1444 133.096 19.8683C134.297 18.5922 136.165 17.9541 138.694 17.9541H144.186V20.6H138.758H138.741Z" fill="#ED874E"/>
<path d="M146.762 21.9922H152.494C154.227 21.9922 155.463 22.3083 156.206 22.9405C156.95 23.5727 157.319 24.6147 157.319 26.0723V33.1379H154.268V26.4352C154.268 25.604 154.133 25.0596 153.87 24.8137C153.601 24.5679 153.068 24.4391 152.266 24.4391H149.818V33.1379H146.768V21.9922H146.762Z" fill="#ED874E"/>
<path d="M165.041 33.1379C163.132 33.1379 161.686 32.6696 160.708 31.7271C159.73 30.7905 159.238 29.4031 159.238 27.5709C159.238 25.7386 159.73 24.3513 160.714 23.4088C161.698 22.4663 163.138 21.9922 165.047 21.9922H169.497V24.3162H165.468C164.362 24.3162 163.618 24.4684 163.237 24.7728C162.857 25.0772 162.652 25.6216 162.623 26.4118H169.497V28.7358H162.623C162.652 29.5378 162.839 30.0822 163.196 30.3749C163.548 30.6676 164.297 30.8139 165.445 30.8139H169.497V33.1379H165.047H165.041Z" fill="#ED874E"/>
<path d="M171.43 21.9922H176.553C177.748 21.9922 178.591 22.2029 179.071 22.6185C179.551 23.0342 179.791 23.7659 179.791 24.802V26.6635H176.881V25.2294C176.881 24.7962 176.799 24.5035 176.641 24.3571C176.483 24.2108 176.114 24.1347 175.546 24.1347H174.474V33.1437H171.43V21.998V21.9922Z" fill="#ED874E"/>
<path d="M192.556 32.7349C192.556 34.2628 192.205 35.3867 191.496 36.1009C190.788 36.8151 189.687 37.178 188.188 37.178H182.216V34.9184H187.661C188.247 34.9184 188.692 34.7838 189.008 34.5086C189.324 34.2394 189.476 33.8413 189.476 33.3262V33.1389H186.994C185.711 33.1389 184.786 33.0452 184.224 32.8637C183.662 32.6764 183.141 32.3603 182.667 31.9154C182.116 31.412 181.695 30.7856 181.402 30.0363C181.109 29.287 180.957 28.4734 180.957 27.5953C180.957 26.7348 181.103 25.9328 181.402 25.1835C181.701 24.4342 182.122 23.8137 182.667 23.3103C183.159 22.842 183.738 22.5083 184.4 22.3034C185.062 22.0985 185.928 21.999 187 21.999H192.55V32.7408L192.556 32.7349ZM187.901 30.8324H189.482V24.3757H187.901C187.14 24.3757 186.602 24.4049 186.297 24.4576C185.993 24.5103 185.723 24.604 185.495 24.7328C185.026 25.0079 184.681 25.3708 184.464 25.8216C184.248 26.2723 184.136 26.8577 184.136 27.5836C184.136 28.7778 184.412 29.6148 184.962 30.1007C185.512 30.5866 186.49 30.8266 187.901 30.8266V30.8324Z" fill="#ED874E"/>
<path d="M200.016 30.6793H202.469V21.9922H205.52V32.8393C205.52 34.3145 205.163 35.4033 204.448 36.1116C203.734 36.8199 202.645 37.177 201.169 37.177H195.197V34.9174H200.642C201.228 34.9174 201.679 34.7828 201.989 34.5077C202.3 34.2325 202.458 33.8403 202.458 33.3252V33.1379H199.758C198.037 33.1379 196.807 32.8101 196.07 32.1544C195.338 31.4988 194.969 30.3983 194.969 28.8646V21.9922H197.978V28.6363C197.978 29.4792 198.107 30.0295 198.371 30.2871C198.634 30.5505 199.173 30.6793 200.004 30.6793" fill="#ED874E"/>
<path d="M211.001 23.9415C211.001 25.0478 210.093 25.9493 208.981 25.9493C207.868 25.9493 206.949 25.0478 206.949 23.9415C206.949 22.8351 207.857 21.9277 209.004 21.9277C210.152 21.9277 211.001 22.8409 211.001 23.9415ZM207.365 23.9415C207.365 24.8371 208.091 25.5688 208.975 25.5688C209.859 25.5688 210.585 24.8371 210.585 23.9415C210.585 23.0458 209.865 22.3082 208.999 22.3082C208.085 22.3082 207.365 23.0283 207.365 23.9415ZM208.548 25.0361H207.986V22.8117H209.01C209.373 22.8117 209.596 22.8468 209.736 22.9287C209.93 23.04 210.041 23.2273 210.041 23.438C210.041 23.7541 209.894 23.9824 209.619 24.0761C209.865 24.1522 210.006 24.3571 210.017 24.6849C210.041 24.9132 210.041 24.9249 210.088 25.0361H209.455C209.455 25.0361 209.444 24.9893 209.438 24.9776C209.438 24.9483 209.42 24.9073 209.414 24.8605L209.397 24.7083C209.362 24.3337 209.198 24.199 208.753 24.2049H208.548V25.0361ZM209.063 23.7717C209.326 23.7717 209.426 23.6897 209.426 23.4907C209.426 23.3034 209.326 23.2331 209.063 23.2331H208.548V23.7717H209.063Z" fill="#ED874E"/>
</svg>
