<?xml version="1.0" encoding="UTF-8"?> <svg xmlns="http://www.w3.org/2000/svg" xmlns:xlink="http://www.w3.org/1999/xlink" version="1.1" id="Layer_1" x="0px" y="0px" viewBox="0 0 355 75.4" style="enable-background:new 0 0 355 75.4;" xml:space="preserve"> <style type="text/css"> .st0{fill:#595A5C;stroke:#595A5C;stroke-miterlimit:10;} .st1{fill:#EC7700;} .st2{fill:#B12028;} .st3{enable-background:new ;} .st4{fill:#8E2A2A;} </style> <g> <g> <path class="st0" d="M18.9,71.8H5.6c-2,0-3.4-0.3-4.1-0.8s-1.1-1.5-1.1-2.8v-9.1c0-1.3,0.4-2.2,1.2-2.8c0.8-0.5,2.1-0.8,4.1-0.8 h13.3V58H5.6c-1.2,0-1.9,0.4-1.9,1.1v9.1c0.1,0.4,0.2,0.7,0.5,0.9c0.3,0.2,0.7,0.2,1.4,0.2h13.3V71.8z"></path> <path class="st0" d="M38.6,71.8h-9.9c-2,0-3.4-0.3-4.1-0.8s-1.1-1.5-1.1-2.8V55.5h3.4v12.7c0.1,0.4,0.2,0.7,0.5,0.9 c0.3,0.2,0.7,0.2,1.4,0.2h9.9V71.8z"></path> <path class="st0" d="M61.6,69.4l0,2.4H46.8c-2,0-3.3-0.2-4.1-0.7c-0.8-0.5-1.2-1.4-1.2-2.8v-9.2c0-1.3,0.4-2.2,1.1-2.8 c0.8-0.5,2.1-0.8,4.1-0.8h14.7V58H46.8c-1.2,0-1.9,0.4-1.9,1.1v3.1h15.9l0,2.4H45v3.7c0,0.5,0.2,0.8,0.6,0.9 c0.3,0.1,0.7,0.1,1.3,0.1H61.6z"></path> <path class="st0" d="M90.7,71.8h-4.3L83.2,67h-12L68,71.8h-3.9l10.4-15.1c0.4-0.6,0.7-1,1.1-1.2c0.5-0.3,1.1-0.5,1.8-0.5 c1.2,0,2.1,0.5,2.9,1.6L90.7,71.8z M81.6,64.8L77,57.9l-4.6,6.9H81.6z"></path> <path class="st0" d="M113.2,69.4c0,0.8-0.3,1.4-1,1.9c-0.6,0.4-1.3,0.7-2.2,0.7c-1.1,0-2-0.4-2.6-1.1L96.5,58.3v13.5h-3.1V57.9 c0-0.7,0.3-1.3,1-1.8c0.6-0.5,1.4-0.7,2.2-0.7c1,0,1.8,0.3,2.4,1l11.1,12.4V55.5h3.1V69.4z"></path> <path class="st0" d="M148.5,69.4l0,2.4h-14.7c-2,0-3.3-0.2-4.1-0.7c-0.8-0.5-1.2-1.4-1.2-2.8v-9.2c0-1.3,0.4-2.2,1.1-2.8 c0.8-0.5,2.1-0.8,4.1-0.8h14.7V58h-14.7c-1.2,0-1.9,0.4-1.9,1.1v3.1h15.9l0,2.4h-15.9v3.7c0,0.5,0.2,0.8,0.6,0.9 c0.3,0.1,0.7,0.1,1.3,0.1H148.5z"></path> <path class="st0" d="M172.6,69.4c0,0.8-0.3,1.4-1,1.9c-0.6,0.4-1.3,0.7-2.2,0.7c-1.1,0-2-0.4-2.6-1.1l-10.9-12.6v13.5h-3.1V57.9 c0-0.7,0.3-1.3,1-1.8c0.6-0.5,1.4-0.7,2.2-0.7c1,0,1.8,0.3,2.4,1l11.1,12.4V55.5h3.1V69.4z"></path> <path class="st0" d="M197,69.4l0,2.4h-14.7c-2,0-3.3-0.2-4.1-0.7c-0.8-0.5-1.2-1.4-1.2-2.8v-9.2c0-1.3,0.4-2.2,1.1-2.8 c0.8-0.5,2.1-0.8,4.1-0.8h14.7V58h-14.7c-1.2,0-1.9,0.4-1.9,1.1v3.1h15.9l0,2.4h-15.9v3.7c0,0.5,0.2,0.8,0.6,0.9 c0.3,0.1,0.7,0.1,1.3,0.1H197z"></path> <path class="st0" d="M220.6,71.8h-5l-7.7-6.4c-0.4-0.4-0.7-0.8-0.7-1.3c0-0.4,0.1-0.7,0.4-1c0.3-0.3,0.7-0.4,1.2-0.4h5.9 c0.7,0,1.2-0.1,1.5-0.2c0.2-0.1,0.4-0.4,0.4-0.9v-2.4c0-0.7-0.6-1.1-1.9-1.1h-10.1v13.8h-3.4V55.5h13.5c1.9,0,3.3,0.3,4.1,0.8 c0.8,0.5,1.2,1.5,1.2,2.8c0,0.8,0,1.6,0,2.5c0,1.3-0.4,2.2-1.3,2.7c-0.8,0.5-2.1,0.7-4,0.7h-2.9L220.6,71.8z"></path> <path class="st0" d="M246.3,68.3c0,1.2-0.4,2.1-1.2,2.6c-0.8,0.6-2.1,0.9-3.9,0.9h-10.7c-1.9,0-3.3-0.3-4.1-0.9 c-0.7-0.5-1.1-1.4-1.1-2.7v-9.1c0-1.2,0.4-2.2,1.2-2.7s2.2-0.9,4.1-0.9h14.8V58h-14.9c-1.2,0-1.8,0.4-1.8,1.1v9.1 c0,0.5,0.2,0.8,0.6,1c0.2,0.1,0.7,0.1,1.3,0.1h10.6c0.6,0,1-0.1,1.3-0.2c0.4-0.1,0.5-0.5,0.5-1v-3.5H234v-2.5h12.3V68.3z"></path> <path class="st0" d="M270.4,55.5l-9,8.9v7.3h-3.4v-7.4l-8.7-8.9h4.5l6.2,6.5l6.2-6.5H270.4z"></path> </g> <g> <g> <g> <path class="st1" d="M279.6,37.7c0-20.8,16.9-37.7,37.7-37.7C338.1,0,355,16.9,355,37.7c0,20.8-16.9,37.7-37.7,37.7 C296.5,75.4,279.6,58.5,279.6,37.7"></path> </g> </g> <g> <g> <g> <path class="st2" d="M313.3,63.8c-8.5-0.3-15.9-2.9-22-7.9c-1.4-1.1-2.8-2.6-2.5-4.9c0.3-1.9,1.3-3.2,3.1-3.9 c0.6-0.2,1.2-0.4,1.8-0.4c1.1,0,2.2,0.4,3.2,1.2c4.7,3.9,9.6,6.2,15,7.1c1.2,0.2,2.5,0.3,3.8,0.3c7.7,0,15-3.6,18.5-9.3 c3.6-5.6,3.2-12.9-0.8-18.1c-3-3.9-6.9-5.8-11.4-5.8c-0.2,0-0.4,0-0.6,0c-0.8,0-1.5,0.3-2.2,0.5c-0.3,0.1-0.6,0.2-0.9,0.3 c-0.3,0.1-0.6,0.2-0.8,0.3l-0.2,0.1l0,0l0.1-0.1c0.1-0.2,0.2-0.4,0.3-0.5c2.9-3.6,7.1-5.6,11.5-5.6c3.1,0,6.1,1,8.7,2.9 c3.5,2.6,5.8,6.2,6.8,10.8c1.8,7.8,0.1,15.2-5.1,21.9C335,58.4,328.8,62,321,63.2c-2.2,0.3-4.5,0.6-6.9,0.6 C313.8,63.8,313.6,63.8,313.3,63.8"></path> </g> </g> <g> <g> <path class="st2" d="M342.5,63.1c-0.5,0-1-0.1-1.5-0.2c-1.5-0.5-2.8-2.1-2.9-3.7c-0.1-1.5,0.3-2.8,1.4-4.1 c5-6.1,7.4-12.4,7.2-19.2c-0.2-6.8-2.7-12.4-7.5-16.6c-3-2.6-6.4-3.9-9.9-3.9l-0.2,0c-7.1,0.1-12.9,4.2-15,10.6 c-0.9,2.8-0.8,5.5,0.3,7.9c0.1,0.2,0.2,0.4,0.3,0.7l0.1,0.2l-0.1,0.1c-0.1-0.1-0.3-0.2-0.4-0.3c-0.4-0.2-0.8-0.5-1.1-0.8 c-3.2-2.7-4.9-6.6-4.9-10.8c0.1-4.3,2-8.3,5.5-11.1c4.1-3.3,8.8-5,13.8-5c2.8,0,5.8,0.5,8.8,1.6c8.9,3,14.5,9.5,16.9,19.8 c2.9,12.3,0.3,23.5-7.8,33.3C344.6,62.6,343.6,63.1,342.5,63.1"></path> </g> </g> <g> <g> <path class="st2" d="M315.4,53.8c-3.6,0-7.2-0.8-10.6-2.4c-9.3-4.4-14.7-11.9-16.3-22.9c-0.8-5.3-0.5-10.4,0.9-15.2 c0.2-0.7,0.6-1.4,1.1-1.9c3.9-4,8.7-7.1,14.4-9.2c0.1,0,0.1,0,0.2,0l0,0c0.2,1.2-0.1,2.2-0.9,3.3c-4.4,5.2-6.8,10.5-7.4,16 c-0.9,9.4,2.3,16.6,9.6,21.5c2.4,1.6,5.2,2.4,8.1,2.4c6.1,0,11.6-3.5,14.1-8.8c1.6-3.5,1.7-6.7,0.5-9.7 c-0.1-0.3-0.2-0.5-0.3-0.8l0-0.2c1.4,0.5,2.4,1.6,3.3,2.7c2,2.5,3,5.4,3,9c0,3.5-1,6.5-3,9c-2.8,3.4-6.4,5.6-10.7,6.6 C319.3,53.5,317.3,53.8,315.4,53.8"></path> </g> </g> <g> <g> <path class="st2" d="M314.2,43.7c-4,0-7.4-1.4-10.3-4.3c-3.4-3.4-5.3-7.6-5.6-12.4c-0.8-11,3.9-19.7,13.8-25.8 c0.9-0.6,2.2-0.9,3.5-1c0.5,0,1,0,1.5,0c8.9,0,16.9,2.9,23.9,8.5c0.2,0.2,0.4,0.3,0.6,0.5c0,0-2.1-1-2.8-1.3 c-3.7-1.8-7.2-2.7-10.7-2.7c-0.6,0-1.2,0-1.8,0.1c-7.6,0.7-13.3,3.8-16.9,9.2c-3.6,5.4-3.6,11.1-0.2,16.7 c2.9,4.8,7.1,7.2,12.3,7.2l0.1,0c0.9,0,1.8-0.3,2.7-0.6c0.4-0.1,0.7-0.2,1.1-0.3c0.2-0.1,0.4-0.2,0.6-0.3l0.1-0.1l0,0 c0,0.1-0.1,0.2-0.1,0.3c-0.1,0.3-0.3,0.6-0.5,0.8c-2.9,3.4-6.5,5.1-10.9,5.2L314.2,43.7z"></path> </g> </g> </g> </g> <g> <g class="st3"> <g> <g> <g> <polygon class="st4" points="91.9,47 95.3,47 101.7,47 98.3,47 "></polygon> </g> </g> </g> <g> <g> <g> <polygon class="st4" points="112.8,30.8 116.3,30.8 123.1,30.8 119.7,30.8 "></polygon> </g> </g> </g> <g> <g> <g> <polygon class="st4" points="121.7,47 125.1,47 134.4,47 131,47 "></polygon> </g> </g> </g> <path class="st4" d="M118,31.5c5.5-0.2,14.3,1.4,16.1-5.4c0.7-2.9,0.2-6,0.3-8.9c0.2-9.2-7.8-8.9-14.7-8.8c0,0,0,0,0,0 c-2,0-27.4,0-28.4,0v39.2h11.1V15h17.3c3.6,0,3.6,1.7,3.6,2.3V23c-0.4,2.4-0.7,2.2-3.6,2.4c0,0-8.8,0-8.8,0h-3.4 c-3.7-0.1-5,4.8-2.2,7c0,0,16.2,15.2,16.2,15.2c2.5,0,12.5,0,14.8,0L118,31.5z"></path> </g> </g> <g> <g> <g> <path class="st2" d="M119.6,9.1c4,0,6.8,0.6,8.3,1.9c1.5,1.2,2.3,3.3,2.3,6.3c0,1.8,0,3.8,0,5.8c0,3-0.8,5-2.5,6.1 c-1.6,1.1-4.3,1.6-8.1,1.6h-6.8L131,47h-9.4l-16-15c-0.9-0.8-1.3-1.7-1.3-2.8c0-0.9,0.3-1.6,0.9-2.2c0.6-0.6,1.3-0.9,2.2-0.9 h12.2c1.6,0,2.7-0.2,3.2-0.6c0.6-0.4,0.9-1.2,1-2.4v-5.8c0-2-1.4-3-4.3-3H98.3V47h-6.4V9.1H119.6z"></path> </g> </g> </g> <path class="st4" d="M46.1,35.5c-0.1-3.4-2-6.5-4.6-8.4c0,0,0,0,0,0c-0.7-0.5-1.4-0.9-2.1-1.3h0c-0.6-0.3-1.2-0.5-1.8-0.7 c0,0,0,0,0,0h0c-2.4-0.8-5.7-0.7-8.2-0.7c0.4,0,0.8,0,1.1,0c-4.8-0.1-9.7,0.2-14.5,0c-1.5-0.1-3.1-0.3-4.2-1.4 c-1.2-1.3-1.4-3.4-0.8-5.1c0,0,0,0,0,0c0.9-2,2.7-2.9,5.1-2.9c2,0,26.3,0,27.4,0V8.4l-30.9,0C6.1,8.2,0,13.3,0,19.8 c0,7.2,4.9,11.6,12.3,11.5c0,0,16.5,0,16.5,0c2,0,3.5,0.5,4.6,1.5c2.2,1.8,2.2,5.4-0.1,7.1c-1.2,0.9-2.8,1.3-4.8,1.3 c-2,0-27.7,0-28.7,0v6.6c1.1,0,30.2-0.1,32.1-0.1C39.6,47.8,46.3,43,46.1,35.5z M31.6,24.5c0.1,0,0.2,0,0.3,0 C31.8,24.6,31.7,24.5,31.6,24.5z"></path> <g> <g> <g> <path class="st2" d="M39.6,9.1l0,5.2H12.7c-2,0-3.5,0.6-4.7,1.7c-0.9,1-1.4,2.2-1.4,3.6c0,3.6,2,5.4,5.9,5.5 c2.9,0.1,5.7,0.1,8.4,0.1c2.7,0,5.4,0,7.9-0.1c0.2,0,0.4,0,0.6,0c3.7,0,6.8,1.1,9.1,3.3c2.3,2.2,3.5,4.8,3.4,7.7 c-0.1,3.1-1.3,5.7-3.7,7.8c-2.4,2.1-5.7,3.1-9.6,3.1l-28,0l0-5.3h28c2.1,0,3.9-0.5,5.2-1.5c1.3-1,2-2.3,2-4c0-1.6-0.6-3-1.9-4.1 c-1.2-1.1-2.9-1.6-5.1-1.6H12.3c-3.9,0-7-1.1-9-3.4c-1.8-1.9-2.7-4.4-2.7-7.5c0-2.6,1-5,3-7c2.3-2.4,5.3-3.6,9-3.6H39.6z"></path> </g> </g> </g> <g> <g> <g> <path class="st4" d="M180.3,8.4v6.5h17.6v32.7H209V14.9h17.3V8.4H180.3z"></path> </g> </g> <g> <g> <g> <polygon class="st2" points="222.2,9.1 222.2,14.3 204.9,14.3 204.9,47 198.5,47 198.5,14.3 180.9,14.3 180.9,9.1 "></polygon> </g> </g> </g> </g> <g> <g> <g> <path class="st4" d="M44.3,8.4v6.5h17.6v32.7h11.1V14.9h17.3V8.4H44.3z"></path> </g> </g> <g> <g> <g> <polygon class="st2" points="86.3,9.1 86.3,14.3 69,14.3 69,47 62.6,47 62.6,14.3 45,14.3 45,9.1 "></polygon> </g> </g> </g> </g> <g> <g> <g> <g> <polygon class="st4" points="182.9,47 186.3,47 194.4,47 191,47 "></polygon> </g> </g> </g> <path class="st4" d="M174.4,11.3c-2-3.9-5.7-4.3-9.7-4c0.1,0,0.2,0,0.3,0c-3.3-0.1-4.7,1.2-6.5,4.1c0,0-21.9,36.2-21.9,36.2 c2.4,0,10,0,12.3,0l6.7-11.3h21.2l6.8,11.3c2.5,0,10.8,0,13.1,0L174.4,11.3z M159,30.5l7.2-12.5l7.3,12.5H159z"></path> <g> <g> <g> <path class="st2" d="M170.4,11.6L192,47h-8.1l-6.8-11.3h-25.3L145.1,47h-7.3l21.3-35.2c0.8-1.3,1.5-2.2,2.1-2.7 c0.9-0.7,2.1-1.1,3.5-1.1C167,8,168.9,9.2,170.4,11.6z M154.4,31.1h20.2l-10.1-17.4L154.4,31.1"></path> </g> </g> </g> </g> <g> <g> <g> <g> <polygon class="st4" points="256.7,47 260.2,47 268.3,47 264.9,47 "></polygon> </g> </g> </g> <path class="st4" d="M248.3,11.3c-2.4-4.1-5.4-4.2-9.7-4c0.1,0,0.2,0,0.3,0c-3.3-0.1-4.7,1.2-6.5,4.1c0,0-21.9,36.2-21.9,36.2 c2.4,0,10,0,12.3,0l6.7-11.3h21.2l6.8,11.3c2.5,0,10.8,0,13.1,0L248.3,11.3z M232.9,30.5l7.2-12.5l7.3,12.5H232.9z"></path> <g> <g> <g> <path class="st2" d="M244.3,11.6L265.9,47h-8.1L251,35.7h-25.3L219,47h-7.3l21.3-35.2c0.8-1.3,1.5-2.2,2.1-2.7 c0.9-0.7,2.1-1.1,3.5-1.1C240.9,8,242.8,9.2,244.3,11.6z M228.3,31.1h20.2l-10.1-17.4L228.3,31.1"></path> </g> </g> </g> </g> <g> <path class="st2" d="M256.8,10.9c0,1.5-1.2,2.6-2.7,2.6c-1.5,0-2.7-1.2-2.7-2.6c0-1.4,1.2-2.6,2.7-2.6 C255.6,8.3,256.8,9.4,256.8,10.9z M252.1,10.9c0,1.2,0.9,2.1,2,2.1c1.1,0,2-0.9,2-2.1c0-1.2-0.8-2.1-2-2.1 C253,8.8,252.1,9.7,252.1,10.9z M253.7,12.2h-0.6V9.6c0.2,0,0.6-0.1,1-0.1c0.5,0,0.7,0.1,0.9,0.2c0.1,0.1,0.3,0.3,0.3,0.6 c0,0.3-0.2,0.5-0.5,0.6v0c0.3,0.1,0.4,0.3,0.5,0.6c0.1,0.4,0.1,0.6,0.2,0.6h-0.6c-0.1-0.1-0.1-0.3-0.2-0.6c0-0.3-0.2-0.4-0.5-0.4 h-0.3V12.2z M253.7,10.8h0.3c0.3,0,0.6-0.1,0.6-0.4c0-0.2-0.2-0.4-0.6-0.4c-0.2,0-0.3,0-0.3,0V10.8z"></path> </g> </g> </svg> 