<svg xmlns="http://www.w3.org/2000/svg" viewBox="0 0 220 90">
            <path d="M124.85,33.73v7.66h-1.31c-1.33-5.48-2.2-6.21-6.73-6.21h-5V47c6.23-.09,7.2-1.08,7.37-4.6h1.43V53H119.2c-.17-3.49-1.14-4.5-7.37-4.54V61.87h.82c9.64,0,10.74-2.24,11.45-7.44h1.44l-.74,8.89H103.55V61.87h3.77V35.18h-3.77V33.73Z"/>
            <path d="M86.92,62.51a26.43,26.43,0,0,1-8,.82H68.54V61.87H72.3V35.18H68.54V33.73H79a26.43,26.43,0,0,1,8,.82c5.84,1.74,8.85,6.46,8.85,14S92.76,60.77,86.92,62.51Zm-1-26.3c-1.92-.9-4.75-1-6.92-1H76.81V61.87H79c2.17,0,5-.12,6.92-1,3.44-1.61,4.9-5.25,4.9-12.33S89.32,37.81,85.88,36.21Z"/>
            <path d="M153,34.69a19.75,19.75,0,0,0-7.46-1.35c-6.21,0-9.76,3-9.76,7.74,0,4.23,2.28,6.4,6.23,8,0,0,.65.3,4,1.69s4.18,3.28,4.18,6c0,3.52-2,5.48-5.73,5.48s-6.77-2.78-7.91-7.79h-1.27L136,62.2a18.47,18.47,0,0,0,7.83,1.57c6.36,0,10.59-3.26,10.59-8.88,0-4.74-2.58-6.64-6.55-8.24,0,0-2.6-1.06-3.91-1.61-2.71-1.1-4-2.5-4-5.49s2.22-4.7,5.05-4.7c3.68,0,5.75,2.25,6.59,6.59H153Z"/>
            <path d="M183.47,56.43c-.5-3.8-1.77-6.93-6.34-8v-.09c4-.77,6.93-3.22,6.93-7.3s-2-7.29-9.43-7.29H161.55v1.45h3.78V61.87h-3.78v1.45h12V61.87h-3.77V49.18h2.73c2.63,0,4.76.82,5.53,3.9.31,1.22.81,4.58,1.27,6.53.63,2.76,2.31,3.71,4.94,3.71h3.58v-1.4C184.56,61.56,183.88,59.33,183.47,56.43ZM173,47.6h-3.14V35.18h2.73c3.13,0,6.66.58,6.66,6.24C179.21,45.87,177.13,47.6,173,47.6Z"/>
            <path d="M204.42,41.65a19.28,19.28,0,0,1-1.45-2h0c-1-1.7-.73-4-.18-5.93h-2.88V61.87h-3.77v1.46h12V61.87h-3.76Z"/>
            <path d="M192.7,26c-2.57,0-17.35,3.16-23.19,4.43a.32.32,0,0,0,.06.63c9.91.43,19.64.5,29.08.06a.32.32,0,0,0,.24-.51C198,29.29,195.32,26,192.7,26Z"/>
            <path d="M204,39.07c1.28,2.23,11.41,13.45,15.43,17.87a.32.32,0,0,0,.52-.36c-4.59-8.8-9.38-17.26-14.49-25.22a.32.32,0,0,0-.56.05C204.27,32.83,202.72,36.8,204,39.07Z"/>
            <path d="M209.72,22.72c1.29-2.23,5.95-16.61,7.76-22.3a.32.32,0,0,0-.57-.27c-5.33,8.37-10.26,16.76-14.59,25.16a.32.32,0,0,0,.32.46C204.19,25.61,208.4,25,209.72,22.72Z"/>
            <circle cx="202.14" cy="29.25" r="2.74"/>
            <polygon points="29.01 33.72 24.73 33.72 21.66 40.32 25.94 40.32 29.01 33.72"/>
            <polygon points="23.55 33.72 19.27 33.72 16.19 40.32 20.47 40.32 23.55 33.72"/>
            <polygon points="18.08 33.72 13.8 33.72 10.73 40.32 15.01 40.32 18.08 33.72"/>
            <polygon points="25.43 41.39 21.16 41.39 18.08 47.99 22.36 47.99 25.43 41.39"/>
            <polygon points="19.97 41.39 15.69 41.39 12.62 47.99 16.89 47.99 19.97 41.39"/>
            <polygon points="14.5 41.39 10.23 41.39 7.15 47.99 11.43 47.99 14.5 41.39"/>
            <polygon points="21.86 49.06 17.58 49.06 14.51 55.66 18.78 55.66 21.86 49.06"/>
            <polygon points="16.39 49.06 12.12 49.06 9.04 55.66 13.32 55.66 16.39 49.06"/>
            <polygon points="10.93 49.06 6.65 49.06 3.58 55.66 7.85 55.66 10.93 49.06"/>
            <polygon points="46.37 33.72 42.09 33.72 39.02 40.32 43.3 40.32 46.37 33.72"/>
            <polygon points="40.91 33.72 36.63 33.72 33.55 40.32 37.83 40.32 40.91 33.72"/>
            <polygon points="35.44 33.72 31.16 33.72 28.09 40.32 32.37 40.32 35.44 33.72"/>
            <polygon points="42.8 41.39 38.52 41.39 35.44 47.99 39.72 47.99 42.8 41.39"/>
            <polygon points="37.33 41.39 33.05 41.39 29.98 47.99 34.26 47.99 37.33 41.39"/>
            <polygon points="31.86 41.39 27.59 41.39 24.51 47.99 28.79 47.99 31.86 41.39"/>
            <polygon points="39.22 49.06 34.94 49.06 31.87 55.66 36.14 55.66 39.22 49.06"/>
            <polygon points="33.75 49.06 29.48 49.06 26.4 55.66 30.68 55.66 33.75 49.06"/>
            <polygon points="28.29 49.06 24.01 49.06 20.94 55.66 25.21 55.66 28.29 49.06"/>
            <polygon points="63.73 33.72 59.46 33.72 56.38 40.32 60.66 40.32 63.73 33.72"/>
            <polygon points="58.27 33.72 53.99 33.72 50.92 40.32 55.19 40.32 58.27 33.72"/>
            <polygon points="52.8 33.72 48.52 33.72 45.45 40.32 49.73 40.32 52.8 33.72"/>
            <polygon points="60.16 41.39 55.88 41.39 52.8 47.99 57.08 47.99 60.16 41.39"/>
            <polygon points="54.69 41.39 50.41 41.39 47.34 47.99 51.62 47.99 54.69 41.39"/>
            <polygon points="49.23 41.39 44.95 41.39 41.88 47.99 46.15 47.99 49.23 41.39"/>
            <polygon points="56.58 49.06 52.3 49.06 49.23 55.66 53.51 55.66 56.58 49.06"/>
            <polygon points="51.11 49.06 46.84 49.06 43.76 55.66 48.04 55.66 51.11 49.06"/>
            <polygon points="45.65 49.06 41.37 49.06 38.3 55.66 42.58 55.66 45.65 49.06"/>
            <polygon points="18.28 56.73 14 56.73 10.93 63.33 15.21 63.33 18.28 56.73"/>
            <polygon points="12.82 56.73 8.54 56.73 5.46 63.33 9.74 63.33 12.82 56.73"/>
            <polygon points="7.35 56.73 3.07 56.73 0 63.33 4.28 63.33 7.35 56.73"/>
            <polygon points="35.64 56.73 31.36 56.73 28.29 63.33 32.57 63.33 35.64 56.73"/>
            <polygon points="30.18 56.73 25.9 56.73 22.83 63.33 27.1 63.33 30.18 56.73"/>
            <polygon points="24.71 56.73 20.43 56.73 17.36 63.33 21.64 63.33 24.71 56.73"/>
            <polygon points="53 56.73 48.73 56.73 45.65 63.33 49.93 63.33 53 56.73"/>
            <polygon points="47.54 56.73 43.26 56.73 40.19 63.33 44.46 63.33 47.54 56.73"/>
            <polygon points="42.07 56.73 37.8 56.73 34.72 63.33 39 63.33 42.07 56.73"/>
</svg>