<?xml version="1.0" encoding="UTF-8" standalone="no"?>
<svg
   id="_图层_1"
   data-name="图层 1"
   viewBox="0 0 801.60149 51.259997"
   version="1.1"
   sodipodi:docname="Logo - CLEANAMPS ENERGY 3.svg"
   width="801.6015"
   height="51.259998"
   inkscape:version="1.3.2 (091e20e, 2023-11-25, custom)"
   xmlns:inkscape="http://www.inkscape.org/namespaces/inkscape"
   xmlns:sodipodi="http://sodipodi.sourceforge.net/DTD/sodipodi-0.dtd"
   xmlns="http://www.w3.org/2000/svg"
   xmlns:svg="http://www.w3.org/2000/svg">
  <sodipodi:namedview
     id="namedview15"
     pagecolor="#ffffff"
     bordercolor="#000000"
     borderopacity="0.25"
     inkscape:showpageshadow="2"
     inkscape:pageopacity="0.0"
     inkscape:pagecheckerboard="0"
     inkscape:deskcolor="#d1d1d1"
     inkscape:zoom="1.0124766"
     inkscape:cx="400.00924"
     inkscape:cy="25.185767"
     inkscape:window-width="1920"
     inkscape:window-height="1057"
     inkscape:window-x="1912"
     inkscape:window-y="-8"
     inkscape:window-maximized="1"
     inkscape:current-layer="_图层_1" />
  <defs
     id="defs1">
    <style
       id="style1">
      .cls-1 {
        fill: #00aba5;
        stroke-width: 0px;
      }
    </style>
  </defs>
  <g
     id="g14"
     transform="translate(-24.398474,-399.57)">
    <path
       class="cls-1"
       d="m 27.29,449.57 c -0.7,-0.29 -1.29,-0.7 -1.78,-1.22 -0.49,-0.52 -0.83,-1.14 -1,-1.87 -0.17,-0.72 -0.15,-1.49 0.09,-2.3 l 5.83,-43.4 h 52.62 l -7.3,8.35 H 45.47 l -4.18,32.53 h 32.53 l 4.18,-3.31 -1.65,11.66 h -46.8 c -0.81,0 -1.57,-0.14 -2.26,-0.44 z"
       id="path1" />
    <path
       class="cls-1"
       d="m 106.22,411.86 -4.51,31.67 h 25.2 L 122.64,450 H 92.68 c -1.3,0 -2.28,-0.43 -2.93,-1.28 -0.65,-0.85 -0.98,-1.93 -0.98,-3.23 l 3.91,-31.06 -1.95,-2.56 h 15.5 z"
       id="path2" />
    <path
       class="cls-1"
       d="m 172.06,411.86 -3.46,6.47 h -18.51 l -1.28,8.36 h 20.01 l -3.28,6.47 h -18.08 l -1.28,10.38 h 22.64 l -4,6.47 h -32.86 l 5.19,-35.58 -1.95,-2.56 h 36.86 z"
       id="path3" />
    <path
       class="cls-1"
       d="m 217.14,411.86 5.12,38.14 h -11.59 l -1.35,-10.38 H 193.15 L 188.64,450 h -10.98 l 14.89,-36.25 -1.95,-1.89 h 26.55 z m -14.89,6.47 -9.1,21.29 15.57,-6.47 -1.95,-14.82 h -4.51 z"
       id="path4" />
    <path
       class="cls-1"
       d="m 246.32,411.86 13.54,23.92 3.23,-23.92 h 11.05 L 268.95,450 H 256.01 L 243.07,426.68 239.84,450 h -11.66 l 5.19,-35.58 -2.63,-2.56 h 15.57 z"
       id="path5" />
    <path
       class="cls-1"
       d="m 361.23,411.86 7.14,23.92 13.54,-23.92 h 13.61 L 390.33,450 h -11.66 l 3.23,-20.08 -10.31,17.52 H 361.21 L 356.02,430.59 353.46,450 H 341.8 l 5.19,-35.58 -2.63,-2.56 h 16.85 z"
       id="path6" />
    <path
       class="cls-1"
       d="m 446.21,411.86 -2.56,20.69 c -0.36,1.3 -1.07,2.38 -2.12,3.23 -1.06,0.85 -2.08,1.28 -3.07,1.28 H 415.82 L 413.87,450 h -12.26 l 4.52,-36.25 -1.95,-1.89 h 42.05 z m -27.76,6.47 -2.63,18.73 14.89,-6.47 1.95,-12.26 h -14.22 z"
       id="path7" />
    <path
       class="cls-1"
       d="m 478.48,442.25 1.28,-7.75 h -25.88 l 3.23,-22.64 h 38.14 l -1.28,10.98 h -12.94 l 0.67,-4.52 h -12.33 l -1.95,9.7 h 25.88 l -2.56,17.45 c 0,0.63 -0.15,1.22 -0.44,1.79 -0.29,0.56 -0.68,1.04 -1.18,1.45 -0.49,0.4 -1.04,0.72 -1.65,0.94 -0.61,0.23 -1.25,0.34 -1.92,0.34 h -33.63 l 1.28,-10.38 1.95,2.63 h 23.32 z"
       id="path8" />
    <path
       class="cls-1"
       d="m 576.68,399.81 -7.04,8.51 h -21.87 l -1.68,11 h 26.34 l -7.41,8.51 h -20.7 l -1.68,13.66 h 29.8 l -5.98,8.51 h -42.52 l 6.83,-46.82 -2.57,-3.37 h 48.51 z"
       id="path9" />
    <path
       class="cls-1"
       d="m 600.53,411.86 13.54,23.92 3.23,-23.92 h 11.05 L 623.16,450 H 610.22 L 597.28,426.68 594.05,450 h -11.66 l 5.19,-35.58 -2.63,-2.56 h 15.57 z"
       id="path10" />
    <path
       class="cls-1"
       d="m 674.52,411.86 -5.61,6.47 h -16.36 l -1.28,8.36 h 20.01 l -5.04,6.47 h -16.32 l -1.28,10.38 h 22.64 l -5.04,6.47 h -31.82 l 5.19,-35.58 -1.95,-2.56 h 36.86 z"
       id="path11" />
    <path
       class="cls-1"
       d="m 724.86,411.86 -2.56,19.41 c 0,0.63 -0.15,1.22 -0.44,1.79 -0.29,0.56 -0.68,1.04 -1.18,1.45 -0.49,0.4 -1.04,0.72 -1.65,0.94 -0.61,0.23 -1.25,0.34 -1.92,0.34 h -8.42 l 13.61,14.22 h -14.22 l -12.94,-14.22 -1.95,14.22 h -12.94 l 4.52,-35.58 -1.95,-2.56 h 42.05 z m -27.76,6.47 -1.95,17.45 14.89,-6.47 1.28,-10.98 z"
       id="path12" />
    <path
       class="cls-1"
       d="m 775.06,418.33 -12.94,4.52 0.61,-4.52 h -15.5 l -3.23,25.2 h 15.5 l 0.67,-7.75 -5.6,-3.24 19.61,-7.02 -3.03,24.48 H 734.9 c -0.63,0 -1.21,-0.11 -1.75,-0.34 -0.54,-0.22 -1,-0.54 -1.38,-0.94 -0.38,-0.4 -0.64,-0.89 -0.78,-1.45 -0.13,-0.56 -0.11,-1.16 0.07,-1.79 l 4.51,-33.63 h 40.77 l -1.28,6.47 z"
       id="path13" />
    <path
       class="cls-1"
       d="m 811.78,413.14 -1.28,-1.28 H 826 l -18.73,22.64 -1.95,15.5 h -12.94 l 1.95,-15.5 -10.98,-20.75 -1.95,-1.89 h 13.61 l 7.08,14.22 9.7,-12.94 z"
       id="path14" />
  </g>
  <path
     class="cls-1"
     d="m 309.34153,45.08 -5.42,-40.36 c -0.36,-2.7 -2.67,-4.72 -5.4,-4.72 h -30.92 l 2.62,2.54 -16.93,41.2 c -1.47,3.58 1.16,7.52 5.04,7.52 h 12.43 l 9.42,-17.32 -10.34,-0.04 21.84,-24.88 -6.49,19 10.45,0.04 -13.11,23.2 h 21.4 c 3.3,0 5.84,-2.91 5.4,-6.17 z"
     id="path15" />
</svg>
