<?xml version="1.0" encoding="UTF-8"?>
<svg id="Inverted_Colors" xmlns="http://www.w3.org/2000/svg" version="1.1" viewBox="0 0 715.5 106.7"><metadata><c2pa:manifest xmlns:c2pa="http://c2pa.org/manifest">AAA0RGp1bWIAAAAeanVtZGMycGEAEQAQgAAAqgA4m3EDYzJwYQAAADQeanVtYgAAAEdqdW1kYzJtYQARABCAAACqADibcQN1cm46dXVpZDpiZjQ3NmRhYS05ODM0LTQ4YjAtYWEwOS1kZjY0MjVjNzJiMDUAAAABtGp1bWIAAAApanVtZGMyYXMAEQAQgAAAqgA4m3EDYzJwYS5hc3NlcnRpb25zAAAAANdqdW1iAAAAJmp1bWRjYm9yABEAEIAAAKoAOJtxA2MycGEuYWN0aW9ucwAAAACpY2JvcqFnYWN0aW9uc4GjZmFjdGlvbmtjMnBhLmVkaXRlZG1zb2Z0d2FyZUFnZW50bUFkb2JlIEZpcmVmbHlxZGlnaXRhbFNvdXJjZVR5cGV4U2h0dHA6Ly9jdi5pcHRjLm9yZy9uZXdzY29kZXMvZGlnaXRhbHNvdXJjZXR5cGUvY29tcG9zaXRlV2l0aFRyYWluZWRBbGdvcml0aG1pY01lZGlhAAAArGp1bWIAAAAoanVtZGNib3IAEQAQgAAAqgA4m3EDYzJwYS5oYXNoLmRhdGEAAAAAfGNib3KlamV4Y2x1c2lvbnOBomVzdGFydBjLZmxlbmd0aBlFsGRuYW1lbmp1bWJmIG1hbmlmZXN0Y2FsZ2ZzaGEyNTZkaGFzaFggBtYVaiwNJ94lHR88hgv7xl0pej/YuDGMWCdEqPTQ27hjcGFkSQAAAAAAAAAAAAAAAgtqdW1iAAAAJGp1bWRjMmNsABEAEIAAAKoAOJtxA2MycGEuY2xhaW0AAAAB32Nib3KoaGRjOnRpdGxlb0dlbmVyYXRlZCBJbWFnZWlkYzpmb3JtYXRtaW1hZ2Uvc3ZnK3htbGppbnN0YW5jZUlEeCx4bXA6aWlkOjU0ZWVmOGE5LTc4ZDItNDJlNi05MDk3LTVkZThlMThhZmVmZW9jbGFpbV9nZW5lcmF0b3J4NkFkb2JlX0lsbHVzdHJhdG9yLzI5LjEgYWRvYmVfYzJwYS8wLjcuNiBjMnBhLXJzLzAuMjUuMnRjbGFpbV9nZW5lcmF0b3JfaW5mb4G/ZG5hbWVxQWRvYmUgSWxsdXN0cmF0b3JndmVyc2lvbmQyOS4x/2lzaWduYXR1cmV4GXNlbGYjanVtYmY9YzJwYS5zaWduYXR1cmVqYXNzZXJ0aW9uc4KiY3VybHgnc2VsZiNqdW1iZj1jMnBhLmFzc2VydGlvbnMvYzJwYS5hY3Rpb25zZGhhc2hYIEppwb3/qN5BMHi+JO3M+DE6wdFklTRWcaANawazN9SvomN1cmx4KXNlbGYjanVtYmY9YzJwYS5hc3NlcnRpb25zL2MycGEuaGFzaC5kYXRhZGhhc2hYID+KAKNBPpCTV3swN1s5fE6yXv9GCb4L64DuZt0LLZ2tY2FsZ2ZzaGEyNTYAADAQanVtYgAAAChqdW1kYzJjcwARABCAAACqADibcQNjMnBhLnNpZ25hdHVyZQAAAC/gY2JvctKEWQzvogE4JBghglkGPTCCBjkwggQhoAMCAQICEBWN/yesI9K4JUtOYzceHZ4wDQYJKoZIhvcNAQELBQAwdTELMAkGA1UEBhMCVVMxIzAhBgNVBAoTGkFkb2JlIFN5c3RlbXMgSW5jb3Jwb3JhdGVkMR0wGwYDVQQLExRBZG9iZSBUcnVzdCBTZXJ2aWNlczEiMCAGA1UEAxMZQWRvYmUgUHJvZHVjdCBTZXJ2aWNlcyBHMzAeFw0yNDEwMTUwMDAwMDBaFw0yNTEwMTUyMzU5NTlaMIGrMRMwEQYDVQQDDApBZG9iZSBDMlBBMSgwJgYDVQQLDB9Db250ZW50IEF1dGhlbnRpY2l0eSBJbml0aWF0aXZlMRMwEQYDVQQKDApBZG9iZSBJbmMuMREwDwYDVQQHDAhTYW4gSm9zZTETMBEGA1UECAwKQ2FsaWZvcm5pYTELMAkGA1UEBhMCVVMxIDAeBgkqhkiG9w0BCQEWEWNhaS1vcHNAYWRvYmUuY29tMIIBIjANBgkqhkiG9w0BAQEFAAOCAQ8AMIIBCgKCAQEAwxDBgdB9PXLpMXPw5oNgYkFWDPP1aSfth9TZPINOtOQlhp1v4h+hMxZWFjkZ3RJRuoSBrsSSYBaEfiDMKisi/sOxuFHKBV//l1rv3SrjrixANXIlqjGdIYydaMaFa/5ovFz/m4+SUz0ccYzqw+vSAzuRySGnpgm8Gmj+SEJcL/GIHzqU9bUy3NsizY2oY28yj32rbkOqeADSM51OqIJKloEBFFexzMunzpU+K2sLqheoR8FJMaR0fGXa/gqRzhkiBFhwUhLPS9s6+TCnz09UZMlXbdG/iFKj3UPFUDjqh0wtFgcz24DrUlaWeiltKHouymBHuirzvmOG0VtSPepxOQIDAQABo4IBjDCCAYgwDAYDVR0TAQH/BAIwADAOBgNVHQ8BAf8EBAMCB4AwHgYDVR0lBBcwFQYJKoZIhvcvAQEMBggrBgEFBQcDBDCBjgYDVR0gBIGGMIGDMIGABgkqhkiG9y8BAgMwczBxBggrBgEFBQcCAjBlDGNZb3UgYXJlIG5vdCBwZXJtaXR0ZWQgdG8gdXNlIHRoaXMgTGljZW5zZSBDZXJ0aWZpY2F0ZSBleGNlcHQgYXMgcGVybWl0dGVkIGJ5IHRoZSBsaWNlbnNlIGFncmVlbWVudC4wXQYDVR0fBFYwVDBSoFCgToZMaHR0cDovL3BraS1jcmwuc3ltYXV0aC5jb20vY2FfN2E1YzNhMGM3MzExNzQwNmFkZDE5MzEyYmMxYmMyM2YvTGF0ZXN0Q1JMLmNybDA3BggrBgEFBQcBAQQrMCkwJwYIKwYBBQUHMAGGG2h0dHA6Ly9wa2ktb2NzcC5zeW1hdXRoLmNvbTAfBgNVHSMEGDAWgBRXKXoyTcz+5DVOwB8kc85zU6vfajANBgkqhkiG9w0BAQsFAAOCAgEAqrl6FLQ+c9LYaf0igyTgErNL9XmmieiT3ohKFevJ3BN7kWkZD1znbVw3XnX5tgQaKq+AiSCldNxYEKqU+Rq9Lr26GGglBSA0s/Ds2kw+2LlnTmojAHCH3CvVRbhGHHrashmnfgwmF1TSkaWk7NxEhbt9wQoiEMkLSQeM4S4Cu+176FzEdy+zzkDkRWqeSOQO/qG2WRto/vIq30ECf6v6FtazJI1CWIqhBK5oJioSNbLsCVJhar3Uca9D11ujeZW4k2jPCsnzriTmFqVftd3k2SXUQg7wQcQcXfKBItWZt8ztn0IYoZzJa1x9l9dvXKAJvNsDoz4uDerS8z9rzLsEQvzL1yPbTp4+/6mTTAWsoaDtmkZgm3X+sffPX3XzMFmfzIHiYfUja5nKK2bs4P71tit/1U/FD2xdlpzZSupRqCMGz+UTeXI8IrN5ZR/+F8rSsmRAStjnggz/wDucwcDlJbY4/RKq3BrAi4LamLMIfwo/dbL55TDlIOd7HCfmSgabc1WO0Kji3LW/VZnP9VG8WiUG+WqtN1OQIAZmFUOWdXQGLag+I1OaZ1BXJDNsJiXcg2TGNBSEPo44Akfn9MzFGKyB5UurMN4NH0qlamhrhKiV0+b73Fjx330P/frxBmzx5NpAQhNKksx+F4z1S8Ay1o2TBIkkeAFbDzy8f/FxuytZBqUwggahMIIEiaADAgECAhAMqLZUe4nm0gaJdc2Lm4niMA0GCSqGSIb3DQEBCwUAMGwxCzAJBgNVBAYTAlVTMSMwIQYDVQQKExpBZG9iZSBTeXN0ZW1zIEluY29ycG9yYXRlZDEdMBsGA1UECxMUQWRvYmUgVHJ1c3QgU2VydmljZXMxGTAXBgNVBAMTEEFkb2JlIFJvb3QgQ0EgRzIwHhcNMTYxMTI5MDAwMDAwWhcNNDExMTI4MjM1OTU5WjB1MQswCQYDVQQGEwJVUzEjMCEGA1UEChMaQWRvYmUgU3lzdGVtcyBJbmNvcnBvcmF0ZWQxHTAbBgNVBAsTFEFkb2JlIFRydXN0IFNlcnZpY2VzMSIwIAYDVQQDExlBZG9iZSBQcm9kdWN0IFNlcnZpY2VzIEczMIICIjANBgkqhkiG9w0BAQEFAAOCAg8AMIICCgKCAgEAtx8uvb0Js1xIbP4Mg65sAepReCWkgD6Jp7GyiGTa9ol2gfn5HfOV/HiYjZiOz+TuHFU+DXNad86xEqgVeGVMlvIHGe/EHcKBxvEDXdlTXB5zIEkfl0/SGn7J6vTX8MNybfSi95eQDUOZ9fjCaq+PBFjS5ZfeNmzi/yR+MsA0jKKoWarSRCFFFBpUFQWfAgLyXOyxOnXQOQudjxNj6Wu0X0IB13+IH11WcKcWEWXM4j4jh6hLy29Cd3EoVG3oxcVenMF/EMgD2tXjx4NUbTNB1/g9+MR6Nw5Mhp5k/g3atNExAxhtugC+T3SDShSEJfs2quiiRUHtX3RhOcK1s1OJgT5s2s9xGy5/uxVpcAIaK2KiDJXW3xxN8nXPmk1NSVu/mxtfapr4TvSJbhrU7UA3qhQY9n4On2sbH1X1Tw+7LTek8KCA5ZDghOERPiIp/Jt893qov1bE5rJkagcVg0Wqjh89NhCaBA8VyRt3ovlGyCKdNV2UL3bn5vdFsTk7qqmp9makz1/SuVXYxIf6L6+8RXOatXWaPkmucuLE1TPOeP7S1N5JToFCs80l2D2EtxoQXGCR48K/cTUR5zV/fQ+hdIOzoo0nFn77Y8Ydd2k7/x9BE78pmoeMnw6VXYfXCuWEgj6p7jpbLoxQMoWMCVzlg72WVNhJFlSw4aD8fc6ezeECAwEAAaOCATQwggEwMBIGA1UdEwEB/wQIMAYBAf8CAQAwNQYDVR0fBC4wLDAqoCigJoYkaHR0cDovL2NybC5hZG9iZS5jb20vYWRvYmVyb290ZzIuY3JsMA4GA1UdDwEB/wQEAwIBBjAUBgNVHSUEDTALBgkqhkiG9y8BAQcwVwYDVR0gBFAwTjBMBgkqhkiG9y8BAgMwPzA9BggrBgEFBQcCARYxaHR0cHM6Ly93d3cuYWRvYmUuY29tL21pc2MvcGtpL3Byb2Rfc3ZjZV9jcHMuaHRtbDAkBgNVHREEHTAbpBkwFzEVMBMGA1UEAxMMU1lNQy00MDk2LTMzMB0GA1UdDgQWBBRXKXoyTcz+5DVOwB8kc85zU6vfajAfBgNVHSMEGDAWgBSmHOFtVCRMqI9Icr9uqYzV5Owx1DANBgkqhkiG9w0BAQsFAAOCAgEAcc7lB4ym3C3cyOA7ZV4AkoGV65UgJK+faThdyXzxuNqlTQBlOyXBGFyevlm33BsGO1mDJfozuyLyT2+7IVxWFvW5yYMV+5S1NeChMXIZnCzWNXnuiIQSdmPD82TEVCkneQpFET4NDwSxo8/ykfw6Hx8fhuKz0wjhjkWMXmK3dNZXIuYVcbynHLyJOzA+vWU3sH2T0jPtFp7FN39GZne4YG0aVMlnHhtHhxaXVCiv2RVoR4w1QtvKHQpzfPObR53Cl74iLStGVFKPwCLYRSpYRF7J6vVS/XxW4LzvN2b6VEKOcvJmN3LhpxFRl3YYzW+dwnwtbuHW6WJlmjffbLm1MxLFGlG95aCz31X8wzqYNsvb9+5AXcv8Ll69tLXmO1OtsY/3wILNUEp4VLZTE3wqm3n8hMnClZiiKyZCS7L4E0mClbx+BRSMH3eVo6jgve41/fK3FQM4QCNIkpGs7FjjLy+ptC+JyyWqcfvORrFV/GOgB5hD+G5ghJcIpeigD/lHsCRYsOa5sFdqREhwIWLmSWtNwfLZdJ3dkCc7yRpm3gal6qRfTkYpxTNxxKyvKbkaJDoxR9vtWrC3iNrQd9VvxC3TXtuzoHbqumeqgcAqefWF9u6snQ4Q9FkXzeuJArNuSvPIhgBjVtggH0w0vm/lmCQYiC/Y12GeCxfgYlL33buiZnNpZ1RzdKFpdHN0VG9rZW5zgaFjdmFsWQ47MIIONzADAgEAMIIOLgYJKoZIhvcNAQcCoIIOHzCCDhsCAQMxDzANBglghkgBZQMEAgEFADCBgwYLKoZIhvcNAQkQAQSgdARyMHACAQEGCWCGSAGG/WwHATAxMA0GCWCGSAFlAwQCAQUABCDhBKE/tj8FH3xvf0y132CMQxLPveJOQ1G1t6OYMqdHywIRALwqlYFCp6/Jil8iY4Rn8wwYDzIwMjQxMjEyMTQ1NTE5WgIJALbmOF2uWp2OoIILwDCCBQowggLyoAMCAQICEAwLL8d6eM+67WVWVMGaJAMwDQYJKoZIhvcNAQELBQAwYzELMAkGA1UEBhMCVVMxFzAVBgNVBAoTDkRpZ2lDZXJ0LCBJbmMuMTswOQYDVQQDEzJEaWdpQ2VydCBUcnVzdGVkIEc0IFJTQTQwOTYgU0hBMjU2IFRpbWVTdGFtcGluZyBDQTAeFw0yNDExMjAwMDAwMDBaFw0zNjAyMTkyMzU5NTlaMFsxCzAJBgNVBAYTAlVTMREwDwYDVQQKEwhEaWdpQ2VydDE5MDcGA1UEAxMwRUNDMjU2X1NIQTI1Nl9UaW1lc3RhbXBfUmVzcG9uZGVyX0Fkb2JlX05PVl8yMDI0MFkwEwYHKoZIzj0CAQYIKoZIzj0DAQcDQgAE0PwehfiBmKYqkEC8Tn6pFJnk5kkVmc8UgrcDPNrIlv0m12s5LUchFpsCFbPvDyY4VfQuH1CdtyBkcbH8yTPJXqOCAYswggGHMA4GA1UdDwEB/wQEAwIHgDAMBgNVHRMBAf8EAjAAMBYGA1UdJQEB/wQMMAoGCCsGAQUFBwMIMCAGA1UdIAQZMBcwCAYGZ4EMAQQCMAsGCWCGSAGG/WwHATAfBgNVHSMEGDAWgBS6FtltTYUvcyl2mi91jGogj57IbzAdBgNVHQ4EFgQU7NEcb3znoE3kMT+HAAjUrdR9NrswWgYDVR0fBFMwUTBPoE2gS4ZJaHR0cDovL2NybDMuZGlnaWNlcnQuY29tL0RpZ2lDZXJ0VHJ1c3RlZEc0UlNBNDA5NlNIQTI1NlRpbWVTdGFtcGluZ0NBLmNybDCBkAYIKwYBBQUHAQEEgYMwgYAwJAYIKwYBBQUHMAGGGGh0dHA6Ly9vY3NwLmRpZ2ljZXJ0LmNvbTBYBggrBgEFBQcwAoZMaHR0cDovL2NhY2VydHMuZGlnaWNlcnQuY29tL0RpZ2lDZXJ0VHJ1c3RlZEc0UlNBNDA5NlNIQTI1NlRpbWVTdGFtcGluZ0NBLmNydDANBgkqhkiG9w0BAQsFAAOCAgEAouzBIPJ5Ly2riyO3AI9tQ4JzBK4dJp7QreHOLbFvciUGXWb9Z/BNXbnmsm+iImfJmGpmyJq03rlSsBqlEiE2U4lYbRUT980Q/Q6RZPhMeD9NdCErR/3g9ZYCum1X2mNIL83CEUD9wsCM6gWQBPNXOUCDYz7PNXLySzhSnf3F+8zoaEL684jQ8teVDU+X7lEXtn4qADULETWDplVwHYNkyuzpLWA/hB/w/IFq+5x0IUSTLg+eBjY4mZzT52F8+hd4+wbtmlZYq70BgALK1tuy6oYPZLFufmi/oPf5cqkaDK1i0suCg0Gs7TwfjyrJHnDtUe3WyW8O1ARVZfhmxmlHOMeh71SzTS+YR44i63/QOM8XudnvWaqUlO5A7u3bEV75vriyzF4xxUsf49LLSHMZ0B8Di+AOUUblB9V8NcM9gohryBzXKGK5Kn5G+k7CiVO57Q6jShSmd+PbARK03V8FaCHeM0v3FfwOaztSsOWjTv81EwrUJG3DIPPFxlqiJmmJiB4SLx2hNZ0XT1gmtEIa8b4qHj+OaeP86nfya1WzbKBLhAUkSDwd/lYi2qBZYpmUVHj88CmL8k63eoO9plbReD62278tZKglJrGQzBap99w0dDfEM6pM4q927nzciOZPeUatzV3G3zWA8famfIIwruDR7UsQHSSrMM2/YIuo8hUwggauMIIElqADAgECAhAHNje3JFR82Ees/ShmKl5bMA0GCSqGSIb3DQEBCwUAMGIxCzAJBgNVBAYTAlVTMRUwEwYDVQQKEwxEaWdpQ2VydCBJbmMxGTAXBgNVBAsTEHd3dy5kaWdpY2VydC5jb20xITAfBgNVBAMTGERpZ2lDZXJ0IFRydXN0ZWQgUm9vdCBHNDAeFw0yMjAzMjMwMDAwMDBaFw0zNzAzMjIyMzU5NTlaMGMxCzAJBgNVBAYTAlVTMRcwFQYDVQQKEw5EaWdpQ2VydCwgSW5jLjE7MDkGA1UEAxMyRGlnaUNlcnQgVHJ1c3RlZCBHNCBSU0E0MDk2IFNIQTI1NiBUaW1lU3RhbXBpbmcgQ0EwggIiMA0GCSqGSIb3DQEBAQUAA4ICDwAwggIKAoICAQDGhjUGSbPBPXJJUVXHJQPE8pE3qZdRodbSg9GeTKJtoLDMg/la9hGhRBVCX6SI82j6ffOciQt/nR+eDzMfUBMLJnOWbfhXqAJ9/UO0hNoR8XOxs+4rgISKIhjf69o9xBd/qxkrPkLcZ47qUT3w1lbU5ygt69OxtXXnHwZljZQp09nsad/ZkIdGAHvbREGJ3HxqV3rwN3mfXazL6IRktFLydkf3YYMZ3V+0VAshaG43IbtArF+y3kp9zvU5EmfvDqVjbOSmxR3NNg1c1eYbqMFkdECnwHLFuk4fsbVYTXn+149zk6wsOeKlSNbwsDETqVcplicu9Yemj052FVUmcJgmf6AaRyBD40NjgHt1biclkJg6OBGz9vae5jtb7IHeIhTZgirHkr+g3uM+onP65x9abJTyUpURK1h0QCirc0PO30qhHGs4xSnzyqqWc0Jon7ZGs506o9UD4L/wojzKQtwYSH8UNM/STKvvmz3+DrhkKvp1KCRB7UK/BZxmSVJQ9FHzNklNiyDSLFc1eSuo80VgvCONWPfcYd6T/jnA+bIwpUzX6ZhKWD7TA4j+s4/TXkt2ElGTyYwMO1uKIqjBJgj5FBASA31fI7tk42PgpuE+9sJ0sj8eCXbsq11GdeJgo1gJASgADoRU7s7pXcheMBK9Rp6103a50g5rmQzSM7TNsQIDAQABo4IBXTCCAVkwEgYDVR0TAQH/BAgwBgEB/wIBADAdBgNVHQ4EFgQUuhbZbU2FL3MpdpovdYxqII+eyG8wHwYDVR0jBBgwFoAU7NfjgtJxXWRM3y5nP+e6mK4cD08wDgYDVR0PAQH/BAQDAgGGMBMGA1UdJQQMMAoGCCsGAQUFBwMIMHcGCCsGAQUFBwEBBGswaTAkBggrBgEFBQcwAYYYaHR0cDovL29jc3AuZGlnaWNlcnQuY29tMEEGCCsGAQUFBzAChjVodHRwOi8vY2FjZXJ0cy5kaWdpY2VydC5jb20vRGlnaUNlcnRUcnVzdGVkUm9vdEc0LmNydDBDBgNVHR8EPDA6MDigNqA0hjJodHRwOi8vY3JsMy5kaWdpY2VydC5jb20vRGlnaUNlcnRUcnVzdGVkUm9vdEc0LmNybDAgBgNVHSAEGTAXMAgGBmeBDAEEAjALBglghkgBhv1sBwEwDQYJKoZIhvcNAQELBQADggIBAH1ZjsCTtm+YqUQiAX5m1tghQuGwGC4QTRPPMFPOvxj7x1Bd4ksp+3CKDaopafxpwc8dB+k+YMjYC+VcW9dth/qEICU0MWfNthKWb8RQTGIdDAiCqBa9qVbPFXONASIlzpVpP0d3+3J0FNf/q0+KLHqrhc1DX+1gtqpPkWaeLJ7giqzl/Yy8ZCaHbJK9nXzQcAp876i8dU+6WvepELJd6f8oVInw1YpxdmXazPByoyP6wCeCRK6ZJxurJB4mwbfeKuv2nrF5mYGjVoarCkXJ38SNoOeY+/umnXKvxMfBwWpx2cYTgAnEtp/Nh4cku0+jSbl3ZpHxcpzpSwJSpzd+k1OsOx0ISQ+UzTl63f8lY5knLD0/a6fxZsNBzU+2QJshIUDQtxMkzdwdeDrknq3lNHGS1yZr5Dhzq6YBT70/O3itTK37xJV77QpfMzmHQXh6OOmc4d0j/R0o08f56PGYX/sr2H7yRp11LB4nLCbbbxV7HhmLNriT1ObyF5lZynDwN7+YAN8gFk8n+2BnFqFmut1VwDophrCYoCvtlUG3OtUVmDG0YgkPCr2B2RP+v6TR81fZvAT6gt4y3wSJ8ADNXcL50CN/AAvkdgIm2fBldkKmKYcJRyvmfxqkhQ/8mJb2VVQrH4D6wPIOK+XW+6kvRBVK5xMOHds3OBqhK/bt1nz8MYIBuTCCAbUCAQEwdzBjMQswCQYDVQQGEwJVUzEXMBUGA1UEChMORGlnaUNlcnQsIEluYy4xOzA5BgNVBAMTMkRpZ2lDZXJ0IFRydXN0ZWQgRzQgUlNBNDA5NiBTSEEyNTYgVGltZVN0YW1waW5nIENBAhAMCy/HenjPuu1lVlTBmiQDMA0GCWCGSAFlAwQCAQUAoIHRMBoGCSqGSIb3DQEJAzENBgsqhkiG9w0BCRABBDAcBgkqhkiG9w0BCQUxDxcNMjQxMjEyMTQ1NTE5WjArBgsqhkiG9w0BCRACDDEcMBowGDAWBBT3EwJUZBucztJRLWLFv58phIz8+DAvBgkqhkiG9w0BCQQxIgQg2abzZBCcznB4eLNHc9asyvy5Ani3yv+gZLYTJ9U3a1gwNwYLKoZIhvcNAQkQAi8xKDAmMCQwIgQguXomaB0Y6bl8Yz74SDlkVXWXltpQQ0Qsj4zN5SfgAKkwCgYIKoZIzj0EAwIESDBGAiEAnULTjVsiW41RCw4oX/4rv1ck5zYWMO6X+BSOxJAengwCIQC3mJ79gtKlHrKSZ1fH8UiIC0VWcyHkyD2K+ACa+1Ul8GNwYWRZE4IAAAAAAAAAAAAAAAAAAAAAAAAAAAAAAAAAAAAAAAAAAAAAAAAAAAAAAAAAAAAAAAAAAAAAAAAAAAAAAAAAAAAAAAAAAAAAAAAAAAAAAAAAAAAAAAAAAAAAAAAAAAAAAAAAAAAAAAAAAAAAAAAAAAAAAAAAAAAAAAAAAAAAAAAAAAAAAAAAAAAAAAAAAAAAAAAAAAAAAAAAAAAAAAAAAAAAAAAAAAAAAAAAAAAAAAAAAAAAAAAAAAAAAAAAAAAAAAAAAAAAAAAAAAAAAAAAAAAAAAAAAAAAAAAAAAAAAAAAAAAAAAAAAAAAAAAAAAAAAAAAAAAAAAAAAAAAAAAAAAAAAAAAAAAAAAAAAAAAAAAAAAAAAAAAAAAAAAAAAAAAAAAAAAAAAAAAAAAAAAAAAAAAAAAAAAAAAAAAAAAAAAAAAAAAAAAAAAAAAAAAAAAAAAAAAAAAAAAAAAAAAAAAAAAAAAAAAAAAAAAAAAAAAAAAAAAAAAAAAAAAAAAAAAAAAAAAAAAAAAAAAAAAAAAAAAAAAAAAAAAAAAAAAAAAAAAAAAAAAAAAAAAAAAAAAAAAAAAAAAAAAAAAAAAAAAAAAAAAAAAAAAAAAAAAAAAAAAAAAAAAAAAAAAAAAAAAAAAAAAAAAAAAAAAAAAAAAAAAAAAAAAAAAAAAAAAAAAAAAAAAAAAAAAAAAAAAAAAAAAAAAAAAAAAAAAAAAAAAAAAAAAAAAAAAAAAAAAAAAAAAAAAAAAAAAAAAAAAAAAAAAAAAAAAAAAAAAAAAAAAAAAAAAAAAAAAAAAAAAAAAAAAAAAAAAAAAAAAAAAAAAAAAAAAAAAAAAAAAAAAAAAAAAAAAAAAAAAAAAAAAAAAAAAAAAAAAAAAAAAAAAAAAAAAAAAAAAAAAAAAAAAAAAAAAAAAAAAAAAAAAAAAAAAAAAAAAAAAAAAAAAAAAAAAAAAAAAAAAAAAAAAAAAAAAAAAAAAAAAAAAAAAAAAAAAAAAAAAAAAAAAAAAAAAAAAAAAAAAAAAAAAAAAAAAAAAAAAAAAAAAAAAAAAAAAAAAAAAAAAAAAAAAAAAAAAAAAAAAAAAAAAAAAAAAAAAAAAAAAAAAAAAAAAAAAAAAAAAAAAAAAAAAAAAAAAAAAAAAAAAAAAAAAAAAAAAAAAAAAAAAAAAAAAAAAAAAAAAAAAAAAAAAAAAAAAAAAAAAAAAAAAAAAAAAAAAAAAAAAAAAAAAAAAAAAAAAAAAAAAAAAAAAAAAAAAAAAAAAAAAAAAAAAAAAAAAAAAAAAAAAAAAAAAAAAAAAAAAAAAAAAAAAAAAAAAAAAAAAAAAAAAAAAAAAAAAAAAAAAAAAAAAAAAAAAAAAAAAAAAAAAAAAAAAAAAAAAAAAAAAAAAAAAAAAAAAAAAAAAAAAAAAAAAAAAAAAAAAAAAAAAAAAAAAAAAAAAAAAAAAAAAAAAAAAAAAAAAAAAAAAAAAAAAAAAAAAAAAAAAAAAAAAAAAAAAAAAAAAAAAAAAAAAAAAAAAAAAAAAAAAAAAAAAAAAAAAAAAAAAAAAAAAAAAAAAAAAAAAAAAAAAAAAAAAAAAAAAAAAAAAAAAAAAAAAAAAAAAAAAAAAAAAAAAAAAAAAAAAAAAAAAAAAAAAAAAAAAAAAAAAAAAAAAAAAAAAAAAAAAAAAAAAAAAAAAAAAAAAAAAAAAAAAAAAAAAAAAAAAAAAAAAAAAAAAAAAAAAAAAAAAAAAAAAAAAAAAAAAAAAAAAAAAAAAAAAAAAAAAAAAAAAAAAAAAAAAAAAAAAAAAAAAAAAAAAAAAAAAAAAAAAAAAAAAAAAAAAAAAAAAAAAAAAAAAAAAAAAAAAAAAAAAAAAAAAAAAAAAAAAAAAAAAAAAAAAAAAAAAAAAAAAAAAAAAAAAAAAAAAAAAAAAAAAAAAAAAAAAAAAAAAAAAAAAAAAAAAAAAAAAAAAAAAAAAAAAAAAAAAAAAAAAAAAAAAAAAAAAAAAAAAAAAAAAAAAAAAAAAAAAAAAAAAAAAAAAAAAAAAAAAAAAAAAAAAAAAAAAAAAAAAAAAAAAAAAAAAAAAAAAAAAAAAAAAAAAAAAAAAAAAAAAAAAAAAAAAAAAAAAAAAAAAAAAAAAAAAAAAAAAAAAAAAAAAAAAAAAAAAAAAAAAAAAAAAAAAAAAAAAAAAAAAAAAAAAAAAAAAAAAAAAAAAAAAAAAAAAAAAAAAAAAAAAAAAAAAAAAAAAAAAAAAAAAAAAAAAAAAAAAAAAAAAAAAAAAAAAAAAAAAAAAAAAAAAAAAAAAAAAAAAAAAAAAAAAAAAAAAAAAAAAAAAAAAAAAAAAAAAAAAAAAAAAAAAAAAAAAAAAAAAAAAAAAAAAAAAAAAAAAAAAAAAAAAAAAAAAAAAAAAAAAAAAAAAAAAAAAAAAAAAAAAAAAAAAAAAAAAAAAAAAAAAAAAAAAAAAAAAAAAAAAAAAAAAAAAAAAAAAAAAAAAAAAAAAAAAAAAAAAAAAAAAAAAAAAAAAAAAAAAAAAAAAAAAAAAAAAAAAAAAAAAAAAAAAAAAAAAAAAAAAAAAAAAAAAAAAAAAAAAAAAAAAAAAAAAAAAAAAAAAAAAAAAAAAAAAAAAAAAAAAAAAAAAAAAAAAAAAAAAAAAAAAAAAAAAAAAAAAAAAAAAAAAAAAAAAAAAAAAAAAAAAAAAAAAAAAAAAAAAAAAAAAAAAAAAAAAAAAAAAAAAAAAAAAAAAAAAAAAAAAAAAAAAAAAAAAAAAAAAAAAAAAAAAAAAAAAAAAAAAAAAAAAAAAAAAAAAAAAAAAAAAAAAAAAAAAAAAAAAAAAAAAAAAAAAAAAAAAAAAAAAAAAAAAAAAAAAAAAAAAAAAAAAAAAAAAAAAAAAAAAAAAAAAAAAAAAAAAAAAAAAAAAAAAAAAAAAAAAAAAAAAAAAAAAAAAAAAAAAAAAAAAAAAAAAAAAAAAAAAAAAAAAAAAAAAAAAAAAAAAAAAAAAAAAAAAAAAAAAAAAAAAAAAAAAAAAAAAAAAAAAAAAAAAAAAAAAAAAAAAAAAAAAAAAAAAAAAAAAAAAAAAAAAAAAAAAAAAAAAAAAAAAAAAAAAAAAAAAAAAAAAAAAAAAAAAAAAAAAAAAAAAAAAAAAAAAAAAAAAAAAAAAAAAAAAAAAAAAAAAAAAAAAAAAAAAAAAAAAAAAAAAAAAAAAAAAAAAAAAAAAAAAAAAAAAAAAAAAAAAAAAAAAAAAAAAAAAAAAAAAAAAAAAAAAAAAAAAAAAAAAAAAAAAAAAAAAAAAAAAAAAAAAAAAAAAAAAAAAAAAAAAAAAAAAAAAAAAAAAAAAAAAAAAAAAAAAAAAAAAAAAAAAAAAAAAAAAAAAAAAAAAAAAAAAAAAAAAAAAAAAAAAAAAAAAAAAAAAAAAAAAAAAAAAAAAAAAAAAAAAAAAAAAAAAAAAAAAAAAAAAAAAAAAAAAAAAAAAAAAAAAAAAAAAAAAAAAAAAAAAAAAAAAAAAAAAAAAAAAAAAAAAAAAAAAAAAAAAAAAAAAAAAAAAAAAAAAAAAAAAAAAAAAAAAAAAAAAAAAAAAAAAAAAAAAAAAAAAAAAAAAAAAAAAAAAAAAAAAAAAAAAAAAAAAAAAAAAAAAAAAAAAAAAAAAAAAAAAAAAAAAAAAAAAAAAAAAAAAAAAAAAAAAAAAAAAAAAAAAAAAAAAAAAAAAAAAAAAAAAAAAAAAAAAAAAAAAAAAAAAAAAAAAAAAAAAAAAAAAAAAAAAAAAAAAAAAAAAAAAAAAAAAAAAAAAAAAAAAAAAAAAAAAAAAAAAAAAAAAAAAAAAAAAAAAAAAAAAAAAAAAAAAAAAAAAAAAAAAAAAAAAAAAAAAAAAAAAAAAAAAAAAAAAAAAAAAAAAAAAAAAAAAAAAAAAAAAAAAAAAAAAAAAAAAAAAAAAAAAAAAAAAAAAAAAAAAAAAAAAAAAAAAAAAAAAAAAAAAAAAAAAAAAAAAAAAAAAAAAAAAAAAAAAAAAAAAAAAAAAAAAAAAAAAAAAAAAAAAAAAAAAAAAAAAAAAAAAAAAAAAAAAAAAAAAAAAAAAAAAAAAAAAAAAAAAAAAAAAAAAAAAAAAAAAAAAAAAAAAAAAAAAAAAAAAAAAAAAAAAAAAAAAAAAAAAAAAAAAAAAAAAAAAAAAAAAAAAAAAAAAAAAAAAAAAAAAAAAAAAAAAAAAAAAAAAAAAAAAAAAAAAAAAAAAAAAAAAAAAAAAAAAAAAAAAAAAAAAAAAAAAAAAAAAAAAAAAAAAAAAAAAAAAAAAAAAAAAAAAAAAAAAAAAAAAAAAAAAAAAAAAAAAAAAAAAAAAAAAAAAAAAAAAAAAAAAAAAAAAAAAAAAAAAAAAAAAAAAAAAAAAAAAAAAAAAAAAAAAAAAAAAAAAAAAAAAAAAAAAAAAAAAAAAAAAAAAAAAAAAAAAAAAAAAAAAAAAAAAAAAAAAAAAAAAAAAAAAAAAAAAAAAAAAAAAAAAAAAAAAAAAAAAAAAAAAAAAAAAAAAAAAAAAAAAAAAAAAAAAAAAAAAAAAAAAAAAAAAAAAAAAAAAAAAAAAAAAAAAAAAAAAAAAAAAAAAAAAAAAAAAAAAAAAAAAAAAAAAAAAAAAAAAAAAAAAAAAAAAAAAAAAAAAAAAAAAAAAAAAAAAAAAAAAAAAAAAAAAAAAAAAAAAAAAAAAAAAAAAAAAAAAAAAAAAAAAAAAAAAAAAAAAAAAAAAAAAAAAAAAAAAAAAAAAAAAAAAAAAAAAAAAAAAAAAAAAAAAAAAAAAAAAAAAAAAAAAAAAAAAAAAAAAAAAAAAAAAAAAAAAAAAAAAAAAAAAAAAAAAAAAAAAAAAAAAAAAAAAAAAAAAAAAAAAAAAAAAAAAAAAAAAAAAAAAAAAAAAAAAAAAAAAAAAAAAAAAAAAAAAAAAAAAAAAAAAAAAAAAAAAAAAAAAAAAAAAAAAAAAAAAAAAAAAAAAAAAAAAAAAAAAAAAAAAAAAAAAAAAAAAAAAAAAAAAAAAAAAAAAAAAAAAAAAAAAAAAAAAAAAAAAAAAAAAAAAAAAAAAAAAAAAAAAAAAAAAAAAAAAAAAAAAAAAAAAAAAAAAAAAAAAAAAAAAAAAAAAAAAAAAAAAAAAAAAAAAAAAAAAAAAAAAAAAAAAAAAAAAAAAAAAAAAAAAAAAAAAAAAAAAAAAAAAAAAAAAAAAAAAAAAAAAAAAAAAAAAAAAAAAAAAAAAAAAAAAAAAAAAAAAAAAAAAAAAAAAAAAAAAAAAAAAAAAAAAAAAAAAAAAAAAAAAAAAAAAAAAAAAAAAAAAAAAAAAAAAAAAAAAAAAAAAAAAAAAAAAAAAAAAAAAAAAAAAAAAAAAAAAAAAAAAAAAAAAAAAAAAAAAAAAAAAAAAAAAAAAAAAAAAAAAAAAAAAAAAAAAAAAAAAAAAAAAAAAAAAAAAAAAAAAAAAAAAAAAAAAAAAAAAAAAAAAAAAAAAAAAAAAAAAAAAAAAAAAAAAAAAAAAAAAAAAAAAAAAAAAAAAAAAAAAAAAAAAAAAAAAAAAAAAAAAAAAAAAAAAAAAAAAAAAAAAAAAAAAAAAAAAAAAAAAAAAAAAAAAAAAAAAAAAAAAAAAAAAAAAAAAAAAAAAAAAAAAAAAAAAAAAAAAAAAAAAAAAAAAAAAAAAAAAAAAAAAAAAAAAAAAAAAAAAAAAAAAAAAAAAAAAAAAAAAAAAAAAAAAAAAAAAAAAAAAAAAAAAAAAAAAAAAAAAAAAAAAAAAAAAAAAAAAAAAAAAAAAAAAAAAAAAAAAAAAAAAAAAAAAAAAAAAAAAAAAAAAAAAAAAAAAAAAAAAAAAAAAAAAAAAAAAAAAAAAAAAAAAAAAAAAAAAAAAAAAAAAAAAAAAAAAAAAAAAAAAAAAAAAAAAAAAAAAAAAAAAAAAAAAAAAAAAAAAAAAAAAAAAAAAAAAAAAAAAAAAAAAAAAAAAAAAAAAAAAAAAAAAAAAAAAAAAAAAAAAAAAAAAAAAAAAAAAAAAAAAAAAAAAAAAAAAAAAAAAAAAAAAAAAAAAAAAAAAAAAAAAAAAAAAAAAAAAAAAAAAAAAAAAAAAAAAAAAAAAAAAAAAAAAAAAAAAAAAAAAAAAAAAAAAAAAAAAAAAAAAAAAAAAAAAAAAAAAAAAAAAAAAAAAAAAAAAAAAAAAAAAAAAAAAAAAAAAAAAAAAAAAAAAAAAAAAAAAAAAAAAAAAAAAAAAAAAAAAAAAAAAAAAAAAAAAAAAAAAAAAAAAAAAAAAAAAAAAAAAAAAAAAAAAAAAAAAAAAAAAAAAAAAAAAAAAAAAAAAAAAAAAAAAAAAAAAAAAAAAAAAAAAAAAAAAAAAAAAAAAAAAAAAAAAAAAAAAAAAAAAAAAAAAAAAAAAAAAAAAAAAAAAAAAAAAAAAAAAAAAAAAAAAAAAAAAAAAAAAAAAAAAAAAAAAAAAAAAAAAAAAAAAAAAAAAAAAAAAAAAAAAAAAAAAAAAAAAAAAAAAAAAAAAAAAAAAAAAAAAAAAAAAAAAAAAAAAAAAAAAAAAAAAAAAAAAAAAAAAAAAAAAAAAAAAAAAAAAAAAAAAAAAAAAAAAAAAAAAAAAAAAAAAAAAAAAAAAAAAAAAAAAAAAAAAAAAAAAAAAAAAAAAAAAAAAAAAAAAAAAAAAAAAAAAAAAAAAAAAAAAAAAAAAAAAAAAAAAAAAAAAAAAAAAAPZZAQDBL8SMoBcO5i2mu0RQuNlglx5Zx6sSrB/gG1eGirQ+eIqDDjkyi6VKfxS94m6Ea+bobyfSr8VeUXpDFNOApFprb5ah1K0ibvvBnIzds3TUHZ/+GugnZfvAS2m413bxgi6978hY08LRNTkbvtK2A2dxhYNGroTPRhOqWGFFzEbw7PYDNiTBawHSM12yqC7LtYTxe5/q5uwvSCQ9EPuFxDAz+KCTOV2Q/UQ4FLHCa8473me55f4ff+op4PDXE3g05rkzQiezt8eqWmB35YjFrAR3mjZ0bBjA5WggH51PRqWxtYnDzjH+mo0+c3DO3OwglDe2bh9SanTDyVNC0/TaO31W</c2pa:manifest></metadata>
  <!-- Generator: Adobe Illustrator 29.1.0, SVG Export Plug-In . SVG Version: 2.1.0 Build 142)  -->
  <defs>
    <style>
      .st0 {
        fill: #40ad59;
      }

      .st1 {
        fill: #fde986;
      }

      .st2 {
        fill: #fe8781;
      }

      .st3 {
        fill: #ef3626;
      }

      .st4 {
        fill: #fdc64a;
      }

      .st5 {
        fill: #fff;
      }

      .st6 {
        fill: #b01619;
      }

      .st7 {
        fill: #1c635d;
      }

      .st8 {
        fill: #f2685b;
      }

      .st9 {
        fill: #890a0f;
      }

      .st10 {
        fill: #88db89;
      }

      .st11 {
        fill: red;
      }

      .st12 {
        fill: #f5303a;
      }

      .st13 {
        fill: #708196;
      }

      .st14 {
        fill: #d42622;
      }

      .st15 {
        fill: #c7ced4;
      }
    </style>
  </defs>
  <g id="Generative_Object">
    <g>
      <path class="st7" d="M343.9,32.9c.2.5-.3,2.4,0,2.5,1.2.5,7.9.3,9.9.6s10.9,2.4,11.4,2,.3-1.9.6-2.2c.1,0,2.7.6,2.9.6,0,.5-.6,2.1-.4,2.4s6.4,1.2,7.3,1.3c2.8.3,5.6.2,8.4.2v4.3c-.9.2-2.1-.4-2.9-.4v-2.3c-8.8-.2-17.1-2.4-25.5-4.1l-.7,2.5c-.2,0-2.8-.4-3.1-.4,0-.5.6-2.3,0-2.5-7.2-.4-14.4-1-21.5.2l.3,2.3c-.2,0-2.8.7-3.1.8,0-.6-.2-2.6-.7-2.7-8.6,1.1-17.2,2-25.4,4.7l-.3.3,1,2.2c-.2,0-2.9,1-3.1,1.2,0-.3-.5-2.1-.6-2.2-.6-.8-6.8,1.9-8.1,2.2-4.7,1.3-9.5,2.4-14.2,3.7-.7.5,0,2.1.3,2.7-.2,0-3,.7-3.1.8-.2-.4-.4-2.1-.6-2.2-.4-.3-8.5,1.8-9.8,2-4.4.8-8.8,1.4-13.2,1.9-.5.3.1,1.7,0,2.3v.4c-.4,0-2.9.2-3,.2l-.5-2.5c-6.7.8-13.3.9-20,.2s-5.3-2.3-4.9,1.7c-.2,0-2.9-.8-3.1-.8,0-.7.9-2.3.3-2.7l-30.5-8.9c-1,0-.8,1.6-1.1,2.3-.2,0-2.9-.8-3.1-.8,0-.3.6-2.1.6-2.2-.2-.7-13.1-3.5-14.8-3.8s-12.9-1.3-14.2-.8-.2,2-.3,2.5c-.2,0-2.9.2-3.1.2,0-.4.1-2.4,0-2.5-.8-.6-11.2,1.5-12.8,1.9-2.9.8-9.1,3.6-11.3,5.6s-.4,1.2.5,2.7c-.1,0-2.4,1.8-2.5,1.9l-1.3-1.7-1.5,1v-2.1c4.1-3.3,8.5-6.2,13.5-8.2s4.2,0,2.8-3.3c.3,0,3.1-.3,3.3-.4,0,.4.1,2,.5,2.1s5.7-1.1,6.8-1.2c3.7-.3,8.1-.4,11.8-.2s9.6,1.5,10.1,1.4.8-2.2.9-2.7c.1,0,2.9.8,3.1.8l-.8,2.2c.1.5,8.9,2.4,10.2,2.8,2.1.6,11.3,3.9,12.6,3.9s.9-1.6,1.3-2.3c.1,0,2.8.9,2.9,1-.1.7-1,2.1-.5,2.5,3.3,1,27,7.9,28.5,6.8s.3-2.3.3-2.7c.8.2,2.3.3,3.1.2v2.7c4.8,0,9.4-.3,14.1-.8s12.5-1.6,12.7-2.2-.5-2-.4-2.4c.2,0,3-.3,3.1-.4l.5,2.5c8.4-1.5,16.4-4.2,24.6-6.2l-.5-2.5c.2,0,3-.5,3.1-.6l.7,2.1c3.8-1.3,7.6-2.8,11.5-3.9s9.4-1.4,11.6-2.3.3-1.3.5-2.5v-.4c.6,0,2.3,0,2.8-.2l.5,2.5,21.9-2.1.3-2.7c.3,0,2.8.2,3.1.2h.3Z"/>
      <g>
        <path class="st4" d="M381.2,44.2c.8,0,2,.6,2.9.4v8.5c-.3.8-1.1,1.8,0,2.1v1.6c-.8,1.2-1.6,2.5-3,3.1-2-.3-7.2-15.5,0-15.7,0,0,.1,0,.1,0Z"/>
        <path class="st1" d="M384.1,55.2c-1.1-.3-.3-1.3,0-2.1v2.1Z"/>
      </g>
      <path class="st4" d="M273.5,53.5c.1,0,2.9-.8,3.1-.8,7.2-.6,4.7,15.2,2.8,15.5s-12.8-11.8-5.9-14.8h0Z"/>
      <g>
        <path class="st4" d="M343.9,32.9c-.4,0-2.8,0-3.1-.2-3.1-.7-3.4-3.6-2.9-6.3s4-10.1,6.1-9.6,7.1,15.7,0,16.1h-.1Z"/>
        <path class="st1" d="M345.2,20.5c.6,0,1.7,3.5,1,4.1-1.5.7-1.4-2.7-1.5-3.6.1,0,.4-.5.5-.5Z"/>
        <path class="st1" d="M346.1,25.2c1.1,0,.4,4-.6,4.1s-.2-4.1.6-4.1Z"/>
      </g>
      <g>
        <path class="st4" d="M290.9,42.2c-.1,0-2.9.6-3.1.6-7.9.5-4.2-15.5-2.4-15.9,2.5-.6,9.6,10.4,7.3,13.9s-1.6,1.4-1.7,1.5h0Z"/>
        <path class="st1" d="M290.6,33.7c.8,0,1.5,4,.8,4.7-1.3.7-1.9-4.7-.8-4.7Z"/>
        <path class="st1" d="M287.9,30c4.2,2.7,1.8,6-.5.5l.5-.5Z"/>
      </g>
      <g>
        <path class="st0" d="M318.1,35.1c-.5,0-2.2.2-2.8.2s0,.4,0,.4c-.1,0-2.2-.8-2.4-1-3.1-2.1-1-13.2,2.1-15.3,2.1-.2,10.6,13.7,3.2,15.7h-.1Z"/>
        <path class="st10" d="M319,27.1c1.1,0,1.3,4.9.2,4.9s-1.4-4.8-.2-4.9Z"/>
        <path class="st10" d="M316.8,23c1-.5,2.9,3.6,1.4,3.7s-2-3.4-1.4-3.7Z"/>
      </g>
      <g>
        <path class="st0" d="M263.2,49c-.2,0-2.9.4-3.1.4-7.4,0-2.8-15.5-.9-15.9s11.1,13.5,4,15.5Z"/>
        <path class="st10" d="M263.8,41.1c.7,0,1.1,4.4.6,4.7-1.5.8-2-4.8-.6-4.7Z"/>
        <path class="st10" d="M261.5,37c.6-.2,2.8,3.3,1.6,3.7s-2.2-3.4-1.6-3.7Z"/>
      </g>
      <g>
        <path class="st4" d="M202.2,45.3c-.2,0-2.8-.9-2.9-1-7.1-3.6,4.5-15,6.7-14.4s3.4,16.3-3.8,15.3h0Z"/>
        <path class="st1" d="M205.8,38.4c.3,0,.9,0,1.1.3,0,.9-1.3,4.8-2.6,4.2s1.3-4.4,1.6-4.5h-.1Z"/>
        <path class="st1" d="M206,33.9c1.2-.5,1.2,3.6.4,3.9-1.7.6-.7-3.7-.4-3.9Z"/>
      </g>
      <g>
        <path class="st4" d="M368.7,36.4c-.2,0-2.8-.5-2.9-.6-7.2-2.9,3.2-15.5,5.7-14.8s4.5,15.8-2.8,15.3h0Z"/>
        <path class="st1" d="M372,29.4c2.2-.8.2,4.7-1,4.5s.7-4.4,1-4.5Z"/>
        <path class="st1" d="M371.8,25c1.1-.3,1.3,3.6.8,3.9-1.7.8-1.5-3.7-.8-3.9Z"/>
      </g>
      <g>
        <path class="st12" d="M233.7,52.1c-.8,0-2.3,0-3.1-.2-7.4-1.7.3-15.7,2.8-15.1s7.8,14.8.3,15.3Z"/>
        <path class="st2" d="M235.5,44.8c1.3-.3.9,5.3-.8,4.5-.4-.6.1-4.3.8-4.5Z"/>
        <path class="st2" d="M234.3,40.7c.8-.3,1.9,3.1,1.2,3.5-1.2.5-1.7-3.3-1.2-3.5Z"/>
      </g>
      <g>
        <path class="st4" d="M246.9,58.2c.1,0,2.6-.2,3-.2s0-.4,0-.4c7.2-.4,3.6,15.1,1.8,15.5s-12.2-12.8-4.9-14.9h0Z"/>
        <path class="st1" d="M251.8,60.7c1.3-1.1,1.9,3.8,1.4,4.3-1.2,1-1.6-4-1.4-4.3Z"/>
      </g>
      <g>
        <path class="st4" d="M152.1,42.6c.2,0,3-.2,3.1-.2,5.8.7,2.8,10.9.6,13.9s-1.5,1.8-1.6,1.8c-2.4.5-9.3-14.3-2-15.5,0,0-.1,0-.1,0Z"/>
        <path class="st1" d="M156.7,45.7c2-.9.8,6.6-.5,4.2s.3-4.1.5-4.2Z"/>
      </g>
      <g>
        <path class="st0" d="M218.3,56.8c.2,0,2.9.7,3.1.8,2.7,1,2.8,3.3,2.1,5.7-.7,2.4-5.3,9.9-7.3,9.4s-5.5-16.5,2-15.9h0Z"/>
        <path class="st10" d="M221.9,60.7c.3,0,.7,0,.9.3.3.8-.7,4.9-1.8,4.4s.7-4.6,1-4.7h0Z"/>
        <path class="st10" d="M220.6,65.7c.3,0,.5.3.7.5-2.4,4.8-1.8-.3-.7-.5Z"/>
      </g>
      <g>
        <g>
          <path class="st0" d="M142.8,37.6c-.2,0-3,.4-3.3.4-7.4.2-3.6-15.2-1.8-15.7s9.4,10.1,7.1,13.7-1.8,1.6-1.9,1.6h-.1Z"/>
          <path class="st10" d="M142.7,29.4c.9,0,1.7,4.3,1,4.7-1.4.7-2.2-4.5-1-4.7Z"/>
          <path class="st10" d="M140.4,25.5c.7-.1,2.6,3.1,1.7,3.5s-2.8-3.3-1.7-3.5Z"/>
        </g>
        <g>
          <path class="st4" d="M125.9,52.3s2.4-1.9,2.5-1.9c4.5-1.9,6.7,3.6,7.6,7.1s1.7,8.2-4.2,5.3-9.7-6.6-5.9-10.5Z"/>
          <path class="st1" d="M131.5,51.9c1.4-.6,3.7,3.9,1.9,3.7-.4-.5-2.9-3.3-1.9-3.7Z"/>
        </g>
      </g>
      <g>
        <path class="st0" d="M327.6,40.7c.3,0,2.9-.8,3.1-.8,7.4-.4,3.7,15.3,2.2,15.7-1.8.5-12.5-12.3-5.3-14.9h0Z"/>
        <path class="st10" d="M332.7,42.4c1.3-.3,1.3,3.4,1.6,4.2-1.7,2.2-2.5-4-1.6-4.2Z"/>
        <path class="st10" d="M333.5,47.7c1.1-.4.8,2.4.4,2.5-1,.2-.8-2.4-.4-2.5Z"/>
      </g>
      <g>
        <path class="st12" d="M299.1,46.3c.2,0,2.9-1.1,3.1-1.2,6.7-.9,6,14.7,4.2,15.1s-14.1-10.3-7.3-14h0Z"/>
        <path class="st2" d="M304.4,47.3c1,.2,2.3,3.9,1.6,4.3s-2.8-4.1-1.6-4.3Z"/>
        <path class="st2" d="M306,52.1h.6c1.6,6.1-2,.6-.6,0Z"/>
      </g>
      <g>
        <path class="st12" d="M351.9,39.9c.3,0,2.9.3,3.1.4,6.5,2-.3,13.3-4.2,15.1-2.9-3.1-5.6-15.5,1.1-15.5Z"/>
        <path class="st2" d="M355.8,43.4c2-.5-.1,6.7-1.1,4.2s.7-4.1,1.1-4.2Z"/>
        <path class="st2" d="M354.5,48.5c1.5-.2-.2,2.6-.8,2.3-.9-.4.2-2,.8-2.3Z"/>
      </g>
      <g>
        <g>
          <path class="st12" d="M176,37.8c-.2,0-3-.7-3.1-.8-7-3.1,3.7-15.2,5.7-14.8s3.1,13.9-.2,15.3-1.8.2-2.4.2h0Z"/>
          <path class="st2" d="M179.2,30.8c1.3.1-.3,4.7-1.2,4.7-1.4,0,.4-4.7,1.2-4.7Z"/>
          <path class="st2" d="M178.8,26.5c1.2-.5,1,3.6.8,3.7-1.4,1.1-1.3-3.5-.8-3.7Z"/>
        </g>
        <g>
          <path class="st12" d="M184,46.7c.2,0,2.9.7,3.1.8,6.5,2.9-3.6,15.2-4.9,14.9-2.9-3.3-5.2-16.1,1.8-15.7h0Z"/>
          <path class="st2" d="M187.4,50.2c1.8-.5.3,4.8-.4,4.9-1.5,0,0-4.8.4-4.9Z"/>
          <path class="st2" d="M185.8,55.4c.3,0,.9,0,.9.5-2.4,4.3-2.3-.2-.9-.5Z"/>
        </g>
      </g>
    </g>
    <g id="Generative_Object1">
      <g>
        <path class="st7" d="M604.5,25.8c.2.5-.3,2.4,0,2.5,1.2.5,7.9.3,9.9.6s10.9,2.4,11.4,2,.3-1.9.6-2.2c0,0,2.7.6,2.9.6,0,.5-.6,2.1-.4,2.4s6.4,1.2,7.3,1.3c2.8.3,5.6.2,8.4.2v4.3c-.9.2-2.1-.4-2.9-.4v-2.3c-8.8-.2-17.1-2.4-25.5-4.1l-.7,2.5c-.2,0-2.8-.4-3.1-.4,0-.5.6-2.3,0-2.5-7.2-.4-14.4-1-21.5.2l.3,2.3c-.2,0-2.8.7-3.1.8,0-.6-.2-2.6-.7-2.7-8.6,1.1-17.2,2-25.4,4.7l-.3.3,1,2.2c-.2,0-2.9,1-3.1,1.2,0-.3-.5-2.1-.6-2.2-.6-.8-6.8,1.9-8.1,2.2-4.7,1.3-9.5,2.4-14.2,3.7-.7.5,0,2.1.3,2.7-.2,0-3,.7-3.1.8-.2-.4-.4-2.1-.6-2.2-.4-.3-8.5,1.8-9.8,2-4.4.8-8.8,1.4-13.2,1.9-.5.3.1,1.7,0,2.3v.4c-.4,0-2.9.2-3,.2l-.5-2.5c-6.7.8-13.3.9-20,.2s-5.3-2.3-4.9,1.7c-.2,0-2.9-.8-3.1-.8,0-.7.9-2.3.3-2.7l-30.5-8.9c-1,0-.8,1.6-1.1,2.3-.2,0-2.9-.8-3.1-.8,0-.3.6-2.1.6-2.2-.2-.7-13.1-3.5-14.8-3.8s-12.9-1.3-14.2-.8-.2,2-.3,2.5c-.2,0-2.9.2-3.1.2,0-.4.1-2.4,0-2.5-.8-.6-11.2,1.5-12.8,1.9-2.9.8-9.1,3.6-11.3,5.6s-.4,1.2.5,2.7c-.1,0-2.4,1.8-2.5,1.9l-1.3-1.7-1.5,1v-2.1c4.1-3.3,8.5-6.2,13.5-8.2s4.2,0,2.8-3.3c.3,0,3.1-.3,3.3-.4,0,.4.1,2,.5,2.1s5.7-1.1,6.8-1.2c3.7-.3,8.1-.4,11.8-.2s9.6,1.5,10.1,1.4.8-2.2.9-2.7c.1,0,2.9.8,3.1.8l-.8,2.2c.1.5,8.9,2.4,10.2,2.8,2.1.6,11.3,3.9,12.6,3.9s.9-1.6,1.3-2.3c.1,0,2.8.9,2.9,1-.1.7-1,2.1-.5,2.5,3.3,1,27,7.9,28.5,6.8s.3-2.3.3-2.7c.8.2,2.3.3,3.1.2v2.7c4.8,0,9.4-.3,14.1-.8,4.7-.5,12.5-1.6,12.7-2.2s-.5-2-.4-2.4c.2,0,3-.3,3.1-.4l.5,2.5c8.4-1.5,16.4-4.2,24.6-6.2l-.5-2.5c.2,0,3-.5,3.1-.6l.7,2.1c3.8-1.3,7.6-2.8,11.5-3.9s9.4-1.4,11.6-2.3.3-1.3.5-2.5v-.4c.6,0,2.3,0,2.8-.2l.5,2.5,21.9-2.1.3-2.7c.3,0,2.8.2,3.1.2h.3Z"/>
        <g>
          <path class="st4" d="M641.7,37c.8,0,2,.6,2.9.4v8.5c-.3.8-1.1,1.8,0,2.1v1.6c-.8,1.2-1.6,2.5-3,3.1-2-.3-7.2-15.5,0-15.7h0Z"/>
          <path class="st1" d="M644.6,48.1c-1.1-.3-.3-1.3,0-2.1v2.1Z"/>
        </g>
        <path class="st4" d="M534,46.3s2.9-.8,3.1-.8c7.2-.6,4.7,15.2,2.8,15.5s-12.8-11.8-5.9-14.8h0Z"/>
        <g>
          <path class="st4" d="M604.5,25.8c-.4,0-2.8-.1-3.1-.2-3.1-.7-3.4-3.6-2.9-6.3s4-10.1,6.1-9.6,7.1,15.7,0,16.1h0Z"/>
          <path class="st1" d="M605.7,13.3c.6,0,1.7,3.5,1,4.1-1.5.7-1.4-2.7-1.5-3.6,0,0,.4-.5.5-.5Z"/>
          <path class="st1" d="M606.7,18c1.1,0,.4,4-.6,4.1s-.2-4.1.6-4.1Z"/>
        </g>
        <g>
          <path class="st4" d="M551.5,35.1s-2.9.6-3.1.6c-7.9.5-4.2-15.5-2.4-15.9,2.5-.6,9.6,10.4,7.3,13.9s-1.6,1.4-1.7,1.5h0Z"/>
          <path class="st1" d="M551.2,26.5c.8,0,1.5,4,.8,4.7-1.3.7-1.9-4.7-.8-4.7Z"/>
          <path class="st1" d="M548.5,22.9c4.2,2.7,1.8,6-.5.5l.5-.5Z"/>
        </g>
        <g>
          <path class="st0" d="M578.7,27.9c-.5.1-2.2.2-2.8.2s0,.4,0,.4c0,0-2.2-.8-2.4-1-3.1-2.1-1-13.2,2.1-15.3,2.1-.2,10.6,13.7,3.2,15.7h0Z"/>
          <path class="st10" d="M579.5,19.9c1.1,0,1.3,4.9.2,4.9s-1.4-4.8-.2-4.9Z"/>
          <path class="st10" d="M577.4,15.9c1-.5,2.9,3.6,1.4,3.7s-2-3.4-1.4-3.7Z"/>
        </g>
        <g>
          <path class="st0" d="M523.7,41.9c-.2,0-2.9.4-3.1.4-7.4,0-2.8-15.5-.9-15.9s11.1,13.5,4,15.5Z"/>
          <path class="st10" d="M524.4,33.9c.7,0,1.1,4.4.6,4.7-1.5.8-2-4.8-.6-4.7Z"/>
          <path class="st10" d="M522.1,29.8c.6-.2,2.8,3.3,1.6,3.7s-2.2-3.4-1.6-3.7Z"/>
        </g>
        <g>
          <path class="st4" d="M462.8,38.2c-.2,0-2.8-.9-2.9-1-7.1-3.6,4.5-15,6.7-14.4s3.4,16.3-3.8,15.3h0Z"/>
          <path class="st1" d="M466.4,31.2c.3,0,.9,0,1.1.3,0,.9-1.3,4.8-2.6,4.2s1.3-4.4,1.6-4.5h-.1Z"/>
          <path class="st1" d="M466.6,26.7c1.2-.5,1.2,3.6.4,3.9-1.7.6-.7-3.7-.4-3.9Z"/>
        </g>
        <g>
          <path class="st4" d="M629.3,29.3c-.2,0-2.8-.5-2.9-.6-7.2-2.9,3.2-15.5,5.7-14.8s4.5,15.8-2.8,15.3h0Z"/>
          <path class="st1" d="M632.5,22.3c2.2-.8.2,4.7-1,4.5s.7-4.4,1-4.5Z"/>
          <path class="st1" d="M632.3,17.8c1.1-.3,1.3,3.6.8,3.9-1.7.8-1.5-3.7-.8-3.9Z"/>
        </g>
        <g>
          <path class="st12" d="M494.2,45c-.8,0-2.3,0-3.1-.2-7.4-1.7.3-15.7,2.8-15.1s7.8,14.8.3,15.3h0Z"/>
          <path class="st2" d="M496.1,37.6c1.3-.3.9,5.3-.8,4.5-.4-.6.1-4.3.8-4.5Z"/>
          <path class="st2" d="M494.9,33.5c.8-.3,1.9,3.1,1.2,3.5-1.2.5-1.7-3.3-1.2-3.5Z"/>
        </g>
        <g>
          <path class="st4" d="M507.4,51c.1,0,2.6-.2,3-.2s0-.4,0-.4c7.2-.4,3.6,15.1,1.8,15.5-2.4.6-12.2-12.8-4.9-14.9h0Z"/>
          <path class="st1" d="M512.4,53.5c1.3-1.1,1.9,3.8,1.4,4.3-1.2,1-1.6-4-1.4-4.3Z"/>
        </g>
        <g>
          <path class="st4" d="M412.7,35.5c.2,0,3-.2,3.1-.2,5.8.7,2.8,10.9.6,13.9s-1.5,1.8-1.6,1.8c-2.4.5-9.3-14.3-2-15.5,0,0-.1,0-.1,0Z"/>
          <path class="st1" d="M417.3,38.6c2-.9.8,6.6-.5,4.2s.3-4.1.5-4.2Z"/>
        </g>
        <g>
          <path class="st0" d="M478.9,49.6c.2,0,2.9.7,3.1.8,2.7,1,2.8,3.3,2.1,5.7s-5.3,9.9-7.3,9.4-5.5-16.5,2-15.9h0Z"/>
          <path class="st10" d="M482.5,53.5c.3,0,.7,0,.9.3.3.8-.7,4.9-1.8,4.4s.7-4.6,1-4.7h-.1Z"/>
          <path class="st10" d="M481.1,58.6c.3,0,.5.3.7.5-2.4,4.8-1.8-.3-.7-.5Z"/>
        </g>
        <g>
          <g>
            <path class="st0" d="M403.4,30.4c-.2,0-3,.4-3.3.4-7.4.2-3.6-15.2-1.8-15.7s9.4,10.1,7.1,13.7-1.8,1.6-1.9,1.6h-.1Z"/>
            <path class="st10" d="M403.3,22.3c.9,0,1.7,4.3,1,4.7-1.4.7-2.2-4.5-1-4.7Z"/>
            <path class="st10" d="M401,18.4c.7-.1,2.6,3.1,1.7,3.5s-2.8-3.3-1.7-3.5Z"/>
          </g>
          <g>
            <path class="st4" d="M386.5,45.2c.1,0,2.4-1.9,2.5-1.9,4.5-1.9,6.7,3.6,7.6,7.1,1.2,4.8,1.7,8.2-4.2,5.3-3.4-1.6-9.7-6.6-5.9-10.5Z"/>
            <path class="st1" d="M392,44.8c1.4-.6,3.7,3.9,1.9,3.7-.4-.5-2.9-3.3-1.9-3.7Z"/>
          </g>
        </g>
        <g>
          <path class="st0" d="M588.2,33.5c.3,0,2.9-.8,3.1-.8,7.4-.4,3.7,15.3,2.2,15.7-1.8.5-12.5-12.3-5.3-14.9Z"/>
          <path class="st10" d="M593.3,35.3c1.3-.3,1.3,3.4,1.6,4.2-1.7,2.2-2.5-4-1.6-4.2Z"/>
          <path class="st10" d="M594.1,40.5c1.1-.4.8,2.4.4,2.5-1,.2-.8-2.4-.4-2.5Z"/>
        </g>
        <g>
          <path class="st12" d="M559.6,39.2c.2,0,2.9-1.1,3.1-1.2,6.7-.9,6,14.7,4.2,15.1s-14.1-10.3-7.3-14h0Z"/>
          <path class="st2" d="M565,40.1c1,.2,2.3,3.9,1.6,4.3s-2.8-4.1-1.6-4.3Z"/>
          <path class="st2" d="M566.5,45h.6c1.6,6.1-2,.6-.6,0Z"/>
        </g>
        <g>
          <path class="st12" d="M612.4,32.8c.3,0,2.9.3,3.1.4,6.5,2-.3,13.3-4.2,15.1-2.9-3.1-5.6-15.5,1.1-15.5h0Z"/>
          <path class="st2" d="M616.4,36.3c2-.5,0,6.7-1.1,4.2s.7-4.1,1.1-4.2Z"/>
          <path class="st2" d="M615,41.3c1.5-.2-.2,2.6-.8,2.3-.9-.4.2-2,.8-2.3Z"/>
        </g>
        <g>
          <g>
            <path class="st12" d="M436.6,30.6c-.2,0-3-.7-3.1-.8-7-3.1,3.7-15.2,5.7-14.8s3.1,13.9-.2,15.3-1.8.2-2.4.2h0Z"/>
            <path class="st2" d="M439.8,23.6c1.3.1-.3,4.7-1.2,4.7-1.4,0,.4-4.7,1.2-4.7Z"/>
            <path class="st2" d="M439.4,19.4c1.2-.5,1,3.6.8,3.7-1.4,1.1-1.3-3.5-.8-3.7Z"/>
          </g>
          <g>
            <path class="st12" d="M444.5,39.6c.2,0,2.9.7,3.1.8,6.5,2.9-3.6,15.2-4.9,14.9-2.9-3.3-5.2-16.1,1.8-15.7Z"/>
            <path class="st2" d="M447.9,43c1.8-.5.3,4.8-.4,4.9-1.5,0,0-4.8.4-4.9Z"/>
            <path class="st2" d="M446.4,48.3c.3,0,.9,0,.9.5-2.4,4.3-2.3-.2-.9-.5Z"/>
          </g>
        </g>
      </g>
    </g>
  </g>
  <g id="Oneline_Text">
    <g id="Proximal_oneline_">
      <path class="st5" d="M135.4,25.5c13.3,0,20.5,6.6,20.5,18.1s-7.6,18.7-21.1,18.7h-11.1v18.5h-9.8V25.5h21.6,0ZM123.7,33.9v19.9h10.7c8.2,0,11.7-3.7,11.7-10s-3.6-9.9-11.7-9.9h-10.7Z"/>
      <path class="st5" d="M164.2,56.7c0-6.1-.6-13.4-1.4-18.5h9.4c.3,1.9.6,3.9.9,6.9h.4c2.1-5,5.8-7.6,11.6-7.6s3.8.3,5.1.8v9.1h-.4c-1.6-.6-3.8-.9-5.7-.9-6.6,0-10.4,4.3-10.4,11.4v22.9h-9.4v-24h-.1Z"/>
      <path class="st5" d="M193.3,59.4c0-13.6,7.6-22.3,20.4-22.3s20.2,8.5,20.2,22.3-7.5,22.5-20.4,22.5-20.2-8.6-20.2-22.5ZM224.3,59.4c0-8.6-3.4-14.2-10.7-14.2s-10.8,5.6-10.8,14.2,3.5,14.6,10.8,14.6,10.7-5.7,10.7-14.6Z"/>
      <path class="st5" d="M236.1,80.4l14.5-20.7-14.5-21v-.4h10.6l10,14.5,9.8-14.5h9.9v.4l-14.4,20.9,14.3,20.8v.4h-10.6l-9.9-14.4-9.8,14.4h-9.9v-.4h0Z"/>
      <path class="st5" d="M294.4,25.5c0,3.4-2.6,5.8-6.2,5.8s-6.1-2.4-6.1-5.8,2.5-5.9,6.1-5.9,6.2,2.3,6.2,5.9ZM283.5,38.2h9.4v42.5h-9.4s0-42.5,0-42.5Z"/>
      <path class="st5" d="M304.3,56.7c0-6.1-.6-13.4-1.4-18.5h9.4c.4,2,.6,3.7.8,6h.5c2.3-4.3,6.5-6.7,11.8-6.7s10.6,2.1,13.3,7.4h.3c2.8-5,7.5-7.4,12.8-7.4,8.9,0,15.3,4.9,15.3,17.3v25.9h-9.5v-24.5c0-7.1-2.6-10.5-8-10.5s-8.9,4.2-8.9,11.1v23.9h-9.5v-24.5c0-7.1-2.6-10.5-8-10.5s-9.5,4.2-9.5,11.1v23.9h-9.4v-24h0Z"/>
      <path class="st5" d="M375.9,68.1c0-8.7,6.6-13.8,17.5-13.8s7.5.5,10.5,1.2v-1.4c0-6.2-3.2-8.6-11-8.6s-9.8,1-13.5,2.5h-.4v-8.3c3.3-1.3,8.9-2.2,14.1-2.2,13.9,0,20,4.5,20,16.3s-.3,7.5-.3,10.7c0,5.9.8,13.3,1.3,16.3h-9.3c-.4-2-.7-3.8-.9-6.2h-.4c-2.6,4.6-7.1,7-12.6,7-9.4,0-15.1-5.1-15.1-13.4h0ZM392.7,74.1c6.5,0,11-3.8,11-10.5v-1c-2.9-.8-6.2-1.3-9.5-1.3-6.1,0-9.2,2.2-9.2,6.6s2.7,6.2,7.7,6.2h0Z"/>
      <path class="st5" d="M424.1,80.8V20.1h9.4v60.7h-9.4Z"/>
    </g>
    <g id="Energy_oneline_">
      <path class="st5" d="M498,25.5v8.4h-28.7v14.5h26.5v8.3h-26.5v15.7h28.7v8.4h-38.4V25.5h38.4Z"/>
      <path class="st5" d="M508.3,56.7c0-6.1-.6-13.4-1.4-18.5h9.4c.4,2,.6,3.7.8,6h.5c2.3-4.3,6.5-6.7,11.8-6.7,8.9,0,15.3,4.9,15.3,17.3v25.9h-9.5v-24.5c0-7.1-2.6-10.5-8-10.5s-9.5,4.2-9.5,11.1v23.9h-9.4v-24h0Z"/>
      <path class="st5" d="M552.8,59.8c0-13.3,7.1-22.4,19.1-22.4s17.6,6.8,17.6,18.8-.3,5.3-.4,6.7h-26.9c.6,7.4,5.7,11,13.3,11s7.3-.7,11.7-2.9h.3v8c-3.2,1.7-7.7,2.7-12.8,2.7-14,0-22.1-7.6-22.1-21.8h.2ZM562.3,56.1h18v-1.2c0-6.5-3.2-9.8-8.5-9.8s-8.8,4.3-9.5,11h0Z"/>
      <path class="st5" d="M598.5,56.7c0-6.1-.6-13.4-1.4-18.5h9.4c.3,1.9.6,3.9.9,6.9h.4c2-5,5.8-7.6,11.6-7.6s3.8.3,5,.8v9.1h-.4c-1.6-.6-3.8-.9-5.7-.9-6.6,0-10.4,4.3-10.4,11.4v22.9h-9.4v-24h0Z"/>
      <path class="st5" d="M629.9,96.7v-8.3h.4c3.9,2,9.7,3.4,14.3,3.4,7.5,0,11.2-3.2,11.2-12.5v-4.3h-.4c-2,4.1-5.5,6.5-10.4,6.5-10.6,0-17.4-7.7-17.4-21.2s7.8-22.8,20.3-22.8,4.7,0,8,.7h9.3v40.8c0,13.2-5.2,20.8-20,20.8s-11.8-1.5-15.4-3.1h.1ZM655.9,62.3v-15.8c-2.5-.7-5-.9-7.3-.9-7.5,0-11.5,5.1-11.5,14.7s3.3,13.3,9.4,13.3,9.3-4.2,9.3-11.2h0Z"/>
      <path class="st5" d="M688.6,82.1l-17.2-43.8h10.4l12.7,33h.4l2.8-10.6,8.1-22.4h9.8l-23.5,60.7h-10.1l6.6-16.9Z"/>
    </g>
  </g>
  <g id="Logo">
    <g id="InnerBox">
      <path class="st11" d="M31.8,72l8.8,5.2v-23.3l-8.8,5v13.1ZM48.1,53.9v23.3l8.8-5.2v-13s-8.8-5.1-8.8-5.1Z"/>
    </g>
    <g id="OuterBoxes">
      <path class="st5" d="M40.5,83.7l-15-8.9v-19.1l15-8.6v-5.1l-19.4,11.2v24.2l19.4,11.5v-5.1ZM44.3,25.7L8.3,46.5v37.6l36,21.2,36-21.2v-37.6l-36-20.7ZM44.3,39.9h0v5.1h0v40.9h0v5.1h0v6.3l-29.2-17.2v-29.8l29.2-16.8v6.3ZM48,47.1l12.2,7v.3c0,1.9,1.1,3.7,2.8,4.5v12.7c-1.6.8-2.8,2.5-2.8,4.5s0,.2,0,.4l-12.2,7.2v-36.5h0ZM65.2,57.1c-1.5,0-2.7-1.2-2.7-2.6s1.2-2.6,2.7-2.6,2.7,1.2,2.7,2.6-1.2,2.6-2.7,2.6ZM67.9,76.2c0,1.5-1.2,2.7-2.7,2.7s-2.7-1.2-2.7-2.7,1.2-2.7,2.7-2.7,2.7,1.2,2.7,2.7ZM73.5,80.1l-25.5,15.1v-6.3l14.5-8.6c.8.5,1.7.8,2.8.8,2.8,0,5-2.2,5-5s-1.1-3.7-2.8-4.5v-12.7c1.6-.8,2.8-2.5,2.8-4.5s-2.2-5-5-5-2,.3-2.8.8l-14.5-8.3v-6.3l25.5,14.7v29.8h0c0-.1,0-.1,0-.1Z"/>
    </g>
  </g>
  <g id="Generative_Object2">
    <g>
      <path class="st5" d="M65.7,29.3c1.3,1.4,3.6,2.5,5.1,4.3,2.4,2.8,6.3,10.6,1.9,13-22.5-2.3-45.5-3.7-68,.7,2.2-6.1,6.6-11.8,11.3-16.1,4.7-4.3,3.7-3.4,4.3-3.5,1.8-.7,8.8-1,11-1.1,11.4-.6,23,0,34.2,2.7h0Z"/>
      <path class="st13" d="M84,49c-1.2.9-8.9,1.4-10.7,1.6-16.8,1.2-35.5,1-52.3.3-3.7-.1-13-.4-16.1-1.7.4-.4,1.1-.5,1.6-.7,9.6-2.6,19.7-3.7,29.6-4.1s22.9,0,33.8,1.6c4.8.7,9.8,1.5,14.2,3.3h0c0-.1,0-.1,0-.1Z"/>
      <path class="st15" d="M81.3,36.2c.4.2,2.4,2,2.5,2.2.3.7.8,3.8.9,4.7.1,1.3.4,5.1-.7,5.9-4.5-1.7-9.5-2.6-14.2-3.3-10.9-1.5-22.7-1.9-33.8-1.6s-20,1.6-29.6,4.1c1.2-.5,2.3-1.2,3.5-1.6,2.8-1,6.1-1.7,9-2.3,17.4-3.4,35.4-2.3,53-.6,3.4-1.9.4-7.7-1.5-9.9s-3.1-2.2-4-3.3-.6-1-.6-1.3c4.8,1.3,11.5,3.8,15.5,6.8h0Z"/>
      <path class="st5" d="M9.9,46.8c-1.2.4-2.4,1.1-3.5,1.6s-1.3.3-1.6.7c-.2,0-.5,0-.7-.3-.3-.8,1.3-6.5,1.7-7.5s.8-2.3,1.3-2.9c1-1.3,6.9-4.5,8.6-5,1.6-.5.3,0,.2.1-3,3.9-5.4,8.5-6.6,13.3h.6Z"/>
    </g>
    <g>
      <path class="st5" d="M98.8,38.8v-.2c.4,7.5,10.4,9.4,12.5,1.6l.2-2.6c4.7,7.5-4.2,14.7-10.5,9.8-2.7-2-3.3-5.6-2.2-8.7h0Z"/>
      <path class="st15" d="M98.8,38.8c-1,3.1-.4,6.6,2.2,8.7,6.3,4.8,15.2-2.3,10.5-9.8,0-.1-.2-.3-.2-.4l.5.4c10.6,16.3-20.7,19.1-13,1.2h0Z"/>
    </g>
    <g>
      <path class="st3" d="M88.3,10.5c6.6,6.8,11.2,16,15.1,24.5l-2.4,1.2h0c.2-.4,1-.7,1-1-8.3-6.6-15.7-14.3-20.6-23.8-3.5.2-6.8-1.5-10.3-1.7s-5.5,0-6,2.5c-.5,3.1,4.6,12,6,15.3s1,2.5.7,2.5c-1.1-.5-2.5-1-3.7-1.4-7.5-2.2-18.2-3.7-25.8-2.1-.7.1-1.6.4-2.2.7-5.8.3-11.7,1-17.3,2.4,2.6-3.8,5.2-7.6,8.1-11.2,6.7-8.3,12-14.1,23.2-15.8,11.2-1.7,25,.6,34,8h0Z"/>
      <path class="st8" d="M88.3,10.5C79.3,3.1,65.7.7,54.3,2.5s-16.5,7.5-23.2,15.8c-6.7,8.3-5.6,7.5-8.2,11.3-2.8.7-5.6,1.7-8.3,2.8,4.7-6.9,9.2-14,14.5-20.3C38.2,1.4,43.2,0,57.2.1c11.4,0,22.9,2,31.1,10.4Z"/>
      <path class="st14" d="M101,36.3c-.1.1-.3.3-.4.4s-.5,0-.5,0c-.2,0-2.9-2.3-3.3-2.7-4.8-4.3-10.4-11.5-13.4-17.3s-2.1-3.6-1.9-5.4c4.8,9.5,12.2,17.3,20.6,23.8,0,.3-.7.6-1,.9s.1,0,0,.1h0Z"/>
      <g>
        <path class="st6" d="M81.4,11.4c-.2,1.8,1,3.8,1.9,5.4,3.1,5.7,8.6,13,13.4,17.3.4.4,3.1,2.6,3.3,2.7s.5,0,.5,0c-.3.1-1,1.3-1.3,1.3-.5,0-5.4-3.4-6.1-4-5.9-4.7-9.4-10.4-14.4-15.6s-6-5.7-4.8-.2c.4,2,3.1,6.8,4,9.1s2.3,6,3.4,8.9c-4-3-10.7-5.5-15.5-6.8-8.5-2.3-16.8-2.7-25.6-2.2.6-.4,1.6-.6,2.2-.7,7.5-1.6,18.3-.1,25.6,2.1,7.4,2.2,2.5.9,3.7,1.4.3,0-.6-2.3-.7-2.5-1.3-3.3-6.5-12.3-6-15.3.4-2.5,4-2.5,6-2.5,3.5.2,6.8,1.9,10.3,1.7h0Z"/>
        <path class="st9" d="M68.3,10.8l5.6,4.5c-.7.8-.3,1.8-.3,2.8-2.2-2-3.6-4.6-5.4-6.9v-.2h.1Z"/>
      </g>
    </g>
    <circle class="st5" cx="105.6" cy="41.2" r="7.1"/>
  </g>
  <path class="st5" d="M25,51"/>
  <polyline class="st5" points="25 51 33.4 51.3 40.5 47.1 40.5 44.1 36.7 44.2"/>
  <polyline class="st5" points="44.3 51.4 44.3 44.1 51.8 44.2 62.4 50.3 63.2 50 64.2 49.5 65.2 49.4 66.2 49.5 67.2 49.8 67.9 50.3 68.6 50.9 55.3 51.3 48 47.1 48 51.4"/>
  <polygon class="st5" points="15.1 50.6 15.1 50.3 24.2 45.1 20.1 45.6 16.9 46.1 13.7 46.7 9.3 47.6 8.3 47.9 8.3 50 10.4 50.2 12.5 50.4 15.1 50.6"/>
  <polygon class="st5" points="64.4 45.1 73.5 50.3 73.5 50.6 75.6 50.4 77.9 50.2 80 49.9 80.3 49.9 80.3 47.8 78.2 47.3 71.4 46 64.4 45.1"/>
</svg>