<?xml version="1.0" encoding="UTF-8"?>
<svg id="Regular_Colors" data-name="Regular Colors" xmlns="http://www.w3.org/2000/svg" viewBox="0 0 96.62 106.71">
  <defs>
    <style>
      .cls-1 {
        fill: #231f20;
      }

      .cls-2 {
        fill: #00aeef;
      }
    </style>
  </defs>
  <g id="Logo">
    <g id="InnerBox">
      <path class="cls-2" d="M31.5,61.95l11.81,6.97v-31.28l-11.81,6.69v17.62ZM53.31,37.67v31.25l11.81-6.97v-17.49l-11.81-6.79Z"/>
    </g>
    <g id="OuterBoxes">
      <path class="cls-1" d="M43.31,77.84l-20.15-11.89v-25.63l20.15-11.58v-6.89l-26.12,15.01v32.49l26.12,15.42v-6.93ZM48.31,0L0,27.76v50.43l48.31,28.52,48.31-28.52V27.76L48.31,0ZM48.31,18.97h0v6.89h0s0,54.93,0,54.93h0s0,6.93,0,6.93h0v8.41l-39.2-23.14v-39.96L48.31,10.51v8.46ZM53.31,28.73l16.43,9.44c0,.14-.02.27-.02.41,0,2.64,1.53,4.92,3.74,6.02v17.02c-2.21,1.1-3.74,3.38-3.74,6.02,0,.17.01.33.02.49l-16.44,9.7V28.73ZM76.45,42.14c-1.96,0-3.55-1.59-3.55-3.55s1.59-3.55,3.55-3.55,3.55,1.59,3.55,3.55-1.59,3.55-3.55,3.55ZM80,67.65c0,1.96-1.59,3.55-3.55,3.55s-3.55-1.59-3.55-3.55,1.59-3.55,3.55-3.55,3.55,1.59,3.55,3.55ZM87.51,72.99l-34.2,20.19v-8.41l19.47-11.49c1.06.69,2.31,1.09,3.67,1.09,3.71,0,6.73-3.02,6.73-6.73,0-2.64-1.53-4.92-3.74-6.02v-17.02c2.21-1.1,3.74-3.38,3.74-6.02,0-3.71-3.02-6.73-6.73-6.73-1.38,0-2.67.42-3.74,1.14l-19.4-11.15v-8.46l34.2,19.65v39.96Z"/>
    </g>
  </g>
</svg>