<svg xmlns="http://www.w3.org/2000/svg" id="a" viewBox="0 0 585 77.55"><defs><style>.b{fill:#d8ca26;}.b,.c{stroke-width:0px;}.c{fill:#0675a9;}</style></defs><path class="b" d="M59.48,73.54c-.17,0-.35-.02-.52-.06-1.01-.24-1.68-1.09-1.68-2.12v-17.32c0-.33-.25-.42-.35-.45-.11-.02-.37-.05-.52.24l-9.25,18.5c-.46.92-1.45,1.39-2.45,1.15-1.01-.24-1.68-1.09-1.68-2.12v-4.05c0-2.07-1.68-3.75-3.75-3.75H4.5v-1.72h34.77c3.02,0,5.48,2.46,5.48,5.48v4.05c0,.33.25.42.35.45.11.03.37.05.51-.24l9.25-18.5c.46-.92,1.45-1.39,2.45-1.15,1.01.24,1.68,1.09,1.68,2.12v17.32c0,.33.25.42.35.45.11.03.37.05.51-.24l9.25-18.5c.46-.92,1.45-1.38,2.45-1.15,1,.24,1.68,1.09,1.68,2.12v17.32c0,.33.25.42.35.45.11.03.37.05.51-.24l9.25-18.5c.46-.92,1.45-1.38,2.45-1.15,1,.24,1.68,1.09,1.68,2.12v4.05c0,2.07,1.68,3.75,3.75,3.75h274.68v1.72H91.26c-3.02,0-5.48-2.46-5.48-5.48v-4.05c0-.33-.25-.42-.35-.45-.11-.02-.37-.05-.51.24l-9.25,18.5c-.46.93-1.45,1.38-2.45,1.15-1.01-.24-1.68-1.09-1.68-2.12v-17.32c0-.33-.25-.42-.35-.45-.1-.02-.37-.05-.51.24l-9.25,18.5c-.38.76-1.12,1.21-1.93,1.21Z"></path><path class="c" d="M17.39,28.34c-.48,2.08,1.54,3.65,8.74,3.65s8.84-.99,9.18-2.46c.43-1.85-.61-2.18-9.41-2.84-13.68-1-19.35-4.03-17.6-11.61,1.61-6.97,10.27-10.57,22.24-10.57,13.77,0,20.31,4.07,19.06,11.61h-12.65c.51-2.23-2.21-3.08-8.38-3.08s-7.36.9-7.63,2.09c-.34,1.47.75,2.04,8.95,2.75,12.21,1.04,20.3,2.04,18.19,11.18-2,8.67-10.43,11.47-23.42,11.47-14.06,0-21.47-3.27-19.9-12.18h12.65Z"></path><path class="c" d="M116.98,5.45h12.26l-19.16,34.12h-17.51l-3.56-24.41-14.83,24.41h-17.51l-3.41-34.12h12.26l2.24,25.07,15.47-25.07h16.05l3.89,25.07,13.81-25.07Z"></path><path class="c" d="M144.54,5.45l-7.88,34.12h-12.16l7.88-34.12h12.16Z"></path><path class="c" d="M183.82,15.4h-23.83l-1.15,4.98h20.91l-2.3,9.95h-20.91l-2.13,9.24h-12.16l7.88-34.12h35.99l-2.3,9.95Z"></path><path class="c" d="M230.75,15.4h-14.84l-5.58,24.17h-12.16l5.58-24.17h-14.84l2.3-9.95h41.83l-2.3,9.95Z"></path><path class="c" d="M278,4.5c12.65,0,19.05,5.12,17.87,14.64h-12.94c.02-2.18-1.88-4.69-7.23-4.69-6.32,0-9.57,3.56-10.6,8.01-1.04,4.5.61,8.1,6.88,8.1,5.35,0,8.42-2.56,9.42-4.79h12.94c-3.23,9.57-11.96,14.74-24.66,14.74-13.52,0-20.01-6.02-17.23-18.06,2.77-11.99,12.03-17.96,25.55-17.96Z"></path><path class="c" d="M342.41,22.94c-2.66,11.51-10.53,17.58-25.46,17.58s-20.01-6.02-17.34-17.58l4.04-17.49h12.16l-3.93,17.01c-.93,4.03-.07,8.1,7.37,8.1s10.19-4.12,11.11-8.1l3.93-17.01h12.16l-4.04,17.49Z"></path><path class="c" d="M386.98,32.74l-1.58,6.82h-12.16l1.12-4.84c.7-3.03.12-3.89-2.99-3.89h-13.52l-2.01,8.72h-12.16l7.88-34.12h27.24c9.68,0,13.6,3.88,11.94,11.04-1.2,5.21-4.19,8.25-8.75,9.67,3.98.24,5.94,2.51,5,6.59ZM361.52,14.92l-1.49,6.45h12.16c2.72,0,4.77,0,5.51-3.22.74-3.22-1.3-3.22-4.02-3.22h-12.16Z"></path><path class="c" d="M434.29,32.74l-1.58,6.82h-12.16l1.12-4.84c.7-3.03.12-3.89-2.99-3.89h-13.52l-2.01,8.72h-12.16l7.88-34.12h27.24c9.68,0,13.6,3.88,11.94,11.04-1.2,5.21-4.19,8.25-8.75,9.67,3.98.24,5.94,2.51,5,6.59ZM408.83,14.92l-1.49,6.45h12.16c2.72,0,4.77,0,5.51-3.22.74-3.22-1.3-3.22-4.02-3.22h-12.16Z"></path><path class="c" d="M480.09,14.45h-23.83l-.82,3.56h22.86l-2.08,9h-22.86l-.82,3.55h23.83l-2.08,9.01h-35.99l7.88-34.12h35.99l-2.08,9Z"></path><path class="c" d="M521.9,5.45h12.16l-7.88,34.12h-18l-11.42-22.56-5.21,22.56h-12.16l7.88-34.12h18l11.43,22.56,5.21-22.56Z"></path><path class="c" d="M578.2,15.4h-14.84l-5.58,24.17h-12.16l5.58-24.17h-14.84l2.3-9.95h41.83l-2.3,9.95Z"></path><path class="c" d="M406.77,58.6h-13.35l-.46,1.99h12.81l-1.17,5.05h-12.81l-.46,1.99h13.35l-1.17,5.05h-20.16l4.41-19.12h20.16l-1.17,5.05Z"></path><path class="c" d="M433.14,53.55h6.81l-4.41,19.12h-10.08l-6.4-12.64-2.92,12.64h-6.81l4.41-19.12h10.08l6.4,12.64,2.92-12.64Z"></path><path class="c" d="M465.03,58.6h-13.35l-.46,1.99h12.81l-1.17,5.05h-12.81l-.46,1.99h13.35l-1.17,5.05h-20.16l4.41-19.12h20.16l-1.17,5.05Z"></path><path class="c" d="M491.85,68.85l-.88,3.82h-6.81l.63-2.71c.39-1.7.07-2.18-1.68-2.18h-7.57l-1.13,4.88h-6.81l4.41-19.12h15.26c5.42,0,7.62,2.18,6.69,6.19-.67,2.92-2.35,4.62-4.9,5.42,2.23.13,3.33,1.41,2.8,3.69ZM477.59,58.87l-.83,3.61h6.81c1.53,0,2.67,0,3.09-1.8.42-1.81-.73-1.81-2.25-1.81h-6.81Z"></path><path class="c" d="M513.09,53.03c6.76,0,10.56,3.13,9.84,7.54h-7.25c-.08-.82-.94-1.96-3.83-1.96-3.73,0-5.74,1.96-6.38,4.75-.64,2.79.17,4.8,5.02,4.8,2.21,0,3.83-.4,5.46-1.01l.26-1.14h-6.1l.92-3.98h11.55l-1.97,8.52c-4.47,2.15-8,2.66-11.7,2.66-7.57,0-12.03-3.37-10.47-10.12,1.55-6.72,7.55-10.06,14.64-10.06Z"></path><path class="c" d="M546.26,53.55h8.45l-13.49,12.74-1.47,6.37h-6.81l1.47-6.37-7.6-12.74h8.45l3.85,7.17,7.16-7.17Z"></path></svg>