<svg viewBox="0 0 432 315" xmlns="http://www.w3.org/2000/svg">
  <defs>
    <style>
      .text-color { fill: #000000; }
    </style>
  </defs>
  <g fill="none" fill-rule="evenodd">
    <path d="M182.4 85.78a.86.86 0 01-1.63 0l-6.84-11.85a3.18 3.18 0 010-2.82L214.65.58a.86.86 0 011.63 0l6.84 11.85a3.11 3.11 0 010 2.82L182.4 85.78zm12.06 23.71a1.64 1.64 0 002.23.6l60.7-35a1.63 1.63 0 00.6-2.22l-24.77-42.9a.86.86 0 00-1.63 0l-40.72 70.53a3.11 3.11 0 000 2.82l3.59 6.17zM300.24 147h-83.37c-.9 0-1.26.63-.82 1.41l7 12.18a3.09 3.09 0 002.44 1.41h83.41c.9 0 1.27-.63.82-1.41l-7-12.18a3.13 3.13 0 00-2.48-1.41zm-35.52-58.91L204 123.14a1.63 1.63 0 00-.59 2.22l3.59 6.23a3.12 3.12 0 002.44 1.41h81.46c.9 0 1.27-.63.82-1.41L267 88.69a1.63 1.63 0 00-2.28-.6z" fill="#02FE9F" fill-rule="nonzero"></path>
    <path d="M206.22 162H123.1c-.9 0-1.27-.63-.82-1.41l41.56-72a.86.86 0 011.63 0l41.56 72c.45.78.08 1.41-.81 1.41zm-57.72-15h32.31c.9 0 1.26-.63.82-1.41l-16.16-28a.86.86 0 00-1.63 0l-16.15 28c-.45.78-.08 1.41.81 1.41zM39.44 271.54a36.8 36.8 0 01-15.3-3.25 40.1 40.1 0 01-12.54-8.82 41.9 41.9 0 01-8.48-13 42.53 42.53 0 010-32 41.83 41.83 0 018.48-13.1 40.43 40.43 0 0112.54-8.82 36.79 36.79 0 0115.3-3.24 37 37 0 0115.4 3.24 40.31 40.31 0 0112.54 8.82 41.83 41.83 0 018.48 13.1 42.53 42.53 0 010 32 41.9 41.9 0 01-8.48 13 40 40 0 01-12.54 8.82 37 37 0 01-15.4 3.25zm.05-68.08a21.72 21.72 0 00-9.71 2.22 26.49 26.49 0 00-7.89 5.9 28.07 28.07 0 00-5.35 8.6 27.68 27.68 0 000 20.51 29 29 0 005.35 8.61 26 26 0 007.89 5.95 22.35 22.35 0 0019.42 0 26 26 0 007.89-5.95 29 29 0 005.35-8.61 27.68 27.68 0 000-20.51 28.07 28.07 0 00-5.35-8.6 26.49 26.49 0 00-7.89-5.9 21.72 21.72 0 00-9.71-2.22zM105.17 270H97a3 3 0 01-2.29-1 3.28 3.28 0 01-.94-2.38v-72.46a3.27 3.27 0 01.94-2.38 3.05 3.05 0 012.29-1h31.43a28.66 28.66 0 0110.71 1.95 27.08 27.08 0 018.22 5.63 24.76 24.76 0 013.13 4 26.89 26.89 0 012.29 4.66 31.89 31.89 0 011.87 11 27.91 27.91 0 01-4.27 15.7 24.69 24.69 0 01-8.68 8.28 2.89 2.89 0 00-1.46 1.79 2.43 2.43 0 00.52 2.22c2.56 3.6 5.007 7.007 7.34 10.22a513.567 513.567 0 017.23 10.23 2.68 2.68 0 01.47 2.38 1.61 1.61 0 01-1.72 1.19h-10.51a6 6 0 01-2.81-.76 6.57 6.57 0 01-2.29-1.84c-1.18-1.65-2.34-3.3-3.49-4.92l-3.48-4.92-6.87-10.07a6.38 6.38 0 00-2.29-1.95 6.14 6.14 0 00-2.81-.75h-8a3 3 0 00-2.29 1 3.28 3.28 0 00-.94 2.38v18.51a3.4 3.4 0 01-.88 2.38 2.89 2.89 0 01-2.25.91zm6.35-38.63h16.86a11 11 0 004.05-.87 10.34 10.34 0 003.85-2.49 14.46 14.46 0 002.71-4.11 14.22 14.22 0 001-5.85 21.72 21.72 0 00-.42-4.11 13.58 13.58 0 00-.62-2.33c-.28-.75-.59-1.49-.94-2.21a11 11 0 00-3.53-3.68 11.33 11.33 0 00-6.14-1.52h-16.82a3.05 3.05 0 00-2.29 1 3.28 3.28 0 00-.94 2.38V228a3.28 3.28 0 00.94 2.38 3.05 3.05 0 002.29 1.01v-.02z" fill="currentColor" fill-rule="nonzero"></path>
    <path d="M185 270h-8.22a2.89 2.89 0 01-2.24-1 3.4 3.4 0 01-.88-2.38v-72.4a3.43 3.43 0 01.88-2.39 2.89 2.89 0 012.24-1H185a3.06 3.06 0 012.29 1 3.34 3.34 0 01.93 2.39v72.4a3.31 3.31 0 01-.93 2.38 3.06 3.06 0 01-2.29 1z" fill="currentColor"></path>
    <path d="M211.94 270a2.87 2.87 0 01-2.23-1 3.41 3.41 0 01-.89-2.38v-72.46a3.39 3.39 0 01.89-2.38 2.88 2.88 0 012.23-1h26.85c10.893 0 19.843 3.333 26.85 10a34.58 34.58 0 018.43 12.77 48.45 48.45 0 012.93 16.86 51.42 51.42 0 01-.73 8.93 42.25 42.25 0 01-2.18 8 33 33 0 01-8.43 12.87 34.05 34.05 0 01-12 7.36 43.35 43.35 0 01-14.87 2.43h-26.85zm14.57-13.42h12.39a36.94 36.94 0 008.22-1 18 18 0 007.49-3.9 20.65 20.65 0 005.62-7.9c1.46-3.333 2.187-7.77 2.18-13.31-.007-5.54-.733-10.013-2.18-13.42a20.73 20.73 0 00-5.62-7.9 18.47 18.47 0 00-7.6-3.79 36.4 36.4 0 00-8.11-1h-12.39a2.86 2.86 0 00-2.23 1 3.43 3.43 0 00-.89 2.38v45.46a3.41 3.41 0 00.89 2.38 2.86 2.86 0 002.23 1.02v-.02z" fill="currentColor" fill-rule="nonzero"></path>
    <path d="M307.16 207.58v13.09a3.28 3.28 0 00.94 2.38 3.05 3.05 0 002.29 1h30.38a3 3 0 012.29 1 3.28 3.28 0 01.94 2.38v7a3.3 3.3 0 01-.94 2.38 3 3 0 01-2.29 1h-30.38a3.05 3.05 0 00-2.29 1 3.27 3.27 0 00-.94 2.38V253a3.28 3.28 0 00.94 2.38 3.05 3.05 0 002.29 1h35.07a3.06 3.06 0 012.29 1 3.31 3.31 0 01.93 2.38v6.93a3.31 3.31 0 01-.93 2.38 3.06 3.06 0 01-2.29 1h-49.64a3 3 0 01-2.29-1 3.28 3.28 0 01-.94-2.38v-72.53a3.27 3.27 0 01.94-2.38 3.05 3.05 0 012.29-1h49.64a3.07 3.07 0 012.29 1 3.3 3.3 0 01.93 2.38v6.71a3.33 3.33 0 01-.93 2.38 3.06 3.06 0 01-2.29 1h-35.07a3.05 3.05 0 00-2.29 1 3.28 3.28 0 00-.94 2.33zM380.38 226.3v40.37a3.31 3.31 0 01-.93 2.38 3.06 3.06 0 01-2.29 1h-8.22a2.94 2.94 0 01-2.19-1 3.31 3.31 0 01-.93-2.38v-74a1.52 1.52 0 011.3-1.68 2.38 2.38 0 012.23.6L415 236.47c.69.65 1.26.87 1.71.65.45-.22.68-.79.68-1.73v-41.12a3.3 3.3 0 01.94-2.39 3 3 0 012.29-1h8.11a3 3 0 012.29 1 3.3 3.3 0 01.94 2.39v73.91a1.52 1.52 0 01-1.3 1.68 2.64 2.64 0 01-2.34-.6l-45.58-44.15c-.7-.58-1.27-.76-1.72-.54-.45.22-.64.79-.64 1.73z" fill="currentColor"></path>
  </g>
</svg>