<?xml version="1.0" encoding="UTF-8"?>
<svg id="Layer_2" data-name="Layer 2" xmlns="http://www.w3.org/2000/svg" viewBox="0 0 251.92 88.67">
  <defs>
    <style>
      .cls-1 {
        fill: #92c493;
      }

      .cls-2 {
        fill: #83bf93;
      }

      .cls-3 {
        fill: #176b91;
      }
    </style>
  </defs>
  <g id="Layer_1-2" data-name="Layer 1">
    <g>
      <g>
        <path class="cls-1" d="m15.61,70.44v1.83H5.4v6.21h7.82v1.83h-7.82v6.21h10.21v1.83H3.57v-17.92h12.04Z"/>
        <path class="cls-1" d="m22.58,88.36h-1.83v-17.92h2.3l10.61,15.26v-15.26h1.83v17.92h-2.3l-10.61-15.26v15.26Z"/>
        <path class="cls-1" d="m52.67,70.44v1.83h-10.21v6.21h7.82v1.83h-7.82v6.21h10.21v1.83h-12.04v-17.92h12.04Z"/>
        <path class="cls-1" d="m66.89,81.43l4.18,6.92h-2.35l-3.98-6.61h-5.12v6.61h-1.83v-17.92h7.19c3.13,0,5.65,2.52,5.65,5.65,0,2.46-1.56,4.56-3.75,5.34Zm-7.26-9.16v7.64h5.36c2.1,0,3.82-1.72,3.82-3.82s-1.72-3.8-3.82-3.8v-.02h-5.36Z"/>
        <path class="cls-1" d="m85.46,88.67c-5.12,0-9.27-4.16-9.27-9.27s4.16-9.29,9.27-9.29c2.46,0,4.83.98,6.57,2.73l-1.34,1.34c-1.38-1.38-3.26-2.17-5.23-2.17-4.09,0-7.37,3.31-7.37,7.39s3.28,7.39,7.37,7.39c1.99,0,3.89-.8,5.27-2.21v-3.98h-5.81v-1.83h7.64v6.59c-1.76,2.1-4.36,3.31-7.1,3.31Z"/>
        <path class="cls-1" d="m108.89,70.44h2.17l-6.52,9.63v8.29h-1.83v-8.29l-6.52-9.63h2.19l5.25,7.77,5.27-7.77Z"/>
        <path class="cls-1" d="m136.89,73.44s-1.34-1.41-4.4-1.41c-2.52,0-4.27,1.47-4.27,3.19,0,.2.02.4.07.6.42,1.92,2.77,2.21,4.69,2.64,2.79.63,5.43,1.5,5.88,4.71.02.18.04.38.04.56,0,2.57-2.39,4.94-6.23,4.94s-6.46-1.97-6.46-1.97l1.12-1.54s2.26,1.61,5.34,1.61c2.55,0,4.31-1.36,4.31-3.02,0-.11,0-.2-.02-.31-.18-1.25-.92-1.94-1.85-2.37-1.83-.8-4.36-.92-6.12-1.79-1.23-.6-2.19-1.5-2.55-3.02-.09-.34-.11-.69-.11-1.03,0-2.64,2.35-5.12,6.17-5.12,4.07,0,5.83,2.03,5.83,2.03l-1.43,1.27Z"/>
        <path class="cls-1" d="m155.14,72.28h-6.08v16.08h-1.85v-16.08h-6.08v-1.83h14.01v1.83Z"/>
        <path class="cls-1" d="m176.18,79.4c0,5.12-4.18,9.27-9.29,9.27s-9.27-4.16-9.27-9.27,4.16-9.27,9.27-9.27,9.29,4.16,9.29,9.27Zm-16.67,0c0,4.09,3.28,7.39,7.37,7.39s7.39-3.31,7.39-7.39-3.31-7.39-7.39-7.39-7.37,3.31-7.37,7.39Z"/>
        <path class="cls-1" d="m190.39,81.43l4.18,6.92h-2.35l-3.98-6.61h-5.12v6.61h-1.83v-17.92h7.19c3.13,0,5.65,2.52,5.65,5.65,0,2.46-1.56,4.56-3.75,5.34Zm-7.26-9.16v7.64h5.36c2.1,0,3.82-1.72,3.82-3.82s-1.72-3.8-3.82-3.8v-.02h-5.36Z"/>
        <path class="cls-1" d="m216.05,88.34h-2.05l-2.28-5.67h-7.71l-2.28,5.67h-2.05l7.15-17.87h2.05l7.17,17.87Zm-11.3-7.51h6.23l-3.13-7.8-3.1,7.8Z"/>
        <path class="cls-1" d="m227.64,88.67c-5.12,0-9.27-4.16-9.27-9.27s4.16-9.29,9.27-9.29c2.46,0,4.83.98,6.57,2.73l-1.34,1.34c-1.38-1.38-3.26-2.17-5.23-2.17-4.09,0-7.37,3.31-7.37,7.39s3.28,7.39,7.37,7.39c1.99,0,3.89-.8,5.27-2.21v-3.98h-5.81v-1.83h7.64v6.59c-1.76,2.1-4.36,3.31-7.1,3.31Z"/>
        <path class="cls-1" d="m251.92,70.44v1.83h-10.21v6.21h7.82v1.83h-7.82v6.21h10.21v1.83h-12.04v-17.92h12.04Z"/>
      </g>
      <g>
        <path class="cls-3" d="m29.07,59.25C13.03,59.25,0,46.16,0,30.12S13.03,1.05,29.07,1.05c7.7,0,15.13,3.08,20.59,8.54l-7,7c-3.57-3.57-8.47-5.67-13.59-5.67-10.58,0-19.19,8.62-19.19,19.19s8.62,19.26,19.19,19.26c4.62,0,9.04-1.68,12.47-4.62v-8.69h-14.15v-9.95h23.95v22.76c-5.53,6.58-13.66,10.37-22.27,10.37Z"/>
        <path class="cls-3" d="m114.09,29.07c0,16.04-13.1,29.07-29.14,29.07s-29.07-13.03-29.07-29.07S68.91,0,84.95,0s29.14,13.03,29.14,29.07Zm-48.33,0c0,10.58,8.62,19.19,19.19,19.19s19.26-8.61,19.26-19.19-8.68-19.19-19.26-19.19-19.19,8.61-19.19,19.19Z"/>
        <path class="cls-3" d="m148.12,12.89s-3.57-3.43-11.49-3.43c-6.09,0-10.58,3.29-10.58,7.35,0,.42,0,.84.14,1.33.63,2.52,2.52,3.57,4.76,4.41,2.31.84,4.9,1.33,7.49,1.89,9.03,1.96,17.3,5.04,18.77,15.41.07.63.14,1.26.14,1.89,0,8.4-7.7,16.39-20.24,16.39-11.35,0-20.94-5.95-20.94-5.95l4.97-8.05s7.35,4.55,15.97,4.55c6.16,0,10.79-2.87,10.79-6.79,0-.28,0-.49-.07-.77-.49-3.64-3.15-5.04-6.09-6.02-3.01-.98-6.44-1.61-9.59-2.38-7.35-1.82-13.38-4.83-15.2-12.33-.28-1.19-.42-2.31-.42-3.5,0-8.68,7.63-16.88,20.1-16.88s18.56,6.58,18.56,6.58l-7.07,6.3Z"/>
        <path class="cls-3" d="m214.01.98h37.75v9.81h-27.94v13.38h20.45v9.95h-20.45v13.24h27.94v9.81h-37.75V.98Z"/>
        <polygon class="cls-3" points="199.66 .98 199.66 24.23 171.72 24.23 171.72 .98 161.84 .98 161.84 57.15 171.72 57.15 171.72 34.11 178.71 34.11 178.71 28.9 193.53 28.9 193.53 34.11 199.66 34.11 199.66 57.15 209.47 57.15 209.47 .98 199.66 .98"/>
      </g>
      <path class="cls-2" d="m186.22,57.08v-9.38h-6.03c1.97-4.69,5.96-13.88,5.96-13.88v9.36h6.07c-1.98,4.7-5.94,13.9-5.99,13.9Z"/>
    </g>
  </g>
</svg>