<svg xmlns="http://www.w3.org/2000/svg" xmlns:xlink="http://www.w3.org/1999/xlink" width="410" height="83.911" viewBox="0 0 410 83.911"><defs><style>.a{fill:#13487f;}.b{fill:#929497;}.c{fill:none;stroke:#bbbdbf;stroke-miterlimit:10;}.d{fill:url(#a);}.e{fill:url(#b);}.f{fill:url(#c);}.g{fill:url(#e);}.h{fill:url(#h);}.i{fill:url(#i);}.j{fill:url(#j);}.k{fill:url(#k);}.l{fill:url(#l);}</style><linearGradient id="a" y1="0.5" x2="1" y2="0.5" gradientUnits="objectBoundingBox"><stop offset="0" stop-color="#5080b1"/><stop offset="0.12" stop-color="#477dae"/><stop offset="0.31" stop-color="#2d73a7"/><stop offset="0.56" stop-color="#04649b"/><stop offset="0.58" stop-color="#00639a"/><stop offset="1" stop-color="#004e8b"/></linearGradient><linearGradient id="b" y1="0.499" x2="1" y2="0.499" xlink:href="#a"/><linearGradient id="c" y1="0.501" x2="1" y2="0.501" xlink:href="#a"/><linearGradient id="e" y1="0.5" x2="1" y2="0.5" xlink:href="#a"/><linearGradient id="h" y1="0.499" x2="1" y2="0.499" xlink:href="#a"/><linearGradient id="i" x1="0.235" y1="0.221" x2="1.301" y2="1.498" xlink:href="#a"/><linearGradient id="j" x1="0.158" y1="0.098" x2="1.455" y2="1.651" xlink:href="#a"/><linearGradient id="k" x1="0.016" y1="-0.153" x2="1.302" y2="1.489" xlink:href="#a"/><linearGradient id="l" x1="0.137" y1="0.002" x2="1.13" y2="1.276" xlink:href="#a"/></defs><path class="a" d="M136.23,40.043V18.86h15.963v4.164H140.859v4.262h9.987V31.45h-9.987V35.9h11.5v4.164Z" transform="translate(-41.679 -5.77)"/><path class="a" d="M177.965,40.043l-4.754-7.267-4.775,7.267h-5.3l7.378-10.772L163.438,18.86h5.448l4.449,6.871,4.477-6.871h5.3l-7.079,10.348,7.378,10.834Z" transform="translate(-49.912 -5.77)"/><path class="a" d="M204.751,40.243a10.688,10.688,0,0,1-10.862-10.89v-.062a11.388,11.388,0,0,1,19.371-7.683l-2.943,3.436a7.823,7.823,0,0,0-5.414-2.388c-3.567,0-6.142,2.964-6.142,6.594v.062c0,3.63,2.512,6.656,6.142,6.656a7.585,7.585,0,0,0,5.552-2.478l2.964,2.991a10.813,10.813,0,0,1-8.669,3.762Z" transform="translate(-59.319 -5.609)"/><path class="a" d="M226.78,40.043V18.86h15.963v4.164H231.409v4.262H241.4V31.45h-9.987V35.9H242.9v4.164Z" transform="translate(-69.382 -5.77)"/><path class="a" d="M256.19,40.043V18.86h4.664V35.8h10.557v4.241Z" transform="translate(-78.38 -5.77)"/><path class="a" d="M290.441,40.209a13.458,13.458,0,0,1-8.981-3.387l2.776-3.3a9.715,9.715,0,0,0,6.323,2.568c1.909,0,3.061-.757,3.061-1.992v-.062c0-1.18-.729-1.784-4.268-2.693-4.268-1.09-7.017-2.27-7.017-6.476v-.062c0-3.838,3.082-6.378,7.412-6.378a12.236,12.236,0,0,1,7.864,2.693l-2.422,3.5a9.942,9.942,0,0,0-5.5-2.082c-1.784,0-2.721.819-2.721,1.846v.062c0,1.388.9,1.846,4.567,2.776,4.3,1.117,6.718,2.665,6.718,6.358v.056C298.221,37.849,295.022,40.209,290.441,40.209Z" transform="translate(-86.111 -5.638)"/><path class="a" d="M311.44,40.043V18.86H316.1V40.043Z" transform="translate(-95.283 -5.77)"/><path class="a" d="M335.2,40.244a10.844,10.844,0,0,1-11.223-10.89v-.062a11.259,11.259,0,0,1,22.508-.062v.062A10.952,10.952,0,0,1,335.2,40.244Zm6.42-10.952a6.441,6.441,0,0,0-6.42-6.656,6.332,6.332,0,0,0-6.351,6.594v.062a6.434,6.434,0,0,0,6.413,6.656,6.334,6.334,0,0,0,6.358-6.594Z" transform="translate(-99.12 -5.611)"/><path class="a" d="M374.971,40.043l-4.539-6.781h-3.658v6.781H362.11V18.86h9.682c5,0,7.989,2.63,7.989,6.989V25.9a6.58,6.58,0,0,1-4.56,6.58l5.178,7.565Zm.09-13.951c0-2-1.388-3.026-3.658-3.026h-4.629v6.08h4.72c2.27,0,3.567-1.208,3.567-2.991Z" transform="translate(-110.785 -5.77)"/><path class="a" d="M406.7,40.043V18.86h15.963v4.164H411.329v4.262h9.987V31.45h-9.987V35.9h11.5v4.164Z" transform="translate(-124.427 -5.77)"/><path class="a" d="M450.97,40.043,440.712,26.592V40.056h-4.6V18.86h4.3L450.331,31.9V18.86h4.6V40.043Z" transform="translate(-133.425 -5.77)"/><path class="a" d="M470.56,40.043V18.86h15.963v4.164H475.189v4.262h9.987V31.45h-9.987V35.9h11.5v4.164Z" transform="translate(-143.965 -5.77)"/><path class="a" d="M512.84,40.043l-4.511-6.781h-3.665v6.781H500V18.86h9.682c4.99,0,7.988,2.63,7.988,6.989V25.9a6.579,6.579,0,0,1-4.539,6.566l5.171,7.565Zm.09-13.951c0-2-1.388-3.026-3.665-3.026h-4.629v6.08h4.72c2.27,0,3.574-1.208,3.574-2.991Z" transform="translate(-152.972 -5.77)"/><path class="a" d="M540.645,40.243c-6.594,0-11.1-4.629-11.1-10.89v-.062a10.869,10.869,0,0,1,11.1-10.952,11.68,11.68,0,0,1,8.329,2.9l-2.936,3.54a7.815,7.815,0,0,0-5.552-2.145,6.358,6.358,0,0,0-6.08,6.594v.062c0,3.873,2.658,6.718,6.413,6.718a7.433,7.433,0,0,0,4.365-1.249V31.713h-4.692V27.688h9.2v9.2a13.756,13.756,0,0,1-9.051,3.359Z" transform="translate(-162.009 -5.61)"/><path class="a" d="M573.358,31.6v8.447H568.7V31.714L560.56,18.86h5.448l5.053,8.5,5.143-8.5h5.3Z" transform="translate(-171.5 -5.77)"/><path class="b" d="M144.343,87.361a7.989,7.989,0,0,1-8.113-8.134v-.042A8.037,8.037,0,0,1,144.475,71a8.148,8.148,0,0,1,6.246,2.436l-2.207,2.554a5.823,5.823,0,0,0-4.046-1.784,4.686,4.686,0,0,0-4.588,4.921v.049a4.7,4.7,0,0,0,4.588,4.969,5.631,5.631,0,0,0,4.164-1.853l2.214,2.235A8.086,8.086,0,0,1,144.343,87.361Z" transform="translate(-41.678 -21.717)"/><path class="b" d="M224.3,87.153l-1.444-3.547H216.17l-1.444,3.547H211.18l6.774-15.963h3.207l6.774,15.963ZM219.509,75.4l-2.082,5.129h4.2Z" transform="translate(-64.609 -21.78)"/><path class="b" d="M296.778,82.473H294.14v4.747h-3.47V71.41h6.476c3.776,0,6.052,2.235,6.052,5.462v.049C303.17,80.578,300.324,82.473,296.778,82.473Zm2.873-5.552c0-1.562-1.083-2.394-2.825-2.394H294.14v4.858h2.776c1.735,0,2.776-1.034,2.776-2.388Z" transform="translate(-88.929 -21.847)"/><path class="b" d="M364.55,87.221V71.41h3.47V87.221Z" transform="translate(-111.532 -21.847)"/><path class="b" d="M433.35,74.6V87.221h-3.47V74.6h-4.81V71.41h13.138V74.6Z" transform="translate(-130.047 -21.847)"/><path class="b" d="M508.008,87.153l-1.451-3.547h-6.684l-1.437,3.547H494.89l6.774-15.963h3.207l6.781,15.963ZM503.219,75.4l-2.082,5.129h4.2Z" transform="translate(-151.408 -21.78)"/><path class="b" d="M574.36,87.221V71.41h3.47V84.056h7.884v3.165Z" transform="translate(-175.722 -21.847)"/><line class="c" x2="315.449" transform="translate(94.551 41.956)"/><path class="d" d="M14.95,89.755A51.283,51.283,0,0,1,0,87.77v7.024a59.876,59.876,0,0,0,14.95,1.721,68.76,68.76,0,0,0,16.713-2.3l-5.608-5.49a55.663,55.663,0,0,1-11.1,1.027Z" transform="translate(0 -26.853)"/><path class="e" d="M70.87,26.58l4,5.552c5.684-2.991,12.236-5.289,22.661-5.351V20C85.07,20.062,77.373,23.04,70.87,26.58Z" transform="translate(-21.682 -6.119)"/><path class="f" d="M9.349,52.161,3.866,44.575A38.829,38.829,0,0,1,0,43.61v7.031a55.164,55.164,0,0,0,9.349,1.52Z" transform="translate(0 -13.342)"/><path class="d" d="M14.95,67.085h1.929l-4.928-6.8A48.348,48.348,0,0,1,0,58.34v7.031a59.9,59.9,0,0,0,14.95,1.714Z" transform="translate(0 -17.849)"/><path class="g" d="M78.76,38.645l4.1,5.663A48.853,48.853,0,0,1,99.95,41.47V34.71C90.781,34.759,84.194,36.376,78.76,38.645Z" transform="translate(-24.096 -10.619)"/><path class="g" d="M87.3,51.321l4.3,5.934a55.045,55.045,0,0,1,10.966-1.076v-6.76a59.043,59.043,0,0,0-15.262,1.9Z" transform="translate(-26.709 -15.119)"/><path class="d" d="M14.95,81.8a67.058,67.058,0,0,0,8.933-.562L19.295,74.9c-1.388.09-2.818.139-4.345.139A51.055,51.055,0,0,1,0,73.05v7.031A59.9,59.9,0,0,0,14.95,81.8Z" transform="translate(0 -22.349)"/><path class="h" d="M96.59,64.737l4.581,6.323c1.333-.1,2.776-.146,4.234-.153V64.14a66.354,66.354,0,0,0-8.815.6Z" transform="translate(-29.551 -19.623)"/><path class="i" d="M80.421,45.114l-2.152-2.971-4.3-5.941L72.147,33.69l-4.1-5.664-1.471-2.034L49.771,0c-1.839,1-4.3,4.053-6.031,5.094-.2.125,33.634,47.446,33.634,47.446a49.377,49.377,0,0,1,7.635-1.11Z" transform="translate(-13.382)"/><path class="j" d="M41.292,20c-1.971,1.069-3.248,2.776-5.552,3.637L63.287,63.2a49.973,49.973,0,0,1,6.33-2.943Z" transform="translate(-10.934 -6.119)"/><path class="k" d="M35.635,44.71A49.693,49.693,0,0,1,28,45.8L56.456,85.555c1.895-1.027,3.942-2.984,5.726-4.053C62.328,81.412,35.635,44.71,35.635,44.71Z" transform="translate(-8.566 -13.679)"/><path class="l" d="M14.711,46.006A53.075,53.075,0,0,1,5.57,45l5.483,7.572,2.6,3.6,4.928,6.8L21,66.3l4.588,6.337,2.172,2.991,16.56,22.05c2.464-.694,3.47-2.589,5.552-3.47Z" transform="translate(-1.704 -13.767)"/></svg>